<svg width="50" height="51" viewBox="0 0 50 51" fill="none" xmlns="http://www.w3.org/2000/svg">
<rect y="0.433594" width="50" height="50" rx="25" fill="#7070FF"/>
<g clip-path="url(#clip0_4897_25656)">
<path d="M23.7407 9.91797C20.4922 10.1604 17.4376 11.421 14.9649 13.5543C14.771 13.6998 14.7225 14.0392 14.9649 14.2816L18.3589 17.6755C18.5528 17.8695 18.7952 17.8695 18.9892 17.724C20.3952 16.6089 22.0922 15.8816 23.8861 15.6877C24.1286 15.6392 24.3225 15.4452 24.3225 15.2028V10.4028C24.274 10.1119 24.0316 9.91797 23.7407 9.91797Z" fill="white"/>
<path d="M13.1692 15.3485C10.7935 18.1607 9.48438 21.7485 9.48438 25.4334C9.48438 38.7667 25.0965 45.7485 35.0359 37.2637C35.2783 37.0698 35.2783 36.7304 35.0844 36.5364L31.6904 33.1425C31.4965 32.9485 31.2541 32.9485 31.0601 33.094C24.7086 38.0879 15.2541 33.5788 15.2541 25.3849C15.2541 23.1546 15.9813 21.0698 17.3389 19.3243C17.4844 19.1304 17.4844 18.8395 17.2904 18.694L13.8965 15.3001C13.7026 15.1061 13.3632 15.1061 13.1692 15.3485Z" fill="white"/>
<path d="M36.8296 35.4695C39.2054 32.6574 40.5144 29.118 40.5144 25.4331C40.5144 17.3362 34.2599 10.5483 26.2599 9.91797C25.969 9.91797 25.7266 10.1119 25.7266 10.4028V15.2028C25.7266 15.4452 25.9205 15.6392 26.1629 15.6877C31.0599 16.2695 34.7932 20.4392 34.7932 25.4331C34.7932 27.6634 34.066 29.7483 32.7084 31.4937C32.5629 31.6877 32.5629 31.9786 32.7569 32.124L36.1508 35.518C36.2963 35.7119 36.6357 35.7119 36.8296 35.4695Z" fill="white"/>
<g clip-path="url(#clip1_4897_25656)">
<path d="M26.8057 22.8457C26.3345 22.8457 25.9512 22.4624 25.9512 21.9912V19.1836H21.5811C20.8406 19.1836 20.2383 19.786 20.2383 20.5264V30.3408C20.2383 31.0812 20.8406 31.6836 21.5811 31.6836H28.417C29.1574 31.6836 29.7598 31.0812 29.7598 30.3408V22.8457H26.8057ZM22.2402 27.9727H24.0156C24.2179 27.9727 24.3818 28.1366 24.3818 28.3389C24.3818 28.5411 24.2179 28.7051 24.0156 28.7051H22.2402C22.038 28.7051 21.874 28.5411 21.874 28.3389C21.874 28.1366 22.038 27.9727 22.2402 27.9727ZM21.874 26.3857C21.874 26.1835 22.038 26.0195 22.2402 26.0195H27.6113C27.8136 26.0195 27.9775 26.1835 27.9775 26.3857C27.9775 26.588 27.8136 26.752 27.6113 26.752H22.2402C22.038 26.752 21.874 26.588 21.874 26.3857ZM27.6113 24.0664C27.8136 24.0664 27.9775 24.2304 27.9775 24.4326C27.9775 24.6349 27.8136 24.7988 27.6113 24.7988H22.2402C22.038 24.7988 21.874 24.6349 21.874 24.4326C21.874 24.2304 22.038 24.0664 22.2402 24.0664H27.6113Z" fill="white"/>
<path d="M26.6836 21.9917C26.6836 22.059 26.7384 22.1137 26.8057 22.1137H29.5965C29.5295 21.9901 29.4434 21.8765 29.3398 21.7785L26.9857 19.5514C26.8944 19.465 26.7926 19.3929 26.6836 19.3359V21.9917H26.6836Z" fill="white"/>
</g>
</g>
<defs>
<clipPath id="clip0_4897_25656">
<rect width="32" height="32" fill="white" transform="translate(9 9.43359)"/>
</clipPath>
<clipPath id="clip1_4897_25656">
<rect width="12.5" height="12.5" fill="white" transform="translate(18.75 19.1836)"/>
</clipPath>
</defs>
</svg>
