<svg width="50" height="51" viewBox="0 0 50 51" fill="none" xmlns="http://www.w3.org/2000/svg">
<rect y="0.433594" width="50" height="49.6582" rx="24.8291" fill="#044DA1"/>
<g clip-path="url(#clip0_4897_25632)">
<path d="M15.2626 29.769C15.0223 29.3523 14.4885 29.2074 14.0693 29.4492L9.65946 31.9948C9.24189 32.2365 9.09864 32.7706 9.33971 33.1887L13.8468 40.9951C14.0881 41.4125 14.6218 41.5559 15.0401 41.3148L19.45 38.7686C19.8682 38.5275 20.0109 37.9934 19.7698 37.5753L15.2626 29.769Z" fill="white"/>
<path d="M40.5327 28.2116C40.1083 27.6222 39.287 27.4891 38.6983 27.9134C36.912 29.2003 33.482 31.6716 33.2095 31.8684C33.0839 31.9753 32.952 32.0722 32.8145 32.1578C32.2752 32.4972 31.6495 32.6784 30.9964 32.6784H26.5058C25.9883 32.6784 25.5683 32.2591 25.5683 31.7409C25.5683 31.2222 25.9889 30.8034 26.5058 30.8034H31.3083C32.0139 30.8034 32.5789 30.2159 32.5495 29.5091C32.522 28.8384 31.9495 28.3184 31.2783 28.3184H27.6227C27.3752 28.0566 27.1039 27.8166 26.8133 27.6022C25.8139 26.8653 24.5789 26.4297 23.242 26.4297C20.8652 26.4297 18.5002 27.9272 17.5195 29.9259L21.3545 36.5678H28.5483C29.9608 36.5678 31.352 36.2066 32.5764 35.5022C33.0008 35.2584 33.4552 34.9653 33.9477 34.6116C36.0114 33.1291 40.2308 30.0491 40.2339 30.0472C40.8239 29.6234 40.9577 28.8009 40.5327 28.2116Z" fill="white"/>
<g clip-path="url(#clip1_4897_25632)">
<path d="M34.26 14.6987C33.6711 14.6987 33.1919 14.2196 33.1919 13.6306V10.1211H27.7292C26.8037 10.1211 26.0508 10.8741 26.0508 11.7996V24.0676C26.0508 24.9931 26.8037 25.7461 27.7292 25.7461H36.2742C37.1997 25.7461 37.9526 24.9931 37.9526 24.0676V14.6987H34.26ZM28.5532 21.1074H30.7725C31.0253 21.1074 31.2302 21.3124 31.2302 21.5652C31.2302 21.818 31.0253 22.0229 30.7725 22.0229H28.5532C28.3004 22.0229 28.0955 21.818 28.0955 21.5652C28.0955 21.3124 28.3004 21.1074 28.5532 21.1074ZM28.0955 19.1238C28.0955 18.871 28.3004 18.666 28.5532 18.666H35.2671C35.5199 18.666 35.7249 18.871 35.7249 19.1238C35.7249 19.3766 35.5199 19.5815 35.2671 19.5815H28.5532C28.3004 19.5815 28.0955 19.3766 28.0955 19.1238ZM35.2671 16.2246C35.5199 16.2246 35.7249 16.4296 35.7249 16.6824C35.7249 16.9352 35.5199 17.1401 35.2671 17.1401H28.5532C28.3004 17.1401 28.0955 16.9352 28.0955 16.6824C28.0955 16.4296 28.3004 16.2246 28.5532 16.2246H35.2671Z" fill="white"/>
<path d="M34.1055 13.6302C34.1055 13.7144 34.1739 13.7828 34.2581 13.7828H37.7466C37.6629 13.6282 37.5552 13.4862 37.4258 13.3637L34.4832 10.5799C34.369 10.4718 34.2418 10.3817 34.1055 10.3105V13.6302H34.1055Z" fill="white"/>
</g>
</g>
<defs>
<clipPath id="clip0_4897_25632">
<rect width="32" height="32" fill="white" transform="translate(9 9.43359)"/>
</clipPath>
<clipPath id="clip1_4897_25632">
<rect width="15.625" height="15.625" fill="white" transform="translate(24.1875 10.1211)"/>
</clipPath>
</defs>
</svg>
