<svg width="60" height="60" viewBox="0 0 60 60" fill="none" xmlns="http://www.w3.org/2000/svg">
<rect width="60" height="60" rx="30" fill="#044DA1"/>
<path d="M33 19.334H27C22.7574 19.334 20.636 19.334 19.318 20.6729C18 22.0119 18 24.1669 18 28.4768V31.5245C18 35.8344 18 37.9894 19.318 39.3284C20.636 40.6673 22.7574 40.6673 27 40.6673H33C37.2426 40.6673 39.364 40.6673 40.682 39.3284C42 37.9894 42 35.8344 42 31.5245V28.4768C42 24.1669 42 22.0119 40.682 20.6729C39.364 19.334 37.2426 19.334 33 19.334Z" stroke="white" stroke-width="2"/>
<path d="M23.333 24.666H27.333" stroke="white" stroke-width="2" stroke-linecap="round"/>
<path d="M34 33.334V32.0007C34 31.0578 34 30.5864 34.2929 30.2935C34.5858 30.0007 35.0572 30.0007 36 30.0007H40C40.9428 30.0007 41.4142 30.0007 41.7071 30.2935C42 30.5864 42 31.0578 42 32.0007V33.334C42 34.2768 42 34.7482 41.7071 35.0411C41.4142 35.334 40.9428 35.334 40 35.334H36C35.0572 35.334 34.5858 35.334 34.2929 35.0411C34 34.7482 34 34.2768 34 33.334Z" stroke="white" stroke-width="2"/>
</svg>
