<svg width="345" height="257" viewBox="0 0 345 257" fill="none" xmlns="http://www.w3.org/2000/svg">
<path d="M344.248 225.797H0.951172V225.969H344.248V225.797Z" fill="#EBEBEB"/>
<path d="M309.85 236.852H299.619V237.023H309.85V236.852Z" fill="#EBEBEB"/>
<path d="M228.364 238.718H222.396V238.89H228.364V238.718Z" fill="#EBEBEB"/>
<path d="M296.72 230.475H273.244V230.646H296.72V230.475Z" fill="#EBEBEB"/>
<path d="M76.2221 234.019H46.5664V234.19H76.2221V234.019Z" fill="#EBEBEB"/>
<path d="M93.0311 234.019H82.3359V234.19H93.0311V234.019Z" fill="#EBEBEB"/>
<path d="M175.864 231.715H111.547V231.887H175.864V231.715Z" fill="#EBEBEB"/>
<path d="M163.683 195.163H31.1009C30.0618 195.162 29.0655 194.748 28.3308 194.013C27.596 193.278 27.1827 192.282 27.1816 191.242V4.80133C27.1831 3.76203 27.5965 2.76573 28.3313 2.03096C29.066 1.29619 30.062 0.882936 31.1009 0.881836H163.683C164.721 0.883303 165.717 1.29672 166.451 2.03145C167.186 2.76618 167.599 3.76227 167.601 4.80133V191.239C167.6 192.279 167.187 193.276 166.453 194.012C165.718 194.748 164.722 195.162 163.683 195.163ZM31.1023 1.0537C30.1111 1.05662 29.1614 1.45182 28.4606 2.15296C27.7597 2.85411 27.3647 3.80422 27.3617 4.79579V191.239C27.3647 192.231 27.7597 193.181 28.4606 193.882C29.1614 194.583 30.1111 194.979 31.1023 194.981H163.684C164.675 194.979 165.625 194.583 166.326 193.882C167.027 193.181 167.422 192.231 167.425 191.239V4.80133C167.422 3.80977 167.027 2.85965 166.326 2.1585C165.625 1.45736 164.675 1.06217 163.684 1.05924L31.1023 1.0537Z" fill="#EBEBEB"/>
<path d="M312.191 195.163H179.609C178.57 195.162 177.575 194.748 176.84 194.013C176.106 193.278 175.693 192.281 175.691 191.242V4.80133C175.693 3.76215 176.106 2.76586 176.84 2.03105C177.575 1.29624 178.571 0.882937 179.609 0.881836H312.191C313.23 0.882936 314.226 1.29619 314.961 2.03096C315.696 2.76573 316.109 3.76203 316.11 4.80133V191.239C316.11 192.279 315.697 193.277 314.962 194.012C314.227 194.748 313.231 195.162 312.191 195.163ZM179.609 1.0537C178.618 1.05662 177.668 1.45182 176.968 2.15296C176.267 2.85411 175.872 3.80422 175.869 4.79579V191.239C175.872 192.231 176.267 193.181 176.968 193.882C177.668 194.583 178.618 194.979 179.609 194.981H312.191C313.184 194.98 314.135 194.586 314.837 193.885C315.54 193.183 315.936 192.232 315.939 191.239V4.80133C315.936 3.80857 315.54 2.85741 314.837 2.15607C314.135 1.45472 313.184 1.06034 312.191 1.05924L179.609 1.0537Z" fill="#EBEBEB"/>
<path d="M148.208 225.793H160.994V137.962H148.208V225.793Z" fill="#E6E6E6"/>
<path d="M152.71 225.793H148.209V209.106H157.429L152.71 225.793Z" fill="#F0F0F0"/>
<path d="M283.414 225.793H296.2V137.962H283.414V225.793Z" fill="#E6E6E6"/>
<path d="M148.208 221.24L287.342 221.24V137.965H148.208V221.24Z" fill="#F0F0F0"/>
<path d="M282.847 225.793H287.348V209.106H278.123L282.847 225.793Z" fill="#F0F0F0"/>
<path d="M241.473 144.858V213.746H282.717V144.858H241.473Z" fill="#E6E6E6"/>
<path d="M258.015 147.282H266.175C269.628 147.317 272.97 146.061 275.546 143.759H248.646C251.221 146.06 254.562 147.317 258.015 147.282Z" fill="#F0F0F0"/>
<path d="M197.153 144.858V213.746H238.398V144.858H197.153Z" fill="#E6E6E6"/>
<path d="M213.279 147.282H221.439C224.892 147.317 228.233 146.06 230.808 143.759H203.908C206.484 146.061 209.826 147.317 213.279 147.282Z" fill="#F0F0F0"/>
<path d="M152.834 144.858V213.746H194.078V144.858H152.834Z" fill="#E6E6E6"/>
<path d="M168.96 147.282H177.12C180.573 147.317 183.915 146.061 186.49 143.759H159.589C162.164 146.061 165.506 147.317 168.96 147.282Z" fill="#F0F0F0"/>
<path d="M48.9973 225.799H136.235L136.235 29.6134H48.9973L48.9973 225.799Z" fill="#F0F0F0"/>
<path d="M48.9967 225.799H134.394L134.394 29.6134H48.9967L48.9967 225.799Z" fill="#F5F5F5"/>
<path d="M129.19 221.346V34.0635L54.2006 34.0635L54.2006 221.346H129.19Z" fill="#F0F0F0"/>
<path d="M121.822 68.893C121.822 66.2072 121.293 63.5476 120.266 61.0662C119.238 58.5847 117.732 56.3301 115.834 54.4309C113.936 52.5317 111.682 51.0251 109.201 49.9973C106.721 48.9694 104.062 48.4404 101.378 48.4404H82.0155C76.5934 48.4404 71.3933 50.5953 67.5593 54.4309C63.7252 58.2665 61.5713 63.4687 61.5713 68.893H121.822Z" fill="#FAFAFA"/>
<path d="M121.822 209.703V164.961H61.5716V209.703H121.822Z" fill="#F5F5F5"/>
<path d="M121.822 81.5088H95.2461V159.19H121.822V81.5088Z" fill="#F5F5F5"/>
<path d="M88.1472 81.5088H61.5713V159.19H88.1472V81.5088Z" fill="#F5F5F5"/>
<path d="M71.2096 120H60.3245C59.877 119.999 59.4481 119.821 59.1316 119.504C58.8151 119.187 58.6368 118.758 58.6357 118.311C58.6372 117.863 58.8156 117.434 59.132 117.118C59.4484 116.801 59.8771 116.623 60.3245 116.621H71.2096C71.657 116.623 72.0857 116.801 72.4021 117.118C72.7185 117.434 72.8969 117.863 72.8983 118.311C72.8972 118.758 72.719 119.187 72.4025 119.504C72.086 119.821 71.6571 119.999 71.2096 120Z" fill="#E0E0E0"/>
<path d="M55.5527 221.346L55.5527 34.0635H54.2034L54.2034 221.346H55.5527Z" fill="#F0F0F0"/>
<path d="M191.417 116.436L283.932 116.436V29.6134L191.417 29.6134V116.436Z" fill="#E6E6E6"/>
<path d="M189.086 116.436L281.601 116.436V29.6134L189.086 29.6134V116.436Z" fill="#F5F5F5"/>
<path d="M183.683 121.459L283.932 121.459V116.433L183.683 116.433V121.459Z" fill="#E6E6E6"/>
<path d="M181.058 121.459L276.143 121.459V116.433L181.058 116.433V121.459Z" fill="#F5F5F5"/>
<path d="M277.413 111.92V34.1299L193.27 34.1299V111.92H277.413Z" fill="white"/>
<path d="M237.674 111.92V34.1299H233.009V111.92H237.674Z" fill="#F5F5F5"/>
<path d="M195.033 111.92V34.1299H193.27V111.92H195.033Z" fill="#E6E6E6"/>
<path d="M239.437 111.92V34.1299H237.673V111.92H239.437Z" fill="#E6E6E6"/>
<path d="M203.854 118.734C202.153 101.097 200.968 72.4788 201.888 62.9074C201.904 62.7429 201.955 62.5837 202.037 62.4403C202.119 62.2969 202.231 62.1727 202.365 62.0758C202.542 61.9455 202.753 61.8679 202.973 61.8518C203.193 61.8357 203.413 61.8816 203.608 61.9845C203.803 62.0874 203.965 62.243 204.076 62.4336C204.187 62.6242 204.242 62.8422 204.235 63.0626C204.073 67.8053 203.886 79.6595 204.896 100.109C205.399 110.289 206.123 117.261 205.626 118.731L203.854 118.734Z" fill="#E6E6E6"/>
<path d="M197.511 78.0835C192.662 72.7018 182.772 68.8752 172.689 68.8946C168.731 68.9029 184.732 75.155 191.392 82.0612C196.714 87.7963 201.095 94.3382 204.372 101.444C203.086 90.9037 202.356 83.4624 197.511 78.0835Z" fill="#E6E6E6"/>
<path d="M207.115 79.7213C211.132 74.1165 220.424 69.8061 230.472 69.3183C234.417 69.127 219.409 76.1608 213.808 83.3705C209.339 89.3965 205.943 96.148 203.768 103.328C203.474 92.777 203.092 85.3275 207.115 79.7213Z" fill="#E6E6E6"/>
<path d="M197.296 58.4273C193.194 53.8703 184.815 50.6299 176.277 50.6465C172.925 50.6465 186.475 55.9492 192.109 61.7911C196.616 66.6472 200.326 72.1867 203.101 78.2036C202.017 69.2863 201.395 62.9844 197.296 58.4273Z" fill="#E6E6E6"/>
<path d="M205.426 65.1679C208.832 60.421 216.697 56.7717 225.205 56.3587C228.545 56.1965 215.837 62.152 211.093 68.2572C207.309 73.3624 204.432 79.0825 202.591 85.1659C202.345 76.2237 202.019 69.912 205.426 65.1679Z" fill="#E6E6E6"/>
<path d="M204.539 137.962C201.983 137.962 199.523 136.984 197.664 135.228C195.805 133.472 194.688 131.072 194.541 128.518L193.657 113.186H215.422L214.538 128.518C214.391 131.072 213.274 133.472 211.415 135.228C209.556 136.984 207.096 137.962 204.539 137.962Z" fill="#E6E6E6"/>
<path d="M216.83 116.669H192.252L191.548 110.294H217.539L216.83 116.669Z" fill="#E6E6E6"/>
<path d="M172.599 256.818C246.121 256.818 305.723 253.335 305.723 249.04C305.723 244.744 246.121 241.262 172.599 241.262C99.077 241.262 39.4756 244.744 39.4756 249.04C39.4756 253.335 99.077 256.818 172.599 256.818Z" fill="#F5F5F5"/>
<path d="M175.285 241.606L169.553 242.252L167.438 229.246L173.171 228.601L175.285 241.606Z" fill="#B97964"/>
<path d="M200.952 242.859H195.227L193.802 229.597H199.526L200.952 242.859Z" fill="#B97964"/>
<path d="M194.756 242.191H201.734C201.848 242.192 201.958 242.23 202.047 242.301C202.135 242.372 202.197 242.471 202.222 242.582L203.353 247.673C203.379 247.797 203.377 247.925 203.347 248.049C203.317 248.172 203.26 248.287 203.179 248.385C203.099 248.483 202.997 248.561 202.882 248.614C202.767 248.667 202.641 248.694 202.514 248.692C200.269 248.653 198.635 248.521 195.804 248.521C194.063 248.521 188.816 248.701 186.413 248.701C184.058 248.701 183.697 246.324 184.68 246.11C189.091 245.139 192.415 243.813 193.824 242.543C194.08 242.314 194.413 242.189 194.756 242.191Z" fill="#263238"/>
<path d="M169.459 241.27L175.671 240.566C175.784 240.553 175.898 240.579 175.994 240.639C176.09 240.699 176.163 240.791 176.2 240.899L177.897 245.828C177.94 245.948 177.955 246.075 177.941 246.201C177.927 246.327 177.885 246.448 177.817 246.555C177.749 246.662 177.657 246.752 177.549 246.818C177.441 246.885 177.32 246.925 177.194 246.937C174.949 247.153 171.696 247.389 168.881 247.709C165.588 248.083 165.04 248.965 161.155 248.875C158.8 248.819 158.21 246.428 159.197 246.241C163.697 245.367 164.567 244.686 168.143 241.878C168.517 241.557 168.972 241.346 169.459 241.27Z" fill="#263238"/>
<path d="M174.516 74.581C172.593 76.1693 170.7 77.5497 168.743 78.9634C166.785 80.3771 164.786 81.6896 162.729 82.9633C160.671 84.237 158.56 85.458 156.346 86.5668C154.083 87.7398 151.727 88.7235 149.302 89.5078C148.66 89.7129 148.035 89.882 147.315 90.0622C146.611 90.215 145.898 90.3293 145.181 90.4045C143.892 90.5431 142.678 90.6055 141.469 90.6609C139.058 90.7718 136.693 90.769 134.331 90.7524C129.607 90.6956 124.923 90.4683 120.218 90.0525L120.147 85.756C124.768 85.1614 129.409 84.6472 134.001 84.1303C136.297 83.8808 138.587 83.6008 140.824 83.3084C141.933 83.1573 143.041 82.9799 144.063 82.79C144.503 82.7124 144.938 82.6102 145.366 82.4838C145.769 82.3452 146.263 82.1872 146.721 82.0028C148.684 81.2054 150.59 80.2727 152.424 79.2115C154.324 78.1207 156.224 76.9496 158.092 75.705C159.959 74.4604 161.819 73.1715 163.661 71.8562C165.504 70.5409 167.345 69.148 169.074 67.8369L174.516 74.581Z" fill="#B97964"/>
<path d="M180.111 69.6849C179.288 75.0985 167.895 83.3796 167.895 83.3796L159.721 73.2302C163.301 69.4073 167.098 65.7928 171.092 62.4045C174.77 59.397 181.006 63.7946 180.111 69.6849Z" fill="#D1D1D1"/>
<path d="M121.724 86.2091L118.474 83.8945L118.118 91.2069C118.609 91.2082 119.094 91.0891 119.528 90.8601C119.963 90.631 120.335 90.299 120.612 89.893L121.724 86.2091Z" fill="#B97964"/>
<path d="M115.537 81.7646L114.872 88.9314L118.119 91.2058L118.475 83.8935L115.537 81.7646Z" fill="#B97964"/>
<path opacity="0.2" d="M167.441 229.248L168.53 235.952L174.264 235.306L173.176 228.603L167.441 229.248Z" fill="black"/>
<path opacity="0.2" d="M199.529 229.595H193.802L194.539 236.43H200.266L199.529 229.595Z" fill="black"/>
<path d="M199.611 62.5776C200.037 62.6733 200.44 62.8533 200.796 63.107C201.152 63.3608 201.453 63.6832 201.683 64.0552C201.912 64.4273 202.065 64.8415 202.132 65.2735C202.199 65.7055 202.179 66.1465 202.073 66.5706C200.831 71.7284 199.894 76.9552 199.269 82.2236C198.727 86.6587 198.403 90.8956 198.201 94.736C197.725 103.738 197.923 110.6 197.655 112.925C193.178 112.615 176.31 111.441 167.112 110.798C164.008 86.4827 167.646 70.9654 169.689 64.6607C170.002 63.6783 170.587 62.805 171.377 62.1425C172.167 61.48 173.129 61.0556 174.15 60.9186C175.322 60.7648 176.724 60.6165 178.204 60.5292C178.722 60.4959 179.247 60.4779 179.782 60.4668C184.124 60.5182 188.46 60.8199 192.767 61.3705C193.584 61.4675 194.41 61.5881 195.214 61.7169C196.819 61.9858 198.346 62.2949 199.611 62.5776Z" fill="#ABAEB6"/>
<path d="M192.502 46.6602C191.393 50.782 190.039 58.3826 192.768 61.3763C185.688 66.1398 181.169 72.8465 179.866 71.3898C179.183 70.6276 178.886 61.8059 179.784 60.4699C184.521 59.6826 184.641 56.2163 184.056 52.9122L192.502 46.6602Z" fill="#B97964"/>
<path d="M192.219 59.6689C192.219 59.6689 180.683 64.7762 179.153 76.1965C182.331 72.5154 189.351 68.51 189.351 68.51L186.255 67.6202C188.224 66.8726 190.263 66.3238 192.341 65.982C191.997 64.4048 193.829 61.2586 193.829 61.2586L192.219 59.6689Z" fill="#D1D1D1"/>
<path d="M181.81 59.4834C181.81 59.4834 183.348 66.0057 179.154 76.1953C178.328 72.6388 177.194 69.1609 175.766 65.8006L178.59 66.5698C178.59 66.5698 178.452 65.2545 176.165 63.5055C177.118 62.1205 178.306 60.9135 179.677 59.9394L181.81 59.4834Z" fill="#D1D1D1"/>
<path opacity="0.2" d="M189.059 49.2139L184.061 52.9116C184.209 53.6811 184.289 54.4621 184.3 55.2456C186.101 55.107 188.678 53.3288 188.998 51.4785C189.155 50.7335 189.176 49.9662 189.059 49.2139Z" fill="black"/>
<path d="M177.844 34.7271C175.052 34.8477 173.512 39.6625 176.345 43.6277C179.178 47.593 181.605 34.5649 177.844 34.7271Z" fill="#263238"/>
<path d="M191.611 38.9641C191.942 44.6382 192.424 47.9409 189.927 51.1744C186.173 56.0377 178.913 54.2942 176.895 48.8335C175.079 43.9189 174.842 35.4659 180.081 32.5623C181.234 31.9159 182.533 31.5751 183.854 31.5723C185.175 31.5695 186.475 31.9047 187.631 32.5463C188.786 33.1878 189.758 34.1142 190.455 35.2375C191.151 36.3608 191.549 37.6436 191.611 38.9641Z" fill="#B97964"/>
<path d="M192.442 43.3227C190.925 42.4333 189.601 41.2509 188.545 39.8444C187.49 38.4379 186.725 36.8354 186.295 35.1303C184.632 35.5239 176.346 39.3381 173.799 35.1303C171.251 30.9225 174.457 28.4541 179.224 31.0445C177.115 27.3218 179.033 25.5006 185.658 25.3399C192.282 25.1791 191.392 29.021 191.392 29.021C191.392 29.021 196.407 26.8367 198.18 30.6841C200.235 35.1053 196.444 42.6547 192.442 43.3227Z" fill="#263238"/>
<path d="M190.259 28.0057C190.32 28.0057 192.768 28.5947 195.588 25.7549C195.083 28.1775 190.702 29.7908 190.702 29.7908L190.259 28.0057Z" fill="#263238"/>
<path d="M193.551 36.307C190.909 35.3937 187.71 39.309 188.892 44.0365C190.073 48.764 197.11 37.5377 193.551 36.307Z" fill="#263238"/>
<path d="M195.045 43.6797C194.803 45.0888 194.013 46.3446 192.848 47.1723C191.295 48.2561 189.896 47.0171 189.8 45.2236C189.72 43.6104 190.429 41.1018 192.24 40.7317C192.637 40.6574 193.047 40.6837 193.431 40.808C193.816 40.9324 194.164 41.151 194.442 41.4439C194.721 41.7368 194.922 42.0948 195.027 42.4852C195.133 42.8757 195.139 43.2863 195.045 43.6797Z" fill="#B97964"/>
<path d="M175.719 175.322C177.095 158.571 187.186 112.201 187.186 112.201L167.106 110.8C167.106 110.8 159.363 156.829 158.771 174.298C158.153 192.461 165.455 232.828 165.455 232.828L175.085 231.732C175.085 231.732 174.338 192.142 175.719 175.322Z" fill="#D1D1D1"/>
<path d="M175.719 175.322C177.095 158.571 187.186 112.201 187.186 112.201L167.106 110.8C167.106 110.8 159.363 156.829 158.771 174.298C158.153 192.461 165.455 232.828 165.455 232.828L175.085 231.732C175.085 231.732 174.338 192.142 175.719 175.322Z" fill="#5E5E5E"/>
<path opacity="0.2" d="M179.624 127.9C175.576 133.078 175.504 151.264 177.069 164.699C178.561 155.007 180.912 142.698 182.972 132.438L179.624 127.9Z" fill="black"/>
<path d="M177.942 111.554C177.942 111.554 180.109 160.582 182.527 177.186C185.173 195.368 191.893 235.108 191.893 235.108H202.378C202.378 235.108 200.653 197.679 199.269 179.815C197.694 159.468 197.651 112.929 197.651 112.929L177.942 111.554Z" fill="#D1D1D1"/>
<path d="M177.942 111.554C177.942 111.554 180.109 160.582 182.527 177.186C185.173 195.368 191.893 235.108 191.893 235.108H202.378C202.378 235.108 200.653 197.679 199.269 179.815C197.694 159.468 197.651 112.929 197.651 112.929L177.942 111.554Z" fill="#5E5E5E"/>
<path d="M190.633 235.332H202.979V231.642L189.179 231.402L190.633 235.332Z" fill="#5E5E5E"/>
<path d="M165.036 233.913L176.513 232.612L176.097 228.901L163.245 230.161L165.036 233.913Z" fill="#5E5E5E"/>
<path d="M183.259 41.5642C183.314 42.0228 183.12 42.4232 182.816 42.4592C182.511 42.4952 182.228 42.153 182.174 41.6944C182.12 41.2359 182.313 40.8355 182.617 40.7995C182.922 40.7635 183.205 41.1057 183.259 41.5642Z" fill="#263238"/>
<path d="M178.079 42.1872C178.134 42.6458 177.94 43.0462 177.636 43.0822C177.331 43.1182 177.048 42.776 176.993 42.3175C176.937 41.8589 177.131 41.4585 177.436 41.4225C177.741 41.3865 178.024 41.7342 178.079 42.1872Z" fill="#263238"/>
<path d="M179.753 42.2148C179.375 43.6822 178.797 45.0906 178.035 46.4004C178.375 46.5867 178.751 46.6965 179.138 46.7222C179.525 46.7478 179.912 46.6886 180.274 46.5487L179.753 42.2148Z" fill="#B97964"/>
<path d="M184.667 39.6921C184.619 39.7066 184.568 39.7077 184.519 39.6952C184.47 39.6828 184.425 39.6573 184.39 39.6214C184.161 39.3695 183.875 39.1753 183.557 39.0549C183.238 38.9345 182.896 38.8913 182.557 38.9287C182.487 38.9406 182.414 38.9248 182.355 38.8845C182.296 38.8442 182.255 38.7826 182.24 38.7126C182.233 38.6775 182.233 38.6414 182.24 38.6063C182.247 38.5712 182.261 38.5378 182.281 38.5082C182.301 38.4786 182.327 38.4534 182.357 38.434C182.387 38.4146 182.421 38.4015 182.456 38.3953C182.883 38.34 183.318 38.3881 183.722 38.5357C184.127 38.6832 184.491 38.9259 184.782 39.2432C184.832 39.2948 184.859 39.3636 184.859 39.4351C184.859 39.5066 184.832 39.5754 184.782 39.6269C184.75 39.6579 184.71 39.6803 184.667 39.6921Z" fill="#263238"/>
<path d="M182.677 48.381C183.331 48.2435 183.942 47.9505 184.459 47.5269C184.975 47.1033 185.382 46.5615 185.646 45.9473C185.659 45.9105 185.656 45.8702 185.64 45.8351C185.623 45.8 185.593 45.7731 185.556 45.7602C185.519 45.7473 185.479 45.7496 185.444 45.7665C185.409 45.7834 185.382 45.8135 185.369 45.8503C185.117 46.4153 184.735 46.9131 184.255 47.3035C183.775 47.694 183.211 47.9663 182.606 48.0983C182.588 48.1026 182.57 48.1105 182.554 48.1216C182.539 48.1327 182.526 48.1467 182.515 48.1629C182.505 48.1792 182.498 48.1972 182.495 48.2161C182.492 48.235 182.493 48.2543 182.497 48.2729C182.501 48.2916 182.509 48.3092 182.52 48.3248C182.531 48.3404 182.545 48.3537 182.561 48.3639C182.578 48.374 182.596 48.3809 182.615 48.3841C182.633 48.3873 182.653 48.3867 182.671 48.3824L182.677 48.381Z" fill="#263238"/>
<path d="M175.642 40.6695C175.587 40.6877 175.528 40.6877 175.474 40.6695C175.407 40.6447 175.352 40.595 175.321 40.5307C175.29 40.4664 175.284 40.3926 175.306 40.3245C175.436 39.9136 175.663 39.5401 175.968 39.2357C176.274 38.9313 176.648 38.7051 177.059 38.5762C177.128 38.5604 177.201 38.5721 177.262 38.6087C177.324 38.6454 177.368 38.7042 177.387 38.7729C177.403 38.8422 177.392 38.915 177.355 38.9761C177.319 39.0372 177.26 39.082 177.192 39.1012C176.869 39.2091 176.575 39.3921 176.337 39.6354C176.098 39.8787 175.921 40.1752 175.819 40.5005C175.804 40.5404 175.781 40.5764 175.75 40.6057C175.719 40.635 175.682 40.6568 175.642 40.6695Z" fill="#263238"/>
<path d="M192.87 243.191C192.478 243.222 192.087 243.119 191.762 242.899C191.66 242.812 191.582 242.7 191.533 242.576C191.485 242.451 191.468 242.316 191.484 242.183C191.484 242.104 191.506 242.026 191.547 241.958C191.588 241.891 191.647 241.835 191.717 241.799C192.353 241.472 194.197 242.608 194.405 242.738C194.428 242.753 194.446 242.774 194.457 242.798C194.468 242.823 194.471 242.85 194.467 242.877C194.463 242.903 194.451 242.928 194.432 242.948C194.414 242.967 194.391 242.981 194.365 242.988C193.876 243.111 193.374 243.179 192.87 243.191ZM192.019 242.007C191.959 242.004 191.899 242.015 191.843 242.04C191.815 242.056 191.792 242.079 191.777 242.107C191.762 242.135 191.755 242.167 191.757 242.199C191.745 242.29 191.755 242.383 191.788 242.469C191.82 242.554 191.873 242.631 191.942 242.691C192.581 242.983 193.308 243.02 193.974 242.794C193.377 242.407 192.711 242.139 192.012 242.007H192.019Z" fill="#D1D1D1"/>
<path d="M194.329 242.99C194.307 242.99 194.284 242.985 194.264 242.974C193.673 242.652 192.527 241.397 192.647 240.756C192.667 240.656 192.721 240.566 192.799 240.501C192.878 240.436 192.977 240.401 193.078 240.4C193.181 240.387 193.286 240.397 193.386 240.427C193.485 240.457 193.577 240.507 193.656 240.575C194.321 241.119 194.458 242.771 194.462 242.841C194.464 242.865 194.459 242.889 194.449 242.911C194.438 242.933 194.422 242.952 194.401 242.965C194.38 242.98 194.355 242.989 194.329 242.99ZM193.174 240.669H193.112C192.936 240.691 192.92 240.771 192.914 240.807C192.841 241.184 193.572 242.132 194.16 242.58C194.121 241.925 193.886 241.297 193.484 240.778C193.397 240.706 193.287 240.668 193.174 240.669Z" fill="#D1D1D1"/>
<path d="M168.994 242.116L168.972 242.125C168.075 242.412 166.471 242.818 165.785 242.339C165.684 242.269 165.601 242.175 165.544 242.066C165.487 241.957 165.458 241.836 165.458 241.712C165.453 241.638 165.467 241.564 165.498 241.497C165.53 241.429 165.579 241.372 165.64 241.329C166.284 240.876 168.704 241.767 168.978 241.87C169.002 241.881 169.022 241.897 169.037 241.918C169.052 241.939 169.06 241.964 169.062 241.989C169.063 242.015 169.058 242.04 169.046 242.063C169.034 242.085 169.016 242.104 168.994 242.117V242.116ZM165.831 241.528L165.799 241.548C165.774 241.564 165.755 241.587 165.742 241.615C165.73 241.642 165.726 241.672 165.73 241.701C165.728 241.783 165.746 241.863 165.783 241.936C165.82 242.008 165.874 242.07 165.94 242.117C166.783 242.38 167.691 242.331 168.501 241.979C167.662 241.607 166.743 241.452 165.829 241.528H165.831Z" fill="#D1D1D1"/>
<path d="M168.994 242.115C168.961 242.131 168.923 242.134 168.889 242.123C168.168 241.893 166.672 240.816 166.7 240.162C166.707 240.008 166.794 239.807 167.16 239.728C167.292 239.698 167.428 239.696 167.561 239.722C167.694 239.747 167.821 239.799 167.933 239.875C168.52 240.436 168.915 241.169 169.063 241.968C169.068 241.991 169.066 242.015 169.059 242.038C169.052 242.06 169.039 242.08 169.022 242.097C169.013 242.104 169.004 242.11 168.994 242.115ZM167.067 240.049C166.974 240.099 166.971 240.158 166.97 240.18C166.95 240.573 167.984 241.435 168.733 241.776C168.595 241.138 168.264 240.557 167.784 240.113C167.702 240.057 167.61 240.018 167.512 239.999C167.414 239.98 167.313 239.982 167.216 240.004C167.165 240.012 167.114 240.027 167.067 240.049Z" fill="#D1D1D1"/>
<path d="M204.44 70.8397C204.294 73.0767 204.031 75.1598 203.758 77.3108C203.485 79.4618 203.118 81.5698 202.715 83.6973C201.917 88.0425 200.74 92.3092 199.195 96.4481L198.515 98.0517L198.343 98.4522L198.3 98.552L198.229 98.7045L198.03 99.0995C197.766 99.5794 197.45 100.028 197.086 100.438C196.489 101.111 195.791 101.686 195.017 102.143C194.389 102.516 193.732 102.836 193.051 103.098C190.782 103.917 188.409 104.412 186.002 104.57C181.631 104.896 177.238 104.732 172.904 104.081L173.061 99.7841L176.089 99.4418C177.105 99.3212 178.115 99.1646 179.119 99.026C181.124 98.7308 183.108 98.4009 184.999 97.9616C186.748 97.6053 188.448 97.0414 190.064 96.2818C190.499 96.0987 190.881 95.8072 191.172 95.435C191.19 95.3366 190.971 95.7676 191.229 95.0788L191.682 93.7538C192.791 89.9554 193.64 86.0855 194.223 82.1713C194.548 80.1783 194.827 78.1673 195.095 76.1507C195.364 74.1342 195.586 72.076 195.798 70.1426L204.44 70.8397Z" fill="#B97964"/>
<path d="M204.938 66.6876C207.74 71.3902 205.353 86.17 205.353 86.17L190.668 83.4549C190.668 83.4549 189.873 75.0006 192.669 68.4949C195.704 61.414 201.542 60.9899 204.938 66.6876Z" fill="#D1D1D1"/>
<path d="M168.948 113.078L161.155 76.8153C160.781 75.2668 159.914 73.8819 158.684 72.8694C157.455 71.857 155.93 71.2718 154.339 71.2021H124.479C126.071 71.2715 127.596 71.8565 128.826 72.869C130.056 73.8815 130.923 75.2666 131.297 76.8153L139.09 113.078C139.464 114.626 140.331 116.011 141.56 117.023C142.79 118.036 144.315 118.621 145.906 118.691H175.764C174.173 118.621 172.648 118.036 171.418 117.023C170.189 116.011 169.322 114.626 168.948 113.078Z" fill="#263238"/>
<path opacity="0.7" d="M168.948 113.078L161.155 76.8153C160.781 75.2668 159.914 73.8819 158.684 72.8694C157.455 71.857 155.93 71.2718 154.339 71.2021H124.479C126.071 71.2715 127.596 71.8565 128.826 72.869C130.056 73.8815 130.923 75.2666 131.297 76.8153L139.09 113.078C139.464 114.626 140.331 116.011 141.56 117.023C142.79 118.036 144.315 118.621 145.906 118.691H175.764C174.173 118.621 172.648 118.036 171.418 117.023C170.189 116.011 169.322 114.626 168.948 113.078Z" fill="#D1D1D1"/>
<path d="M124.48 71.2021H154.338C152.809 71.2308 151.344 71.817 150.216 72.8507C149.089 73.8843 148.378 75.2942 148.217 76.8153L140.472 161.082C140.31 162.603 139.599 164.012 138.472 165.046C137.345 166.08 135.88 166.666 134.351 166.695H115.715C114.997 166.708 114.284 166.568 113.625 166.283C112.966 165.999 112.375 165.577 111.892 165.045C111.409 164.514 111.045 163.885 110.825 163.202C110.604 162.518 110.532 161.795 110.614 161.082L118.361 76.8153C118.522 75.2944 119.233 73.8847 120.359 72.8511C121.486 71.8175 122.951 71.2311 124.48 71.2021Z" fill="#D1D1D1"/>
<path d="M129.249 161.081C129.168 161.795 129.24 162.518 129.46 163.201C129.68 163.885 130.044 164.513 130.527 165.045C131.01 165.576 131.601 165.998 132.26 166.283C132.92 166.567 133.632 166.708 134.35 166.694H104.492C103.774 166.708 103.062 166.568 102.402 166.283C101.743 165.999 101.152 165.577 100.669 165.045C100.186 164.514 99.8219 163.885 99.6016 163.201C99.3812 162.518 99.3094 161.795 99.3911 161.081H129.249Z" fill="#263238"/>
<path opacity="0.7" d="M129.249 161.081C129.168 161.795 129.24 162.518 129.46 163.201C129.68 163.885 130.044 164.513 130.527 165.045C131.01 165.576 131.601 165.998 132.26 166.283C132.92 166.567 133.632 166.708 134.35 166.694H104.492C103.774 166.708 103.062 166.568 102.402 166.283C101.743 165.999 101.152 165.577 100.669 165.045C100.186 164.514 99.8219 163.885 99.6016 163.201C99.3812 162.518 99.3094 161.795 99.3911 161.081H129.249Z" fill="#D1D1D1"/>
<g opacity="0.5">
<path opacity="0.5" d="M143.043 80.6442H122.839C122.683 80.6463 122.528 80.6152 122.385 80.553C122.242 80.4907 122.114 80.3987 122.009 80.2831C121.904 80.1675 121.825 80.0309 121.777 79.8824C121.729 79.7339 121.713 79.5769 121.73 79.4217C121.766 79.0908 121.921 78.7843 122.167 78.5594C122.412 78.3345 122.731 78.2065 123.063 78.1993H143.265C143.421 78.1972 143.576 78.2283 143.719 78.2905C143.862 78.3528 143.99 78.4447 144.095 78.5603C144.2 78.676 144.279 78.8126 144.327 78.9611C144.375 79.1096 144.391 79.2666 144.373 79.4217C144.337 79.7522 144.183 80.0583 143.938 80.2832C143.693 80.5081 143.375 80.6364 143.043 80.6442Z" fill="white"/>
<path opacity="0.5" d="M142.441 87.2584H122.236C122.08 87.2605 121.926 87.2295 121.782 87.1672C121.639 87.105 121.511 87.013 121.406 86.8974C121.302 86.7818 121.222 86.6452 121.174 86.4966C121.126 86.3481 121.111 86.1911 121.128 86.036C121.164 85.7051 121.319 85.3986 121.564 85.1736C121.809 84.9487 122.128 84.8207 122.461 84.8136H142.665C142.821 84.8114 142.976 84.8425 143.119 84.9047C143.262 84.967 143.39 85.059 143.495 85.1746C143.6 85.2902 143.679 85.4268 143.727 85.5753C143.775 85.7238 143.791 85.8809 143.773 86.036C143.738 86.367 143.583 86.6737 143.338 86.8987C143.092 87.1237 142.773 87.2516 142.441 87.2584Z" fill="white"/>
<path opacity="0.5" d="M136.887 93.8707H121.636C121.48 93.8729 121.325 93.8418 121.182 93.7795C121.039 93.7173 120.911 93.6253 120.806 93.5097C120.701 93.3941 120.622 93.2575 120.574 93.109C120.526 92.9604 120.51 92.8034 120.527 92.6483C120.563 92.3174 120.718 92.0109 120.964 91.7859C121.209 91.561 121.527 91.433 121.86 91.4259H137.112C137.268 91.4237 137.422 91.4548 137.566 91.5171C137.709 91.5793 137.837 91.6713 137.942 91.7869C138.047 91.9025 138.126 92.0391 138.174 92.1876C138.222 92.3362 138.237 92.4932 138.22 92.6483C138.184 92.9792 138.029 93.2857 137.784 93.5107C137.539 93.7356 137.22 93.8636 136.887 93.8707Z" fill="white"/>
<path opacity="0.5" d="M126.207 100.48H121.035C120.879 100.482 120.724 100.451 120.581 100.389C120.438 100.327 120.31 100.235 120.205 100.119C120.1 100.003 120.021 99.8669 119.973 99.7184C119.925 99.5698 119.909 99.4128 119.927 99.2577C119.962 98.9269 120.117 98.6204 120.362 98.3954C120.607 98.1705 120.926 98.0424 121.258 98.0353H126.431C126.587 98.0331 126.742 98.0642 126.885 98.1265C127.028 98.1887 127.156 98.2807 127.261 98.3963C127.366 98.5119 127.445 98.6485 127.493 98.797C127.541 98.9455 127.557 99.1026 127.539 99.2577C127.504 99.5886 127.348 99.8951 127.103 100.12C126.858 100.345 126.539 100.473 126.207 100.48Z" fill="white"/>
<path opacity="0.5" d="M140.638 107.09H120.428C120.272 107.093 120.117 107.062 119.974 106.999C119.831 106.937 119.703 106.845 119.598 106.729C119.493 106.614 119.414 106.477 119.366 106.329C119.318 106.18 119.302 106.023 119.319 105.868C119.355 105.537 119.51 105.231 119.755 105.006C120.001 104.781 120.319 104.653 120.652 104.646H140.857C141.013 104.643 141.167 104.675 141.31 104.737C141.453 104.799 141.582 104.891 141.686 105.007C141.791 105.122 141.87 105.259 141.918 105.407C141.966 105.556 141.982 105.713 141.965 105.868C141.929 106.198 141.775 106.504 141.531 106.729C141.287 106.953 140.969 107.082 140.638 107.09Z" fill="white"/>
<path opacity="0.5" d="M132.081 113.704H119.834C119.678 113.706 119.523 113.675 119.38 113.613C119.237 113.55 119.109 113.458 119.004 113.343C118.899 113.227 118.82 113.091 118.772 112.942C118.724 112.794 118.708 112.637 118.726 112.482C118.761 112.151 118.916 111.845 119.161 111.62C119.406 111.395 119.724 111.267 120.057 111.26H132.304C132.46 111.258 132.614 111.289 132.757 111.351C132.901 111.413 133.029 111.505 133.134 111.621C133.238 111.736 133.317 111.873 133.365 112.021C133.413 112.17 133.429 112.327 133.412 112.482C133.376 112.812 133.221 113.119 132.976 113.343C132.731 113.568 132.413 113.696 132.081 113.704Z" fill="white"/>
<path opacity="0.5" d="M139.436 120.314H119.231C119.075 120.316 118.921 120.285 118.778 120.223C118.634 120.161 118.506 120.069 118.401 119.953C118.297 119.838 118.218 119.701 118.17 119.553C118.122 119.404 118.106 119.247 118.123 119.092C118.159 118.761 118.314 118.455 118.559 118.23C118.804 118.005 119.123 117.877 119.456 117.87H139.662C139.818 117.868 139.972 117.899 140.115 117.961C140.259 118.024 140.387 118.116 140.492 118.231C140.596 118.347 140.675 118.483 140.723 118.632C140.771 118.78 140.787 118.937 140.77 119.092C140.734 119.423 140.579 119.73 140.333 119.955C140.088 120.179 139.769 120.307 139.436 120.314Z" fill="white"/>
<path opacity="0.5" d="M133.882 126.926H118.631C118.475 126.929 118.32 126.897 118.177 126.835C118.034 126.773 117.906 126.681 117.801 126.565C117.696 126.45 117.617 126.313 117.569 126.165C117.521 126.016 117.505 125.86 117.522 125.704C117.558 125.374 117.713 125.067 117.959 124.842C118.204 124.618 118.523 124.49 118.855 124.483H134.107C134.263 124.48 134.418 124.511 134.561 124.574C134.704 124.636 134.832 124.728 134.937 124.843C135.042 124.959 135.121 125.096 135.169 125.244C135.217 125.392 135.233 125.549 135.215 125.704C135.179 126.035 135.024 126.342 134.779 126.566C134.534 126.791 134.215 126.919 133.882 126.926Z" fill="white"/>
<path opacity="0.5" d="M123.202 133.538H118.026C117.87 133.54 117.716 133.509 117.572 133.447C117.429 133.384 117.301 133.292 117.196 133.177C117.092 133.061 117.013 132.925 116.965 132.776C116.917 132.628 116.901 132.471 116.918 132.316C116.954 131.985 117.109 131.679 117.354 131.454C117.599 131.229 117.918 131.101 118.251 131.094H123.429C123.585 131.092 123.74 131.123 123.883 131.185C124.026 131.247 124.154 131.339 124.259 131.455C124.364 131.57 124.443 131.707 124.491 131.855C124.539 132.004 124.555 132.161 124.538 132.316C124.502 132.647 124.346 132.954 124.1 133.179C123.855 133.404 123.535 133.531 123.202 133.538Z" fill="white"/>
<path opacity="0.5" d="M137.633 140.152H117.429C117.273 140.154 117.118 140.123 116.975 140.061C116.832 139.999 116.704 139.907 116.599 139.791C116.494 139.675 116.415 139.539 116.367 139.391C116.319 139.242 116.303 139.085 116.32 138.93C116.356 138.599 116.511 138.293 116.756 138.068C117.002 137.843 117.32 137.715 117.653 137.708H137.858C138.014 137.706 138.168 137.737 138.311 137.799C138.454 137.861 138.583 137.953 138.687 138.069C138.792 138.185 138.871 138.321 138.919 138.47C138.967 138.618 138.983 138.775 138.966 138.93C138.93 139.261 138.775 139.567 138.53 139.792C138.284 140.017 137.966 140.145 137.633 140.152Z" fill="white"/>
<path opacity="0.5" d="M129.074 146.765H116.827C116.671 146.767 116.516 146.736 116.373 146.674C116.23 146.612 116.102 146.52 115.997 146.404C115.892 146.289 115.813 146.152 115.765 146.004C115.717 145.855 115.701 145.698 115.719 145.543C115.754 145.212 115.909 144.905 116.155 144.68C116.4 144.455 116.719 144.327 117.051 144.32H129.297C129.453 144.318 129.608 144.349 129.751 144.412C129.894 144.474 130.022 144.566 130.127 144.681C130.232 144.797 130.311 144.934 130.359 145.082C130.407 145.231 130.423 145.388 130.405 145.543C130.369 145.874 130.214 146.18 129.97 146.405C129.725 146.63 129.406 146.758 129.074 146.765Z" fill="white"/>
<path opacity="0.5" d="M136.43 153.378H116.225C116.069 153.38 115.915 153.349 115.772 153.286C115.629 153.224 115.5 153.132 115.396 153.017C115.291 152.901 115.212 152.764 115.164 152.616C115.116 152.467 115.1 152.31 115.117 152.155C115.153 151.824 115.308 151.518 115.553 151.293C115.799 151.068 116.117 150.94 116.45 150.933H136.652C136.808 150.931 136.962 150.962 137.105 151.024C137.248 151.086 137.377 151.178 137.482 151.294C137.586 151.409 137.665 151.546 137.713 151.694C137.761 151.843 137.777 152 137.76 152.155C137.724 152.486 137.569 152.792 137.325 153.017C137.08 153.241 136.762 153.37 136.43 153.378Z" fill="white"/>
</g>
<path d="M174.821 100.253L170.435 96.4404L168.379 103.459C168.379 103.459 172.834 105.876 174.378 103.657L174.821 100.253Z" fill="#B97964"/>
<path d="M165.656 96.167L164.229 102.049L168.375 103.463L170.43 96.4428L165.656 96.167Z" fill="#B97964"/>
</svg>
