<svg width="50" height="51" viewBox="0 0 50 51" fill="none" xmlns="http://www.w3.org/2000/svg">
<rect y="0.433594" width="50" height="50" rx="25" fill="#00AAFF"/>
<path d="M25.7742 22.9187C24.3157 23.1248 23.0419 24.494 23.0296 24.5063C23.0112 24.5253 22.9906 24.5419 22.968 24.5556C20.9865 25.8417 19.8696 24.8633 19.8234 24.8048C18.5557 23.6633 19.7188 21.7494 19.768 21.6694C20.2873 20.8063 20.9161 20.0141 21.6388 19.3125H16.2573L13.9219 27.0171C13.947 27.031 13.9698 27.0487 13.9896 27.0694C17.6142 31.1679 22.4265 34.8048 24.325 36.1771C24.5225 36.3232 24.7682 36.3888 25.0123 36.3606C25.2564 36.3325 25.4807 36.2126 25.6398 36.0254C25.7989 35.8381 25.881 35.5974 25.8694 35.352C25.8578 35.1065 25.7533 34.8747 25.5773 34.7033L22.965 32.091C22.9076 32.0333 22.8755 31.9553 22.8755 31.874C22.8755 31.7927 22.9076 31.7148 22.965 31.6571C22.9936 31.6283 23.0276 31.6054 23.0651 31.5898C23.1026 31.5741 23.1428 31.5661 23.1834 31.5661C23.224 31.5661 23.2642 31.5741 23.3017 31.5898C23.3392 31.6054 23.3733 31.6283 23.4019 31.6571L24.7926 33.0479L26.0234 34.2786L26.6388 34.9094C26.8596 35.1244 27.1558 35.2444 27.4639 35.2437C27.7721 35.2429 28.0677 35.1215 28.2874 34.9054C28.5071 34.6893 28.6334 34.3958 28.6393 34.0877C28.6452 33.7796 28.5301 33.4814 28.3188 33.2571L25.9219 30.7556L25.4665 30.2848C25.4377 30.2562 25.4148 30.2222 25.3991 30.1847C25.3835 30.1472 25.3755 30.107 25.3755 30.0663C25.3755 30.0257 25.3835 29.9855 25.3991 29.948C25.4148 29.9105 25.4377 29.8765 25.4665 29.8479C25.4951 29.819 25.5291 29.7962 25.5666 29.7805C25.6041 29.7649 25.6443 29.7569 25.685 29.7569C25.7256 29.7569 25.7658 29.7649 25.8033 29.7805C25.8408 29.7962 25.8748 29.819 25.9034 29.8479L29.4019 33.4786C29.5713 33.6463 29.7857 33.7612 30.0192 33.8093C30.2526 33.8574 30.495 33.8367 30.7169 33.7497C30.9388 33.6627 31.1307 33.5132 31.2692 33.3192C31.4077 33.1252 31.4869 32.8952 31.4973 32.6571C31.5024 32.4894 31.4721 32.3224 31.4085 32.1671C31.3449 32.0118 31.2493 31.8716 31.128 31.7556L29.0296 29.7248L27.568 28.3063C27.5355 28.2792 27.5089 28.2456 27.49 28.2077C27.471 28.1698 27.4601 28.1284 27.4579 28.0861C27.4557 28.0438 27.4622 28.0015 27.4771 27.9618C27.492 27.9222 27.515 27.886 27.5445 27.8556C27.574 27.8252 27.6095 27.8013 27.6488 27.7852C27.688 27.7692 27.7301 27.7615 27.7725 27.7625C27.8148 27.7635 27.8565 27.7732 27.8949 27.7911C27.9334 27.809 27.9677 27.8346 27.9957 27.8663L32.1496 31.8879C32.2585 31.9998 32.389 32.0885 32.5331 32.1486C32.6772 32.2087 32.832 32.239 32.9882 32.2377C33.1444 32.2364 33.2986 32.2035 33.4417 32.141C33.5848 32.0785 33.7138 31.9876 33.8209 31.8739C33.9279 31.7602 34.0108 31.626 34.0646 31.4794C34.1184 31.3328 34.142 31.1768 34.1339 31.0208C34.1258 30.8649 34.0862 30.7122 34.0175 30.5719C33.9488 30.4317 33.8524 30.3068 33.7342 30.2048L25.7742 22.9187Z" fill="white"/>
<path d="M15.3197 17.5107C13.7223 16.7925 11.9806 16.4534 10.2305 16.5199V28.5876H12.1105C12.3111 28.5881 12.5065 28.5231 12.6669 28.4027C12.8274 28.2822 12.9442 28.1127 12.9997 27.9199L15.8243 18.6184C15.8889 18.4039 15.8733 18.1733 15.7805 17.9696C15.6876 17.7658 15.5239 17.6027 15.3197 17.5107Z" fill="white"/>
<path d="M26.7736 18.1081C26.1101 17.835 25.3686 17.8185 24.6936 18.062C23.5152 18.4927 21.7952 19.5266 20.2844 21.9943C20.2844 22.0127 19.3398 23.5327 20.229 24.3512C20.2598 24.3789 21.0536 25.0435 22.5921 24.062C22.8136 23.8312 24.2013 22.4404 25.8413 22.2897C25.8837 22.2861 25.9264 22.2914 25.9666 22.3052C26.0069 22.3189 26.0438 22.3409 26.0752 22.3697L34.1398 29.7543C34.1767 29.7881 34.2105 29.825 34.2444 29.862C35.1675 29.7204 35.7828 28.8774 35.9613 28.5697L33.0382 20.6035L26.7736 18.1081Z" fill="white"/>
<path d="M39.1544 17.9886C37.3993 17.9769 35.6586 18.305 34.0282 18.9547C33.809 19.0487 33.6346 19.2239 33.5417 19.4436C33.4487 19.6633 33.4445 19.9104 33.5298 20.1332L36.9544 29.4532C37.0212 29.633 37.1412 29.7882 37.2984 29.8981C37.4556 30.008 37.6426 30.0675 37.8344 30.0686H39.7698V18.004C39.6159 17.9947 39.4036 17.9886 39.1544 17.9886Z" fill="white"/>
</svg>
