<svg width="138" height="230" viewBox="0 0 138 230" fill="none" xmlns="http://www.w3.org/2000/svg">
<path d="M68.9998 229.106C106.77 229.106 137.389 224.978 137.389 219.886C137.389 214.795 106.77 210.667 68.9998 210.667C31.2293 210.667 0.610352 214.795 0.610352 219.886C0.610352 224.978 31.2293 229.106 68.9998 229.106Z" fill="#F5F5F5"/>
<path d="M68.0208 33.3584C64.2011 33.7167 58.7607 52.0251 58.7607 52.0251L69.2669 53.3852L69.7962 35.8343L68.0208 33.3584Z" fill="#ABAEB6"/>
<path opacity="0.1" d="M68.0208 33.3584C64.2011 33.7167 58.7607 52.0251 58.7607 52.0251L69.2669 53.3852L69.7962 35.8343L68.0208 33.3584Z" fill="white"/>
<path d="M93.1789 217.167H100.598C100.72 217.168 100.838 217.21 100.933 217.287C101.028 217.364 101.094 217.471 101.12 217.591L102.325 223.015C102.373 223.248 102.328 223.491 102.198 223.69C102.068 223.89 101.865 224.031 101.633 224.082C101.565 224.09 101.497 224.09 101.429 224.082C99.0346 224.041 97.2917 223.894 94.2783 223.894C92.4296 223.894 86.8345 224.09 84.2772 224.09C81.7199 224.09 81.3778 221.557 82.4284 221.321C87.1277 220.303 90.6623 218.877 92.2016 217.534C92.4705 217.294 92.8189 217.164 93.1789 217.167Z" fill="#5E5E5E"/>
<path d="M61.7657 216.972H69.1688C69.2909 216.973 69.409 217.015 69.5037 217.092C69.5984 217.169 69.6642 217.276 69.69 217.395L70.8954 222.819C70.9436 223.054 70.8969 223.298 70.7656 223.498C70.6343 223.698 70.4292 223.837 70.195 223.886C70.1301 223.894 70.0645 223.894 69.9995 223.886C67.6051 223.846 65.8541 223.699 62.8489 223.699C60.992 223.699 55.405 223.894 52.8395 223.894C50.2741 223.894 49.9483 221.362 50.9989 221.134C55.6982 220.107 59.2328 218.69 60.7721 217.338C61.0468 217.098 61.4007 216.967 61.7657 216.972Z" fill="#5E5E5E"/>
<path opacity="0.3" d="M93.1789 217.167H100.598C100.72 217.168 100.838 217.21 100.933 217.287C101.028 217.364 101.094 217.471 101.12 217.591L102.325 223.015C102.373 223.248 102.328 223.491 102.198 223.69C102.068 223.89 101.865 224.031 101.633 224.082C101.565 224.09 101.497 224.09 101.429 224.082C99.0346 224.041 97.2917 223.894 94.2783 223.894C92.4296 223.894 86.8345 224.09 84.2772 224.09C81.7199 224.09 81.3778 221.557 82.4284 221.321C87.1277 220.303 90.6623 218.877 92.2016 217.534C92.4705 217.294 92.8189 217.164 93.1789 217.167Z" fill="white"/>
<path opacity="0.3" d="M61.7657 216.972H69.1688C69.2909 216.973 69.409 217.015 69.5037 217.092C69.5984 217.169 69.6642 217.276 69.69 217.395L70.8954 222.819C70.9436 223.054 70.8969 223.298 70.7656 223.498C70.6343 223.698 70.4292 223.837 70.195 223.886C70.1301 223.894 70.0645 223.894 69.9995 223.886C67.6051 223.846 65.8541 223.699 62.8489 223.699C60.992 223.699 55.405 223.894 52.8395 223.894C50.2741 223.894 49.9483 221.362 50.9989 221.134C55.6982 220.107 59.2328 218.69 60.7721 217.338C61.0468 217.098 61.4007 216.967 61.7657 216.972Z" fill="white"/>
<path d="M97.104 79.8545H64.7631C61.6846 96.6561 52.058 164.889 58.9644 217.876H69.9266C69.9266 217.876 68.8841 137.435 78.5595 111.373C79.6672 125.291 90.9796 217.786 90.9796 217.786H102.137C102.137 217.786 100.468 182.994 98.7981 150.123C97.7475 129.461 97.1529 84.1058 97.104 79.8545Z" fill="#5E5E5E"/>
<path opacity="0.2" d="M78.56 111.374C76.9651 115.935 75.7555 120.62 74.9439 125.383C74.0399 112.995 77.656 99.8584 77.656 99.8584L78.56 111.374Z" fill="black"/>
<path d="M64.4701 80.2461H97.0472V84.1228L64.0547 83.7237L64.4701 80.2461Z" fill="#5E5E5E"/>
<path d="M86.5738 78.4951H85.4092V85.377H86.5738V78.4951Z" fill="#5E5E5E"/>
<path d="M70.0972 78.4951H68.9326V85.377H70.0972V78.4951Z" fill="#5E5E5E"/>
<path d="M79.3168 79.5615H73.29V83.9024H79.3168V79.5615Z" fill="white"/>
<path d="M64.4863 80.8727H97.1448C97.8859 64.9832 102.031 43.409 103.155 37.6021C103.24 37.1983 103.162 36.7775 102.937 36.4312C102.713 36.0849 102.361 35.8413 101.958 35.7533C100.329 35.395 98.6271 35.0855 96.9168 34.8249C89.2069 33.7329 81.4271 33.2103 73.6404 33.2612C70.1954 33.2612 68.029 33.3589 68.029 33.3589C64.0709 47.5218 64.1523 70.3584 64.4863 80.8727Z" fill="#ABAEB6"/>
<path d="M91.469 34.0517C88.6674 36.5927 81.8099 35.6806 81.8099 35.6806C81.8099 35.6806 77.526 34.5078 78.43 33.1721C80.9466 32.7568 82.1682 31.5433 82.6732 30.0692C82.9485 29.1373 83.0344 28.1598 82.9256 27.1942C82.8878 26.6475 82.8171 26.1036 82.7139 25.5654L91.1921 19.2861C90.0845 23.4153 88.7244 31.0465 91.469 34.0517Z" fill="#B97964"/>
<path opacity="0.2" d="M89.2362 23.2686C88.9022 28.3587 84.7161 29.784 82.6719 30.0446C82.9472 29.1128 83.0331 28.1352 82.9243 27.1697L89.2362 23.2686Z" fill="black"/>
<path d="M90.2148 30.8262L82.1112 34.4748L81.6389 31.551L78.6581 32.5935C78.1368 32.7743 77.692 33.1263 77.3963 33.5922C77.1005 34.058 76.9711 34.6102 77.0292 35.1589L77.3631 38.4166L81.4353 36.1688L83.4795 39.06L93.2689 34.3364L90.2148 30.8262Z" fill="#ABAEB6"/>
<path opacity="0.1" d="M90.2148 30.8262L82.1112 34.4748L81.6389 31.551L78.6581 32.5935C78.1368 32.7743 77.692 33.1263 77.3963 33.5922C77.1005 34.058 76.9711 34.6102 77.0292 35.1589L77.3631 38.4166L81.4353 36.1688L83.4795 39.06L93.2689 34.3364L90.2148 30.8262Z" fill="white"/>
<path d="M71.3193 10.5887C69.7312 11.2077 82.2163 11.3298 82.2163 11.3298C82.2163 11.3298 78.2827 7.8685 71.3193 10.5887Z" fill="#ABAEB6"/>
<path opacity="0.2" d="M71.3193 10.5887C69.7312 11.2077 82.2163 11.3298 82.2163 11.3298C82.2163 11.3298 78.2827 7.8685 71.3193 10.5887Z" fill="black"/>
<path d="M76.768 6.41797C76.768 6.41797 73.999 14.4564 77.8838 18.1376C81.7686 21.8188 83.7558 6.7356 83.7558 6.7356L76.768 6.41797Z" fill="#5E5E5E"/>
<path d="M76.238 22.699C76.3195 22.984 76.4172 23.2609 76.5231 23.5134C77.3003 25.464 78.7913 27.0454 80.6929 27.9357C82.3972 28.7553 84.346 28.9093 86.1577 28.3674C87.4486 27.965 88.6058 27.2189 89.5051 26.2091C92.3637 23.098 92.1601 19.6449 92.2823 13.7728C92.3351 12.3987 92.0344 11.034 91.4091 9.80917C90.7839 8.58438 89.8548 7.54048 88.7109 6.7773C87.5669 6.01411 86.2463 5.55717 84.8753 5.45016C83.5043 5.34315 82.1288 5.58965 80.8803 6.16609C75.2526 8.75597 74.7802 17.4703 76.238 22.699Z" fill="#B97964"/>
<path d="M83.4374 15.7677C83.4944 16.2401 83.2256 16.6391 82.908 16.6473C82.5904 16.6554 82.3298 16.2808 82.3053 15.8329C82.2809 15.3849 82.5334 14.9614 82.8429 14.9533C83.1524 14.9451 83.4211 15.2709 83.4374 15.7677Z" fill="#5E5E5E"/>
<path d="M78.038 15.9708C78.095 16.4432 77.8181 16.8423 77.5086 16.8504C77.1991 16.8585 76.9304 16.4839 76.9059 16.036C76.8815 15.588 77.134 15.1645 77.4435 15.1564C77.7529 15.1482 78.0217 15.5147 78.038 15.9708Z" fill="#5E5E5E"/>
<path d="M79.7643 16.1426C79.2502 17.6234 78.535 19.0265 77.6387 20.3124C77.9766 20.5332 78.3583 20.6781 78.7576 20.7371C79.1569 20.7962 79.5643 20.768 79.9516 20.6545L79.7643 16.1426Z" fill="#A24E3F"/>
<path d="M75.9534 13.7391C75.998 13.7649 76.0486 13.7784 76.1 13.7784C76.1515 13.7784 76.202 13.7649 76.2466 13.7391C76.5331 13.5346 76.8633 13.3995 77.2109 13.3444C77.5586 13.2892 77.9144 13.3156 78.2501 13.4215C78.2837 13.4363 78.32 13.4442 78.3567 13.4448C78.3935 13.4454 78.4299 13.4386 78.464 13.425C78.4982 13.4113 78.5292 13.391 78.5554 13.3653C78.5816 13.3395 78.6024 13.3088 78.6166 13.2749C78.6442 13.2067 78.6443 13.1305 78.617 13.0622C78.5897 12.9939 78.537 12.9388 78.47 12.9084C78.0506 12.7626 77.6023 12.7198 77.1629 12.7836C76.7235 12.8474 76.3059 13.0159 75.9453 13.2749C75.9142 13.2941 75.8871 13.3192 75.8657 13.3488C75.8444 13.3785 75.8291 13.4121 75.8208 13.4477C75.8124 13.4832 75.8112 13.5201 75.8172 13.5562C75.8232 13.5922 75.8363 13.6267 75.8557 13.6577C75.883 13.6906 75.9161 13.7182 75.9534 13.7391Z" fill="#5E5E5E"/>
<path d="M84.4316 13.5692C84.485 13.5594 84.5352 13.5371 84.5782 13.5041C84.63 13.4522 84.659 13.3819 84.659 13.3086C84.659 13.2353 84.63 13.165 84.5782 13.1131C84.2338 12.8291 83.8262 12.6319 83.3896 12.5384C82.953 12.4448 82.5004 12.4576 82.0698 12.5756C82.035 12.5866 82.0029 12.6045 81.9752 12.6283C81.9476 12.6521 81.9251 12.6812 81.9091 12.714C81.8931 12.7468 81.8839 12.7824 81.8822 12.8188C81.8804 12.8552 81.886 12.8916 81.8988 12.9258C81.923 12.9949 81.9728 13.0521 82.038 13.0855C82.1032 13.1188 82.1788 13.1258 82.249 13.105C82.5915 13.0204 82.9491 13.0175 83.293 13.0968C83.6368 13.176 83.9571 13.3351 84.228 13.5611C84.2926 13.5888 84.3651 13.5917 84.4316 13.5692Z" fill="#5E5E5E"/>
<path d="M87.7063 6.62988L87.3643 9.21977C87.8001 9.43357 88.1395 9.80378 88.3146 10.2566C88.4897 10.7094 88.4877 11.2116 88.309 11.6631C87.4457 13.8294 88.651 17.2175 90.3043 18.5857C90.3043 18.5857 90.3695 17.641 91.1595 17.869C91.9495 18.097 91.6889 23.008 90.1089 25.3373C90.1089 25.3373 92.4789 23.2442 93.8552 18.097C95.1258 13.3489 95.3212 9.37451 94.3602 7.50947L87.7063 6.62988Z" fill="#5E5E5E"/>
<path d="M95.027 18.5294C94.7301 19.1991 94.3039 19.8036 93.7728 20.3081C93.2417 20.8127 92.6162 21.2073 91.9321 21.4695C90.0996 22.1617 89.0083 20.5655 89.3667 18.7411C89.7087 17.1123 91.0525 14.7667 92.9664 14.8726C94.8804 14.9785 95.7111 16.8354 95.027 18.5294Z" fill="#B97964"/>
<path d="M80.8396 23.0326C80.7945 23.0321 80.7508 23.0166 80.7154 22.9886C80.68 22.9606 80.655 22.9216 80.6441 22.8778C80.6369 22.8521 80.6349 22.8252 80.6384 22.7988C80.6419 22.7723 80.6509 22.7468 80.6646 22.724C80.6783 22.7011 80.6966 22.6812 80.7183 22.6657C80.74 22.6501 80.7646 22.6392 80.7907 22.6335C81.7476 22.3204 82.5636 21.6803 83.0956 20.8255C83.1256 20.7801 83.172 20.7479 83.225 20.7358C83.2781 20.7237 83.3338 20.7324 83.3806 20.7603C83.4255 20.7888 83.4574 20.8338 83.4696 20.8855C83.4818 20.9372 83.4732 20.9917 83.4458 21.0372C82.8651 21.9902 81.9553 22.6972 80.8885 23.0244L80.8396 23.0326Z" fill="#5E5E5E"/>
<path d="M75.4072 8.99966C75.4072 8.99966 77.7528 2.72042 78.7789 1.963C79.8051 1.20558 83.2583 0.602897 86.4183 1.05083C89.5783 1.49877 94.0495 4.45514 94.9291 5.9374C95.8086 7.41966 94.9291 13.0474 94.9291 13.0474L87.9576 11.0031L75.4072 8.99966Z" fill="#ABAEB6"/>
<path opacity="0.1" d="M75.4072 8.99966C75.4072 8.99966 77.7528 2.72042 78.7789 1.963C79.8051 1.20558 83.2583 0.602897 86.4183 1.05083C89.5783 1.49877 94.0495 4.45514 94.9291 5.9374C95.8086 7.41966 94.9291 13.0474 94.9291 13.0474L87.9576 11.0031L75.4072 8.99966Z" fill="white"/>
<path d="M71.3193 10.5869C71.3193 10.5869 77.7533 7.40252 80.7749 7.32922C83.7964 7.25592 88.1047 9.14539 89.1716 10.6602C89.1716 10.6602 83.8045 12.2891 81.6056 11.3362C78.311 10.145 74.7517 9.88568 71.3193 10.5869Z" fill="#ABAEB6"/>
<path d="M77.8428 6.05126L81.0353 3.30664L80.7014 5.03322L84.5781 5.01694L84.4234 6.00239L77.8428 6.05126Z" fill="white"/>
<path d="M81.3856 3.89229L84.6677 3.85156L84.513 4.53569L81.2227 4.52754L81.3856 3.89229Z" fill="white"/>
<path d="M77.8266 47.791H33.2529V79.456H77.8266V47.791Z" fill="#5E5E5E"/>
<path opacity="0.3" d="M77.8266 47.791H33.2529V79.456H77.8266V47.791Z" fill="white"/>
<path opacity="0.1" d="M59.673 47.791H33.2529V79.456H59.673V47.791Z" fill="white"/>
<path opacity="0.3" d="M70.9693 47.791H67.2393V51.1139H70.9693V47.791Z" fill="white"/>
<path opacity="0.3" d="M70.9693 76.5322H67.2393V79.456H70.9693V76.5322Z" fill="white"/>
<path opacity="0.3" d="M57.7587 72.5977H48.4824V77.7448H57.7587V72.5977Z" fill="white"/>
<path opacity="0.3" d="M41.5196 49.4033H34.6621V52.0258H41.5196V49.4033Z" fill="white"/>
<path d="M94.8473 53.5488C94.8473 53.5488 93.5768 60.8054 92.404 62.0189C89.8223 64.7391 71.5791 66.6122 71.5791 66.6122L71.8642 70.6844C71.8642 70.6844 90.9625 69.5116 94.5785 66.9054C97.5675 64.7554 101.045 54.2492 101.045 54.2492L94.8473 53.5488Z" fill="#B97964"/>
<path d="M72.3781 67.833C72.3781 67.833 71.7754 65.7888 71.2461 65.3897C70.7167 64.9906 63.2321 65.0069 62.8493 65.0069C62.4665 65.0069 63.0773 71.1314 63.6067 71.7422C64.1361 72.3531 70.2606 71.7422 71.2461 71.5142C72.2315 71.2862 72.9075 69.5677 72.3781 67.833Z" fill="#B97964"/>
<path d="M101.958 35.7543C109.483 38.4175 99.4088 62.1092 99.4088 62.1092L92.7549 60.065C92.7549 60.065 96.4443 33.7997 101.958 35.7543Z" fill="#ABAEB6"/>
<path opacity="0.1" d="M101.958 35.7543C109.483 38.4175 99.4088 62.1092 99.4088 62.1092L92.7549 60.065C92.7549 60.065 96.4443 33.7997 101.958 35.7543Z" fill="white"/>
<path d="M92.503 57.8486L100.59 60.5688L99.7595 62.9877L92.0469 60.0394L92.503 57.8486Z" fill="#ABAEB6"/>
<path d="M84.8232 46.5696L88.2438 44.1182L87.7633 45.804L91.6318 46.1298L91.3875 47.099L84.8232 46.5696Z" fill="white"/>
<path d="M88.5441 44.7363L91.8181 44.9725L91.6064 45.6485L88.3242 45.3471L88.5441 44.7363Z" fill="white"/>
</svg>
