<svg width="230" height="229" viewBox="0 0 230 229" fill="none" xmlns="http://www.w3.org/2000/svg">
<g clip-path="url(#clip0_1733_11416)">
<path d="M22.1712 157.788V112.741H6.31526C3.35383 112.741 0.953125 110.34 0.953125 107.379V17.3172C0.953125 14.3558 3.35384 11.9551 6.31526 11.9551H138.812C141.774 11.9551 144.175 14.3558 144.175 17.3172V107.379C144.175 110.34 141.774 112.741 138.812 112.741H61.5873L22.1712 157.788Z" fill="#ABAEB6"/>
<path d="M207.829 216.137L168.412 171.09H91.1873C88.2259 171.09 85.8252 168.69 85.8252 165.728V75.6668C85.8252 72.7054 88.2259 70.3047 91.1873 70.3047H223.685C226.646 70.3047 229.047 72.7054 229.047 75.6668V165.728C229.047 168.69 226.646 171.09 223.685 171.09H207.829V216.137Z" fill="#C9C9C9"/>
<path d="M151.07 122.819V96.2969H163.801V122.819H151.07ZM151.07 141.916V130.246H163.801V141.916H151.07Z" fill="white"/>
<path d="M60.5333 67.0805C60.5333 66.1895 60.5752 65.3092 60.6607 64.4387C60.7449 63.5691 60.9574 62.7418 61.2974 61.9564C61.6368 61.1718 62.146 60.4185 62.825 59.6968C63.503 58.976 64.4163 58.318 65.5621 57.7237C66.0285 57.4689 66.6972 57.1303 67.5673 56.7053C68.4369 56.2816 69.3065 55.7724 70.177 55.1777C71.0466 54.5843 71.8004 53.9156 72.4365 53.1725C73.0731 52.4303 73.3912 51.6128 73.3912 50.7218C73.3912 49.7462 73.0094 48.9715 72.2454 48.3986C71.4814 47.8257 70.5904 47.5392 69.572 47.5392C68.808 47.5392 68.15 47.6885 67.5989 47.9847C67.0465 48.2823 66.5693 48.6432 66.1666 49.0668C65.763 49.4918 65.4235 49.9262 65.1482 50.3717C64.872 50.8172 64.6069 51.1896 64.3526 51.4854L56.6504 46.0112C57.753 43.4233 59.4931 41.407 61.8698 39.964C64.2456 38.5215 66.9623 37.7998 70.0175 37.7998C71.6302 37.7998 73.2638 38.0332 74.9188 38.5001C76.5738 38.9674 78.0698 39.7096 79.4063 40.728C80.7432 41.7464 81.8253 43.0834 82.6526 44.7384C83.4799 46.3934 83.8938 48.4097 83.8938 50.7856C83.8938 52.8224 83.5218 54.6792 82.78 56.3551C82.0374 58.032 80.7112 59.5061 78.8018 60.7789C77.868 61.4155 76.9129 61.9675 75.9372 62.4339C74.9607 62.9013 74.0595 63.3677 73.2317 63.8341C72.4044 64.3014 71.7251 64.7888 71.1949 65.298C70.6639 65.8072 70.3993 66.402 70.3993 67.0805H60.5333ZM60.7244 83.5669V73.1276H70.5908V83.5669H60.7244Z" fill="white"/>
</g>
<defs>
<clipPath id="clip0_1733_11416">
<rect width="228.094" height="228.094" fill="white" transform="translate(0.953125)"/>
</clipPath>
</defs>
</svg>
