<svg width="25" height="24" viewBox="0 0 25 24" fill="none" xmlns="http://www.w3.org/2000/svg">
<path fill-rule="evenodd" clip-rule="evenodd" d="M21.5469 12C21.5469 16.9706 17.5174 21 12.5469 21C7.57631 21 3.54688 16.9706 3.54688 12C3.54688 7.02944 7.57631 3 12.5469 3C17.5174 3 21.5469 7.02944 21.5469 12ZM13.5469 8C13.5469 8.55228 13.0992 9 12.5469 9C11.9946 9 11.5469 8.55228 11.5469 8C11.5469 7.44772 11.9946 7 12.5469 7C13.0992 7 13.5469 7.44772 13.5469 8ZM13.0469 17V11H12.0469V17H13.0469Z" fill="#4F4F4F"/>
</svg>
