<svg width="462" height="844" viewBox="0 0 462 844" fill="none" xmlns="http://www.w3.org/2000/svg">
<path opacity="0.5" d="M457.683 153.698C456.095 167.56 444.311 177.996 430.358 177.896L62.8834 175.271C46.6494 175.155 34.1013 160.986 35.9488 144.857V144.857C37.5368 130.994 49.3205 120.558 63.2735 120.658L430.748 123.284C446.982 123.4 459.53 137.569 457.683 153.698V153.698Z" fill="#FFF8D6"/>
<path opacity="0.2" d="M425.193 77.9939C423.605 91.8567 411.821 102.292 397.868 102.193L30.3936 99.5672C14.1597 99.4512 1.61156 85.2821 3.45908 69.1533V69.1533C5.04702 55.2905 16.8307 44.8549 30.7838 44.9546L398.258 47.58C414.492 47.696 427.04 61.8651 425.193 77.9939V77.9939Z" fill="#D6D6FF"/>
<rect x="342.07" y="447.722" width="108" height="40" rx="20" fill="#FBFBFF"/>
<rect x="305.931" y="803.722" width="108" height="40" rx="20" fill="#FFFBEB"/>
</svg>
