<svg width="210" height="50" viewBox="0 0 210 50" fill="none" xmlns="http://www.w3.org/2000/svg">
<path d="M20.1422 1.27732L1.34706 20.6458C-0.838906 23.4146 0.118757 27.3115 0.870834 28.9138L14.9536 43.4161C16.5052 45.2256 20.208 49.0347 22.6064 49.7955C28.208 50.7861 29.6281 47.8539 29.5886 47.8936C29.5492 47.9332 18.9772 38.8198 17.3993 37.3933C17.2416 36.5374 17.9911 36.482 18.3855 36.5612C22.0147 39.6915 29.6123 46.2135 30.9693 47.2596C33.2415 45.8014 34.7563 43.667 35.2296 42.7821C31.1587 39.3035 22.9393 32.2629 22.6293 31.9301C22.0843 31.2216 22.7916 30.9734 23.2134 30.9379C26.5226 33.7632 33.8076 39.9126 36.4739 41.907C39.1402 39.8557 40.4214 37.9657 40.7287 37.2772C37.1358 33.9057 29.6948 26.9491 28.6736 26.0943C27.766 25.0116 28.7209 24.8834 29.3118 24.9547L41.9342 36.4937C43.3051 35.354 46.0471 32.8325 46.0471 31.8638C43.707 28.0175 34.843 19.8262 33.1411 18.6153C31.4392 17.4044 28.8864 17.6181 28.1063 17.6181C27.4823 17.6181 26.4281 18.6153 25.979 19.1139C24.9626 20.2773 22.3723 22.6184 20.1422 22.6753C17.3547 22.7466 14.7749 20.6458 15.1294 19.1139C17.4695 18.1879 19.526 14.5553 20.1422 13.5581C20.7584 12.5609 21.5115 11.1363 23.4261 8.857C24.9578 7.03355 32.0538 6.81512 35.4103 6.93383C34.9479 6.3405 33.2513 4.45356 30.1639 1.65244C27.0764 -1.14868 22.1963 0.235227 20.1422 1.27732Z" fill="#17395C"/>
<path d="M21.9256 12.9491C21.1979 15.2331 17.9636 18.4563 16.4375 19.7824C17.4426 21.9693 21.0919 21.2676 21.7246 21.1264C22.3574 20.9852 24.2556 19.3609 26.3295 17.1365C29.212 15.7947 31.3563 16.5362 33.2019 17.3164C38.3701 19.6588 44.4221 27.3429 46.8021 30.8921C46.8021 30.8921 47.0433 31.055 47.4936 30.8921C52.0329 25.7933 49.385 20.7599 47.4936 18.8805L37.2361 8.57153C36.9203 8.41927 35.1897 8.10714 30.7936 8.07669C25.2986 8.03863 22.8353 10.0942 21.9256 12.9491Z" fill="#F7AD2A"/>
<path d="M65.8359 24.5964C65.8359 29.1084 68.7639 32.2044 72.6999 32.2044C76.1799 32.2044 78.3159 30.1644 78.8679 27.1884H75.8199C75.3159 28.5564 74.4039 29.4684 72.6999 29.4684C70.3479 29.4684 68.9559 27.3804 68.9559 24.5964C68.9559 21.7884 70.3479 19.7244 72.6999 19.7244C74.4039 19.7244 75.3159 20.6364 75.8199 21.9804H78.8679C78.3159 19.0284 76.1799 16.9884 72.6999 16.9884C68.7639 16.9884 65.8359 20.0844 65.8359 24.5964Z" fill="#17395C"/>
<path d="M90.7134 26.6124C90.7134 23.3004 88.5774 20.9964 85.4574 20.9964C82.3374 20.9964 80.2014 23.3004 80.2014 26.6124C80.2014 29.9004 82.3374 32.2044 85.4574 32.2044C88.5774 32.2044 90.7134 29.9004 90.7134 26.6124ZM87.7614 26.6124C87.7614 28.3884 86.9454 29.6844 85.4574 29.6844C83.9694 29.6844 83.1534 28.3884 83.1534 26.6124C83.1534 24.8124 83.9694 23.5164 85.4574 23.5164C86.9454 23.5164 87.7614 24.8124 87.7614 26.6124Z" fill="#17395C"/>
<path d="M92.6156 31.9644H95.5916V25.1724C95.8316 24.2364 96.6236 23.6844 97.5356 23.6844C98.7116 23.6844 99.2876 24.4524 99.2876 25.5804V31.9644H102.264V24.9564C102.264 22.5804 100.896 20.9964 98.4716 20.9964C97.2236 20.9964 96.1676 21.5484 95.5916 22.2204V21.2364H92.6156V31.9644Z" fill="#17395C"/>
<path d="M111.021 16.4364C110.589 16.2444 110.061 16.1484 109.365 16.1484C107.085 16.1484 105.573 17.5404 105.573 19.9644V21.2364H103.821V23.6364H105.573V31.9644H108.501V23.6364H110.733V21.2364H108.501V20.1564C108.501 19.1724 109.053 18.6684 109.965 18.6684C110.325 18.6684 110.709 18.7404 111.021 18.9564V16.4364Z" fill="#17395C"/>
<path d="M121.041 31.9644V25.1244C121.041 22.5564 119.385 20.9964 116.529 20.9964C114.081 20.9964 112.329 22.4844 112.017 24.4284H114.849C115.089 23.8044 115.593 23.4204 116.433 23.4204C117.633 23.4204 118.185 24.1644 118.185 25.0764V25.8684C117.753 25.5564 116.673 25.2444 115.737 25.2444C113.409 25.2444 111.585 26.6364 111.585 28.6764C111.585 30.9084 113.409 32.1564 115.569 32.1564C116.745 32.1564 117.825 31.7484 118.185 31.3884V31.9644H121.041ZM118.185 29.0364C117.921 29.6124 117.105 29.9724 116.241 29.9724C115.305 29.9724 114.345 29.5884 114.345 28.6524C114.345 27.7404 115.305 27.3324 116.241 27.3324C117.105 27.3324 117.921 27.6924 118.185 28.2684V29.0364Z" fill="#17395C"/>
<path d="M132.027 22.3644C131.427 21.5724 130.419 20.9964 129.147 20.9964C127.947 20.9964 126.963 21.4524 126.435 22.1244V21.2364H123.459V31.9644H126.435V25.0524C126.627 24.1404 127.347 23.6604 128.115 23.6604C129.147 23.6604 129.627 24.4284 129.627 25.5804V31.9644H132.627V25.0524C132.819 24.1404 133.515 23.6604 134.283 23.6604C135.315 23.6604 135.819 24.4284 135.819 25.5804V31.9644H138.795V24.9564C138.795 22.5324 137.475 20.9964 135.267 20.9964C133.755 20.9964 132.723 21.5964 132.027 22.3644Z" fill="#17395C"/>
<path d="M155.094 31.9644L158.67 22.3404V31.9644H161.574V17.2284H157.974L154.062 27.6204L150.126 17.2284H146.478V31.9644H149.358V22.3404L153.006 31.9644H155.094Z" fill="#17395C"/>
<path d="M174.128 26.6124C174.128 23.3004 171.992 20.9964 168.871 20.9964C165.751 20.9964 163.616 23.3004 163.616 26.6124C163.616 29.9004 165.751 32.2044 168.871 32.2044C171.992 32.2044 174.128 29.9004 174.128 26.6124ZM171.175 26.6124C171.175 28.3884 170.359 29.6844 168.871 29.6844C167.383 29.6844 166.567 28.3884 166.567 26.6124C166.567 24.8124 167.383 23.5164 168.871 23.5164C170.359 23.5164 171.175 24.8124 171.175 26.6124Z" fill="#17395C"/>
<path d="M176.03 31.9644H179.006V25.1724C179.246 24.2364 180.038 23.6844 180.95 23.6844C182.126 23.6844 182.702 24.4524 182.702 25.5804V31.9644H185.678V24.9564C185.678 22.5804 184.31 20.9964 181.886 20.9964C180.638 20.9964 179.582 21.5484 179.006 22.2204V21.2364H176.03V31.9644Z" fill="#17395C"/>
<path d="M194.675 28.4604C194.435 29.3724 193.691 29.8044 192.683 29.8044C191.363 29.8044 190.451 28.8444 190.355 27.2364H197.507V26.3244C197.507 23.1804 195.779 20.9964 192.635 20.9964C189.635 20.9964 187.475 23.3724 187.475 26.6124C187.475 29.9244 189.563 32.2044 192.683 32.2044C195.371 32.2044 197.051 30.7404 197.435 28.4604H194.675ZM192.659 23.4204C193.883 23.4204 194.555 24.3084 194.579 25.4364H190.427C190.691 24.1164 191.507 23.4204 192.659 23.4204Z" fill="#17395C"/>
<path d="M203.557 35.9244L209.149 21.2364H206.149L203.701 28.3644L201.229 21.2364H198.085L202.189 32.0124L200.629 35.9244H203.557Z" fill="#17395C"/>
</svg>
