<svg width="50" height="51" viewBox="0 0 50 51" fill="none" xmlns="http://www.w3.org/2000/svg">
<path d="M20.1422 1.71092L1.34706 21.0794C-0.838906 23.8482 0.118757 27.7451 0.870834 29.3474L14.9536 43.8497C16.5052 45.6592 20.208 49.4683 22.6064 50.2291C28.208 51.2197 29.6281 48.2875 29.5886 48.3272C29.5492 48.3668 18.9772 39.2533 17.3993 37.8269C17.2416 36.971 17.9911 36.9156 18.3855 36.9948C22.0147 40.1251 29.6123 46.6471 30.9693 47.6932C33.2415 46.235 34.7563 44.1006 35.2296 43.2157C31.1587 39.737 22.9393 32.6965 22.6293 32.3637C22.0843 31.6551 22.7916 31.407 23.2134 31.3714C26.5226 34.1968 33.8076 40.3462 36.4739 42.3406C39.1402 40.2893 40.4214 38.3993 40.7287 37.7108C37.1358 34.3393 29.6948 27.3826 28.6736 26.5279C27.766 25.4452 28.7209 25.317 29.3118 25.3882L41.9342 36.9273C43.3051 35.7876 46.0471 33.2661 46.0471 32.2974C43.707 28.4511 34.843 20.2598 33.1411 19.0489C31.4392 17.838 28.8864 18.0517 28.1063 18.0517C27.4823 18.0517 26.4281 19.0489 25.979 19.5475C24.9626 20.7109 22.3723 23.052 20.1422 23.1089C17.3547 23.1802 14.7749 21.0794 15.1294 19.5475C17.4695 18.6215 19.526 14.9889 20.1422 13.9917C20.7584 12.9945 21.5115 11.5699 23.4261 9.29059C24.9578 7.46714 32.0538 7.24871 35.4103 7.36742C34.9479 6.7741 33.2513 4.88716 30.1639 2.08603C27.0764 -0.715089 22.1963 0.66882 20.1422 1.71092Z" fill="#17395C"/>
<path d="M21.9256 13.3808C21.1979 15.6648 17.9636 18.8879 16.4375 20.214C17.4426 22.4009 21.0919 21.6993 21.7246 21.558C22.3574 21.4168 24.2556 19.7926 26.3295 17.5681C29.212 16.2264 31.3563 16.9679 33.2019 17.748C38.3701 20.0904 44.4221 27.7745 46.8021 31.3238C46.8021 31.3238 47.0433 31.4867 47.4936 31.3238C52.0329 26.2249 49.385 21.1915 47.4936 19.3121L37.2361 9.00317C36.9203 8.85091 35.1897 8.53879 30.7936 8.50833C25.2986 8.47027 22.8353 10.5258 21.9256 13.3808Z" fill="#F7AD2A"/>
</svg>
