<svg width="312" height="279" viewBox="0 0 312 279" fill="none" xmlns="http://www.w3.org/2000/svg">
<path d="M159.399 266.19C216.365 266.19 262.546 263.165 262.546 259.433C262.546 255.701 216.365 252.676 159.399 252.676C102.432 252.676 56.252 255.701 56.252 259.433C56.252 263.165 102.432 266.19 159.399 266.19Z" fill="#F5F5F5"/>
<path d="M180.788 167.666H69.1143C68.3866 167.666 67.6886 167.955 67.174 168.47C66.6594 168.985 66.3703 169.682 66.3703 170.41V224.028C66.3658 224.391 66.4334 224.752 66.5693 225.089C66.7051 225.425 66.9065 225.732 67.1618 225.99C67.4171 226.249 67.7211 226.454 68.0563 226.594C68.3914 226.734 68.7511 226.806 69.1143 226.806H169.401L183.567 243.106V170.39C183.564 170.028 183.49 169.671 183.349 169.338C183.207 169.005 183.002 168.704 182.743 168.45C182.485 168.197 182.18 167.998 181.844 167.863C181.509 167.729 181.15 167.662 180.788 167.666Z" fill="#C0C0C0"/>
<path d="M142.688 198.331C142.686 197.129 143.041 195.953 143.708 194.952C144.376 193.952 145.324 193.172 146.435 192.711C147.545 192.25 148.768 192.128 149.947 192.362C151.126 192.596 152.21 193.174 153.061 194.024C153.912 194.874 154.491 195.957 154.726 197.136C154.961 198.315 154.841 199.537 154.381 200.648C153.922 201.759 153.143 202.709 152.143 203.377C151.143 204.045 149.968 204.402 148.765 204.402C147.155 204.402 145.61 203.763 144.47 202.624C143.33 201.486 142.689 199.942 142.688 198.331Z" fill="#DDDDDD"/>
<path d="M116.661 198.331C116.66 197.128 117.015 195.952 117.683 194.952C118.35 193.951 119.299 193.171 120.41 192.71C121.521 192.249 122.744 192.128 123.923 192.363C125.103 192.597 126.186 193.176 127.037 194.026C127.887 194.877 128.466 195.96 128.701 197.14C128.935 198.32 128.814 199.542 128.353 200.653C127.892 201.764 127.112 202.713 126.112 203.381C125.111 204.048 123.935 204.403 122.732 204.402C121.122 204.402 119.578 203.762 118.439 202.624C117.301 201.485 116.661 199.941 116.661 198.331Z" fill="#DDDDDD"/>
<path d="M90.6338 198.331C90.6338 197.13 90.9899 195.956 91.657 194.958C92.3241 193.96 93.2722 193.181 94.3816 192.722C95.4909 192.262 96.7116 192.142 97.8893 192.376C99.067 192.611 100.149 193.189 100.998 194.038C101.847 194.887 102.425 195.969 102.659 197.146C102.894 198.324 102.773 199.545 102.314 200.654C101.854 201.764 101.076 202.712 100.078 203.379C99.0794 204.046 97.9056 204.402 96.7049 204.402C95.0947 204.402 93.5505 203.762 92.412 202.624C91.2734 201.485 90.6338 199.941 90.6338 198.331Z" fill="#DDDDDD"/>
<path d="M242.59 121.258C242.59 121.258 243.523 117.369 241.815 114.398C240.107 111.428 238.701 113.465 237.459 114.083C236.217 114.7 233.885 112.711 232.952 113.932C232.019 115.153 233.11 116.106 232.643 116.882C232.177 117.657 228.911 116.724 228.445 118.94C227.978 121.155 230.462 121.114 229.529 122.198C228.596 123.282 226.421 123.57 227.512 125.628C228.603 127.686 230.462 127.185 230.462 127.96C230.462 128.736 228.445 130.293 229.687 131.843C230.928 133.394 232.643 132.31 233.117 133.092C233.59 133.874 234.2 136.042 235.133 136.522C236.066 137.002 238.399 136.364 240.573 132.481C242.748 128.598 242.59 121.258 242.59 121.258Z" fill="#263238" stroke="#5E5E5E" stroke-linecap="round" stroke-linejoin="round"/>
<path d="M263.767 151.67C263.266 152.747 259.075 155.621 259.075 155.621C259.07 155.148 259.171 154.679 259.37 154.249C259.672 153.79 259.884 153.344 260.056 153.069C260.106 152.32 259.859 151.581 259.37 151.011C258.801 150.38 258.348 151.965 258.101 153.021C257.854 154.078 256.201 155.683 256.276 156.451C256.416 157.354 256.601 158.249 256.832 159.133L252.133 162.941C250.658 164.169 246.432 166.371 246.432 166.371C245.962 164.749 245.335 163.178 244.559 161.679C242.914 158.502 241.098 155.418 239.119 152.438C237.466 154.743 238.769 157.926 239.702 161.843C240.635 165.76 244.545 173.855 244.545 173.855C246.825 173.148 248.955 172.027 250.829 170.549C254.314 167.928 258.945 160.766 258.945 160.766C258.945 160.766 260.317 160.156 262.011 159.573C263.705 158.989 263.458 158.495 263.733 156.829C264.007 155.162 265.427 152.891 265.345 152.027C265.263 151.162 264.268 150.593 263.767 151.67Z" fill="#B97964" stroke="#5E5E5E" stroke-linecap="round" stroke-linejoin="round"/>
<path d="M236.526 132.447C236.526 132.447 235.606 138.189 234.831 141.139C234.056 144.089 233.102 143.931 233.102 143.931C231.136 142.926 228.942 142.453 226.736 142.559C223.471 142.868 219.739 146.442 221.296 154.53C222.854 162.618 227.978 170.383 227.978 170.383L225.337 180.172C225.337 180.172 222.785 188.404 220.768 196.039C218.751 203.675 215.932 215.145 214.683 217.477C213.435 219.809 208.77 222.965 205.038 230.086C201.306 237.206 196.12 250.59 196.12 250.59L197.492 252.147C197.492 252.147 213.812 233.955 218.01 229.605C222.209 225.256 229.048 213.903 230.907 207.221C232.021 203.216 233.74 199.403 236.004 195.916C236.004 195.916 238.371 209.711 237.129 213.594C235.888 217.477 233.699 224.165 233.864 228.981C234.028 233.797 237.15 252.12 237.15 252.12L239.949 252.271C239.949 252.271 242.748 239.059 245.073 226.779C247.399 214.5 248.654 209.218 248.654 196.595C248.654 183.973 244.456 169.395 243.523 167.372C242.59 165.348 242.432 164.888 242.432 164.888C242.432 164.888 244.607 162.089 244.607 159.599C244.607 157.109 241.815 152.739 241.815 152.739C241.815 152.739 243.056 150.256 241.965 148.232C241.402 147.093 240.485 146.166 239.352 145.591L240.415 140.151L236.526 132.447Z" fill="#B97964" stroke="#5E5E5E" stroke-linecap="round" stroke-linejoin="round"/>
<path d="M226.75 174.93L225.337 180.164C225.337 180.164 222.785 188.396 220.768 196.031C218.751 203.666 215.932 215.136 214.683 217.469C213.435 219.801 208.77 222.957 205.038 230.077C201.306 237.198 196.12 250.582 196.12 250.582L197.492 252.139C197.492 252.139 213.812 233.946 218.01 229.597C222.209 225.248 229.048 213.894 230.907 207.213C232.021 203.207 233.74 199.395 236.004 195.908C236.004 195.908 238.371 209.703 237.129 213.586C235.888 217.469 233.699 224.157 233.864 228.973C234.028 233.788 237.15 252.118 237.15 252.118L239.949 252.269C239.949 252.269 242.748 239.057 245.073 226.778C247.399 214.498 248.654 209.216 248.654 196.594C248.654 188.314 246.836 179.162 245.327 173.27C235.517 175.451 229.919 175.485 226.75 174.93Z" fill="#5E5E5E" stroke="#5E5E5E" stroke-linecap="round" stroke-linejoin="round"/>
<path d="M236.643 195.909L241.897 189.248" stroke="#B97964" stroke-width="0.75" stroke-linecap="round" stroke-linejoin="round"/>
<path d="M241.815 120.326C241.815 120.326 237.013 120.634 236.217 127.186C235.421 133.737 236.684 142.106 241.019 143.19C245.355 144.274 250.191 136.975 250.657 130.76C251.124 124.545 247.255 119.077 241.815 120.326Z" fill="#B97964" stroke="#5E5E5E" stroke-linecap="round" stroke-linejoin="round"/>
<path d="M247.955 135.746C247.955 136.261 247.728 136.679 247.454 136.679C247.18 136.679 246.953 136.261 246.953 135.746C246.953 135.232 247.173 134.82 247.454 134.82C247.735 134.82 247.955 135.232 247.955 135.746Z" fill="#5E5E5E"/>
<path d="M244.017 133.964C244.017 134.472 243.798 134.89 243.523 134.89C243.249 134.89 243.022 134.472 243.022 133.964C243.022 133.457 243.242 133.031 243.523 133.031C243.804 133.031 244.017 133.443 244.017 133.964Z" fill="#5E5E5E"/>
<path d="M250.006 125.56C248.689 121.883 245.636 119.448 241.815 120.326C241.815 120.326 237.013 120.635 236.217 127.186C236.033 128.752 235.966 130.33 236.018 131.906L236.059 132.002C236.059 132.002 235.428 130.17 241.643 129.862C243.694 129.738 248.839 125.245 250.006 125.56Z" fill="#263238" stroke="#5E5E5E" stroke-linecap="round" stroke-linejoin="round"/>
<path d="M246.658 125.471C246.658 125.471 249.402 122.178 251.666 124.181C253.93 126.185 249.807 130.616 250.664 131.906C251.522 133.195 253.95 131.618 253.95 131.618C253.95 131.618 252.668 134.362 250.953 134.362C249.238 134.362 247.09 132.077 247.09 129.786C247.082 128.346 246.938 126.911 246.658 125.499" fill="#263238"/>
<path d="M246.658 125.471C246.658 125.471 249.402 122.178 251.666 124.181C253.93 126.185 249.807 130.616 250.664 131.906C251.522 133.195 253.95 131.618 253.95 131.618C253.95 131.618 252.668 134.362 250.953 134.362C249.238 134.362 247.09 132.077 247.09 129.786C247.082 128.346 246.938 126.911 246.658 125.499V125.499" stroke="#5E5E5E" stroke-linecap="round" stroke-linejoin="round"/>
<path d="M237.616 132.139C237.616 132.139 235.593 127.632 234.66 129.957C233.727 132.283 235.284 134.938 236.683 134.938" fill="#B97964"/>
<path d="M237.616 132.139C237.616 132.139 235.593 127.632 234.66 129.957C233.727 132.283 235.284 134.938 236.683 134.938" stroke="#5E5E5E" stroke-linecap="round" stroke-linejoin="round"/>
<path d="M242.844 154.646C242.378 154.105 242.02 153.481 241.787 152.807C241.347 150.928 241.101 149.009 241.053 147.079L240.847 146.866C240.498 149.357 239.4 153.871 236.189 152.032C232.979 150.194 230.42 145.103 229.46 142.785C228.956 142.639 228.434 142.569 227.909 142.579C229.014 144.479 231.257 148.808 230.9 151.874C230.503 155.304 227.621 161.808 222.257 158.357C223.661 162.579 225.573 166.615 227.951 170.376L225.543 179.294C233.295 183.019 242.693 181.166 246.809 180.035C245.553 173.593 244.017 168.537 243.495 167.405C242.562 165.388 242.405 164.922 242.405 164.922C242.405 164.922 244.579 162.123 244.579 159.633C244.607 158.206 243.667 156.134 242.844 154.646Z" fill="#BDBDBD" stroke="#5E5E5E" stroke-linecap="round" stroke-linejoin="round"/>
<path d="M239.27 158.198C239.482 157.677 239.695 157.148 239.887 156.613" stroke="#5E5E5E" stroke-width="0.75" stroke-linecap="round" stroke-linejoin="round"/>
<path d="M230.839 172.474C233.874 168.533 236.471 164.273 238.584 159.77" stroke="#5E5E5E" stroke-width="0.75" stroke-linecap="round" stroke-linejoin="round"/>
<path d="M232.087 172.71C232.087 172.71 234.145 170.796 237.493 167.777" stroke="#5E5E5E" stroke-width="0.75" stroke-linecap="round" stroke-linejoin="round"/>
<path d="M235.105 171.912L241.307 167.617" stroke="#5E5E5E" stroke-width="0.75" stroke-linecap="round" stroke-linejoin="round"/>
<path d="M228.287 143.635C228.287 143.635 226.421 141.927 222.38 144.726C218.34 147.525 206.369 155.764 205.916 157.472C205.464 159.18 223.794 176.124 225.193 177.057C226.592 177.99 228.623 176.748 228.623 176.748C228.623 176.748 234.262 177.434 234.578 176.81C234.893 176.186 232.417 173.25 230.859 172.475C229.302 171.699 225.577 173.847 225.577 173.847C225.577 173.847 218.031 165.375 216.495 162.418C215.865 161.121 215.138 159.873 214.32 158.686L226.757 151.538" fill="#B97964"/>
<path d="M228.287 143.635C228.287 143.635 226.421 141.927 222.38 144.726C218.34 147.525 206.369 155.764 205.916 157.472C205.464 159.18 223.794 176.124 225.193 177.057C226.592 177.99 228.623 176.748 228.623 176.748C228.623 176.748 234.262 177.434 234.578 176.81C234.893 176.186 232.417 173.25 230.859 172.475C229.302 171.699 225.577 173.847 225.577 173.847C225.577 173.847 218.031 165.375 216.495 162.418C215.865 161.121 215.138 159.873 214.32 158.686L226.757 151.538" stroke="#5E5E5E" stroke-linecap="round" stroke-linejoin="round"/>
<path d="M228.04 175.287L229.81 175.115L233.068 176.659" stroke="#5E5E5E" stroke-width="0.75" stroke-linecap="round" stroke-linejoin="round"/>
<path d="M228.095 174.088C228.095 174.088 229.81 173.574 230.667 174.088C231.525 174.603 233.754 175.803 233.754 175.803" stroke="#5E5E5E" stroke-width="0.75" stroke-linecap="round" stroke-linejoin="round"/>
<path d="M228.548 173.092C228.548 173.092 230.379 172.797 231.113 173.092C231.855 173.496 232.546 173.986 233.171 174.553" stroke="#5E5E5E" stroke-width="0.75" stroke-linecap="round" stroke-linejoin="round"/>
<path d="M224.713 152.807H228.445" stroke="#5E5E5E" stroke-linecap="round" stroke-linejoin="round"/>
<path d="M262.052 147.697L258.279 156.574C258.211 156.731 258.182 156.903 258.195 157.074C258.209 157.245 258.263 157.41 258.354 157.555L258.986 158.57C259.086 158.733 259.229 158.866 259.398 158.954C259.568 159.043 259.758 159.084 259.949 159.074C260.14 159.063 260.325 159.001 260.484 158.895C260.642 158.788 260.77 158.64 260.851 158.467L265.07 149.618C265.167 149.416 265.197 149.189 265.158 148.969C265.119 148.748 265.011 148.546 264.851 148.39L263.774 147.354C263.65 147.233 263.499 147.144 263.333 147.095C263.167 147.046 262.992 147.037 262.822 147.071C262.653 147.105 262.494 147.18 262.36 147.289C262.225 147.398 262.12 147.538 262.052 147.697Z" fill="#5E5E5E"/>
<path d="M257.105 160.353C257.46 159.452 258.077 158.678 258.875 158.131C259.803 157.688 260.782 157.366 261.791 157.17C261.791 157.17 262.827 153.555 263.307 154.111C263.787 154.666 263.595 157.452 263.595 157.452" fill="#B97964"/>
<path d="M257.105 160.353C257.46 159.452 258.077 158.678 258.875 158.131C259.803 157.688 260.782 157.366 261.791 157.17C261.791 157.17 262.827 153.555 263.307 154.111C263.787 154.666 263.595 157.452 263.595 157.452" stroke="#5E5E5E" stroke-linecap="round" stroke-linejoin="round"/>
<path d="M265.166 152.911C264.997 152.741 264.771 152.642 264.532 152.632C264.293 152.622 264.059 152.701 263.876 152.856C263.245 153.432 262.278 155.065 261.249 155.936" stroke="#5E5E5E" stroke-linecap="round" stroke-linejoin="round"/>
<path d="M196.113 250.582C196.113 250.582 190.474 253.573 188.458 256.516C186.441 259.459 188.087 261.105 191.949 259.822C195.811 258.54 197.513 252.139 197.513 252.139L196.113 250.582Z" fill="#B97964" stroke="#5E5E5E" stroke-linecap="round" stroke-linejoin="round"/>
<path d="M237.15 252.12C237.15 252.12 237.493 256.497 239.147 258.15C240.8 259.803 246.308 262.191 246.693 260.167C247.077 258.143 240.635 253.376 240.635 253.376L239.949 252.271L237.891 252.086L237.15 252.12Z" fill="#B97964" stroke="#5E5E5E" stroke-linecap="round" stroke-linejoin="round"/>
<path d="M247.358 133.496C246.973 133.65 246.631 133.893 246.359 134.206C246.087 134.518 245.893 134.891 245.794 135.293C245.516 136.149 245.408 137.051 245.478 137.948L243.297 137.64" stroke="#5E5E5E" stroke-linecap="round" stroke-linejoin="round"/>
<path d="M240.95 138.188C241.105 138.627 241.379 139.013 241.743 139.303C242.107 139.593 242.546 139.775 243.008 139.827" stroke="#5E5E5E" stroke-linecap="round" stroke-linejoin="round"/>
<path d="M242.515 131.623C242.515 131.623 244.312 130.374 245.869 131.547" stroke="#5E5E5E" stroke-linecap="round" stroke-linejoin="round"/>
<path d="M247.357 133.496C247.357 133.496 249.621 132.563 249.621 134.278" stroke="#5E5E5E" stroke-linecap="round" stroke-linejoin="round"/>
<path d="M180.788 83.2695H69.1141C68.3864 83.2695 67.6884 83.5586 67.1738 84.0732C66.6592 84.5878 66.3701 85.2858 66.3701 86.0135V158.73L80.536 142.43H180.788C181.151 142.43 181.511 142.358 181.846 142.218C182.181 142.078 182.485 141.873 182.741 141.614C182.996 141.356 183.197 141.049 183.333 140.712C183.469 140.376 183.537 140.015 183.532 139.652V86.0478C183.537 85.6846 183.469 85.3241 183.333 84.9872C183.197 84.6503 182.996 84.3438 182.741 84.0853C182.485 83.8269 182.181 83.6217 181.846 83.4816C181.511 83.3416 181.151 83.2695 180.788 83.2695Z" fill="#DDDDDD"/>
<path d="M107.215 113.933C107.215 112.731 106.858 111.556 106.19 110.556C105.522 109.556 104.572 108.777 103.461 108.317C102.35 107.858 101.127 107.738 99.9483 107.973C98.7691 108.208 97.6861 108.787 96.8364 109.638C95.9866 110.489 95.4083 111.572 95.1745 112.752C94.9408 113.931 95.0621 115.154 95.5232 116.264C95.9843 117.375 96.7644 118.323 97.7648 118.99C98.7652 119.657 99.941 120.013 101.143 120.011C101.941 120.011 102.731 119.854 103.468 119.549C104.205 119.243 104.875 118.795 105.439 118.231C106.003 117.666 106.45 116.996 106.754 116.259C107.059 115.521 107.215 114.731 107.215 113.933Z" fill="#C0C0C0"/>
<path d="M133.242 113.931C133.24 112.731 132.883 111.558 132.215 110.56C131.547 109.563 130.599 108.786 129.489 108.327C128.38 107.869 127.159 107.75 125.982 107.985C124.805 108.22 123.724 108.798 122.875 109.648C122.027 110.497 121.449 111.579 121.216 112.756C120.982 113.934 121.103 115.154 121.562 116.263C122.022 117.372 122.8 118.32 123.799 118.987C124.797 119.654 125.97 120.009 127.171 120.009C127.969 120.009 128.759 119.852 129.496 119.547C130.233 119.241 130.902 118.793 131.466 118.229C132.03 117.664 132.477 116.994 132.782 116.257C133.086 115.519 133.243 114.729 133.242 113.931Z" fill="#C0C0C0"/>
<path d="M159.275 113.933C159.275 112.731 158.919 111.556 158.251 110.557C157.583 109.557 156.634 108.778 155.523 108.318C154.412 107.858 153.19 107.738 152.011 107.972C150.832 108.207 149.749 108.786 148.899 109.636C148.049 110.486 147.47 111.569 147.236 112.748C147.001 113.927 147.122 115.149 147.582 116.259C148.042 117.37 148.821 118.319 149.82 118.987C150.82 119.655 151.995 120.011 153.197 120.011C153.995 120.011 154.786 119.854 155.523 119.549C156.26 119.243 156.93 118.796 157.495 118.231C158.059 117.667 158.507 116.997 158.812 116.259C159.118 115.522 159.275 114.732 159.275 113.933Z" fill="#C0C0C0"/>
<path d="M99.1818 53.7852L95.9507 61.2626C95.8381 61.4649 95.7696 61.6888 95.7494 61.9194C95.7293 62.1501 95.758 62.3825 95.8337 62.6013C95.9095 62.8201 96.0305 63.0205 96.189 63.1894C96.3475 63.3582 96.5397 63.4917 96.7533 63.5812L98.729 64.4456C100.567 64.6926 102.33 63.0736 102.783 62.4836L106.789 57.5924L99.1818 53.7852Z" fill="#B97964" stroke="#5E5E5E" stroke-linecap="round" stroke-linejoin="round"/>
<path d="M122.183 31.9825L108.333 37.5391V78.0748H138.256V38.2731L125.188 31.6875L122.183 31.9825Z" fill="#BDBDBD" stroke="#5E5E5E" stroke-linecap="round" stroke-linejoin="round"/>
<path d="M131.656 36.5932C130.806 35.6191 130.806 31.7089 130.806 31.7089L127.259 30.6113L124.268 30.9406L121.277 30.6113L117.737 31.7089C117.737 31.7089 117.737 35.6191 116.88 36.5932C116.022 37.5674 114.074 39.5225 114.074 39.5225C114.074 39.5225 114.561 40.133 116.132 38.4249C116.99 37.4611 118.026 36.6735 119.185 36.1062C119.176 36.8062 119.39 37.4909 119.795 38.0613C121.19 39.0564 122.64 39.9725 124.138 40.8053V40.9356L124.248 40.867L124.364 40.9356V40.8327C125.863 40.0015 127.313 39.0854 128.707 38.0887C129.112 37.5183 129.326 36.8336 129.317 36.1336C130.477 36.699 131.514 37.4868 132.37 38.4523C133.961 40.1604 134.428 39.5499 134.428 39.5499C134.428 39.5499 132.514 37.5742 131.656 36.5932Z" fill="#828282"/>
<path d="M120.64 29.3086V33.994L124.385 40.95L127.863 34.2615V29.4458L120.64 29.3086Z" fill="#B97964" stroke="#5E5E5E" stroke-linecap="round" stroke-linejoin="round"/>
<path d="M117.429 21.5501C117.429 21.5501 116.62 18.1956 115.824 19.8145C115.028 21.4335 117.429 24.7606 117.429 24.7606V21.5501Z" fill="#B97964" stroke="#5E5E5E" stroke-linecap="round" stroke-linejoin="round"/>
<path d="M131.073 21.4188C131.073 21.4188 132.946 19.1413 133.214 20.6162C133.481 22.0911 131.341 24.7322 131.341 24.7322L131.073 21.4188Z" fill="#B97964" stroke="#5E5E5E" stroke-linecap="round" stroke-linejoin="round"/>
<path d="M124.385 31.7158C122.54 31.7158 120.771 30.9829 119.466 29.6784C118.162 28.3739 117.429 26.6046 117.429 24.7597V10.8477H131.341V24.7597C131.341 26.6046 130.608 28.3739 129.303 29.6784C127.999 30.9829 126.23 31.7158 124.385 31.7158Z" fill="#B97964" stroke="#5E5E5E" stroke-linecap="round" stroke-linejoin="round"/>
<path d="M119.946 21.8164C119.946 21.8164 121.003 23.0855 122.834 21.8164H119.946Z" fill="#B97964"/>
<path d="M119.946 21.8164C119.946 21.8164 121.003 23.0855 122.834 21.8164" stroke="#5E5E5E" stroke-linecap="round" stroke-linejoin="round"/>
<path d="M125.729 21.8164C125.729 21.8164 126.786 23.0855 128.624 21.8164H125.729Z" fill="#B97964"/>
<path d="M125.729 21.8164C125.729 21.8164 126.786 23.0855 128.624 21.8164" stroke="#5E5E5E" stroke-linecap="round" stroke-linejoin="round"/>
<path d="M119.769 19.7176C119.769 19.7176 120.825 17.7762 123.116 19.2442" stroke="#5E5E5E" stroke-linecap="round" stroke-linejoin="round"/>
<path d="M125.174 19.3074C125.174 19.3074 125.524 18.4842 127.115 18.4842C127.524 18.4578 127.93 18.571 128.267 18.8053C128.603 19.0395 128.85 19.381 128.967 19.7739" stroke="#5E5E5E" stroke-linecap="round" stroke-linejoin="round"/>
<path d="M123.116 25.5898L124.234 26.2347L125.229 25.6516" stroke="#5E5E5E" stroke-linecap="round" stroke-linejoin="round"/>
<path d="M121.586 26.5293C121.932 26.9465 122.421 27.2203 122.958 27.2976" stroke="#5E5E5E" stroke-linecap="round" stroke-linejoin="round"/>
<path d="M130.806 15.5323L131.074 21.4182C131.074 21.4182 131.204 22.2208 131.472 20.6155C131.739 19.0103 133.084 14.5925 132.81 13.2548C132.535 11.9171 130.669 11.8828 129.867 12.3218C129.064 12.7608 130.806 15.5323 130.806 15.5323Z" fill="#263238" stroke="#263238" stroke-linecap="round" stroke-linejoin="round"/>
<path d="M117.429 19.8136C117.429 19.8136 116.626 13.6396 116.221 10.4497C115.817 7.25982 120.104 6.9717 120.104 6.9717C120.104 6.9717 123.047 4.55698 128.665 3.89156C134.284 3.22614 136.959 5.26356 136.822 6.70416C136.685 8.14476 133.481 9.24236 133.481 9.24236C133.481 9.24236 137.357 9.6471 135.086 11.7874C132.816 13.9277 130.668 13.7905 130.668 13.7905C130.668 13.7905 132.678 14.7304 131.471 15.3958C130.264 16.0612 121.709 13.523 121.709 13.523C121.709 13.523 121.977 15.1282 120.769 15.533C119.562 15.9377 119.164 15.8005 119.034 16.4659C118.904 17.1314 118.897 21.1513 118.231 21.5492C117.566 21.9471 117.429 19.8136 117.429 19.8136Z" fill="#263238" stroke="#263238" stroke-linecap="round" stroke-linejoin="round"/>
<path d="M108.257 37.7109L97.5146 55.2725L107.174 59.2239L108.257 53.6604V37.7109Z" fill="#BDBDBD" stroke="#5E5E5E" stroke-linecap="round" stroke-linejoin="round"/>
<path d="M149.315 54.3672L152.217 59.5876C152.329 59.79 152.398 60.0139 152.418 60.2445C152.438 60.4752 152.409 60.7076 152.333 60.9264C152.258 61.1452 152.137 61.3456 151.978 61.5145C151.82 61.6833 151.627 61.8168 151.414 61.9063L147.298 63.6282C146.958 63.7691 146.581 63.7924 146.227 63.6942C145.873 63.5959 145.561 63.3819 145.343 63.0863L141.714 58.1745L149.315 54.3672Z" fill="#B97964" stroke="#5E5E5E" stroke-linecap="round" stroke-linejoin="round"/>
<path d="M138.256 38.2734L150.48 54.662L140.972 59.0524L138.256 54.4013V38.2734Z" fill="#BDBDBD" stroke="#5E5E5E" stroke-linecap="round" stroke-linejoin="round"/>
<path d="M95.6901 61.3235C96.0674 60.1299 96.5476 59.2655 100.767 57.4476C104.985 55.6297 111.221 53.7569 113.005 51.8773C113.307 51.2667 118.774 45.621 118.774 45.621C118.774 45.621 120.715 45.2917 121.072 45.1751C121.977 45.1096 122.887 45.1859 123.768 45.4014C124.269 45.5798 124.317 45.8611 124.111 45.9845C123.561 46.1251 123.002 46.2283 122.437 46.2932L122.266 46.3824C122.981 46.965 123.619 47.6357 124.166 48.3787C124.228 48.5708 124.379 48.5913 123.994 48.7217C123.61 48.852 122.389 47.9808 122.389 47.9808H121.264L122.691 48.852C122.691 48.852 124.063 50.176 123.59 50.471C123.116 50.766 122.972 50.7522 122.904 50.471C122.835 50.1897 121.895 49.5929 121.895 49.5929L119.975 49.3871C120.583 49.748 121.169 50.1442 121.731 50.5739C122.004 50.8748 122.254 51.1958 122.478 51.5343C122.478 51.5343 122.307 52.0899 121.69 51.7264C121.072 51.3628 120.064 50.7111 120.064 50.7111L119.234 50.5602C118.373 51.5268 117.456 52.443 116.49 53.3041C116.051 53.5508 115.573 53.718 115.076 53.7981V53.853C112.85 56.6496 110.267 59.1427 107.393 61.2686C103.03 64.3693 99.8473 65.659 98.3861 65.3846C96.9249 65.1102 95.306 62.5171 95.6901 61.3235Z" fill="#B97964" stroke="#5E5E5E" stroke-linecap="round" stroke-linejoin="round"/>
<path d="M121.278 47.9663L118.904 47.5547" stroke="#5E5E5E" stroke-width="0.75" stroke-linecap="round" stroke-linejoin="round"/>
<path d="M119.974 49.4021L118.438 49.2031" stroke="#5E5E5E" stroke-width="0.75" stroke-linecap="round" stroke-linejoin="round"/>
<path d="M122.286 46.3684L119.658 46.3066" stroke="#5E5E5E" stroke-width="0.75" stroke-linecap="round" stroke-linejoin="round"/>
<path d="M106.542 75.1328H140.081V75.4209C140.081 78.6049 138.816 81.6584 136.564 83.9098C134.313 86.1611 131.259 87.4259 128.076 87.4259H118.547C115.363 87.4259 112.31 86.1611 110.058 83.9098C107.807 81.6584 106.542 78.6049 106.542 75.4209V75.1328Z" fill="#5E5E5E" stroke="#5E5E5E" stroke-linecap="round" stroke-linejoin="round"/>
<path d="M130.052 116.8C130.052 116.8 131.616 121.677 133.564 123.626C135.512 125.574 138.833 125.972 138.64 122.459C138.448 118.947 133.955 114.852 133.955 114.852C133.955 114.852 130.052 115.044 130.052 116.8Z" fill="#B97964" stroke="#5E5E5E" stroke-linecap="round" stroke-linejoin="round"/>
<path d="M133.955 114.851C133.955 114.851 122.643 92.8027 119.515 86.3612C116.386 79.9196 113.08 73.0939 109.959 71.9552C106.837 70.8164 101.96 74.0955 102.742 79.755C103.524 85.4145 110.933 95.1694 114.445 99.649C117.957 104.129 130.052 116.799 130.052 116.799C130.052 116.799 132.398 117.581 133.955 114.851Z" fill="#5E5E5E" stroke="#5E5E5E" stroke-linecap="round" stroke-linejoin="round"/>
<path d="M114.432 116.8C114.432 116.8 112.868 121.677 110.919 123.626C108.971 125.574 105.651 125.972 105.843 122.459C106.035 118.947 110.528 114.852 110.528 114.852C110.528 114.852 114.432 115.044 114.432 116.8Z" fill="#B97964" stroke="#5E5E5E" stroke-linecap="round" stroke-linejoin="round"/>
<path d="M110.528 114.851C110.528 114.851 121.84 92.8027 124.934 86.3612C128.028 79.9196 131.376 73.0939 134.497 71.9552C137.618 70.8164 142.496 74.0955 141.714 79.755C140.932 85.4145 133.523 95.1694 130.011 99.649C126.498 104.129 114.404 116.799 114.404 116.799C114.404 116.799 112.086 117.581 110.528 114.851Z" fill="#5E5E5E" stroke="#5E5E5E" stroke-linecap="round" stroke-linejoin="round"/>
<path d="M141.563 80.6214C141.199 80.0383 140.424 79.6473 139.045 79.3729C137.269 79.0162 133.084 79.0916 128.474 79.3729C127.287 81.5475 126.114 83.9691 124.962 86.3358C121.84 92.7773 110.556 114.825 110.556 114.825C112.113 117.569 114.459 116.774 114.459 116.774C114.459 116.774 126.553 104.089 130.066 99.6236C133.372 95.3704 140.218 86.3632 141.563 80.6214Z" stroke="#5E5E5E" stroke-linecap="round" stroke-linejoin="round"/>
<path d="M121.284 47.0547H126.375C126.768 47.0547 127.144 47.2108 127.422 47.4887C127.7 47.7666 127.856 48.1435 127.856 48.5365V60.3837C127.856 60.7312 127.718 61.0644 127.473 61.3102C127.227 61.5559 126.894 61.6939 126.546 61.6939H121.113C120.765 61.6939 120.432 61.5559 120.187 61.3102C119.941 61.0644 119.803 60.7312 119.803 60.3837V48.5296C119.805 48.1378 119.961 47.7627 120.239 47.4863C120.517 47.2099 120.893 47.0547 121.284 47.0547Z" fill="#263238"/>
<path d="M153.21 60.8077C152.47 59.7993 151.749 59.1613 147.167 58.7497C142.584 58.3381 136.081 58.5782 133.79 57.3777C133.31 56.8975 126.333 53.2617 126.333 53.2617C126.333 53.2617 124.378 53.5704 124.007 53.5704C123.128 53.7971 122.29 54.1605 121.524 54.6474C121.106 54.9699 121.154 55.2511 121.387 55.2991C121.952 55.2613 122.514 55.1834 123.068 55.0659H123.26C122.768 55.8388 122.376 56.6709 122.093 57.5424C122.093 57.7482 121.963 57.8168 122.368 57.8168C122.773 57.8168 123.651 56.6025 123.651 56.6025L124.728 56.2595L123.651 57.5424C123.651 57.5424 122.773 59.2299 123.308 59.3671C123.843 59.5043 123.994 59.4289 123.994 59.1613C124.161 58.746 124.393 58.3595 124.68 58.0157L126.436 57.2062C125.973 57.7413 125.545 58.305 125.153 58.8938C124.988 59.2644 124.853 59.6474 124.748 60.0394C124.748 60.0394 125.084 60.5127 125.558 59.9708C126.031 59.4289 126.772 58.489 126.772 58.489L127.513 58.0843C128.645 58.7373 129.816 59.3215 131.018 59.8336C131.513 59.9249 132.02 59.9249 132.514 59.8336V59.8816C135.517 61.821 138.759 63.3614 142.159 64.4641C147.283 66.0145 150.727 66.2203 152.003 65.4794C153.279 64.7385 153.958 61.823 153.21 60.8077Z" fill="#B97964" stroke="#5E5E5E" stroke-linecap="round" stroke-linejoin="round"/>
<path d="M124.708 56.295L126.828 55.1562" stroke="#5E5E5E" stroke-width="0.75" stroke-linecap="round" stroke-linejoin="round"/>
<path d="M126.396 57.2416L127.788 56.5625" stroke="#5E5E5E" stroke-width="0.75" stroke-linecap="round" stroke-linejoin="round"/>
<path d="M123.239 55.1027L125.709 54.2109" stroke="#5E5E5E" stroke-width="0.75" stroke-linecap="round" stroke-linejoin="round"/>
<path d="M118.678 84.668L111.626 85.354L120.318 98.0655L118.26 104.102C120.091 106.16 122.204 108.452 124.132 110.523L126.08 109.151C126.08 109.151 128.906 113.116 131.753 116.697C132.692 116.367 133.466 115.686 133.914 114.797C133.914 114.797 122.602 92.749 119.474 86.3075C119.247 85.7999 118.966 85.2305 118.678 84.668Z" stroke="#5E5E5E" stroke-linecap="round" stroke-linejoin="round"/>
<path opacity="0.2" d="M144.06 83.2695H110.652L121.161 100.056C121.161 100.056 109.499 117.933 109.499 120.073C109.499 122.214 109.89 128.628 112.998 127.263C116.105 125.898 113.78 118.516 114.555 116.973C115.33 115.429 124.159 109.008 124.159 109.008C124.159 109.008 130.1 112.109 131.78 115.182C133.461 118.256 133.982 123.16 135.54 126.275C137.097 129.389 140.98 130.357 140.98 127.242C140.98 124.128 128.734 101.394 128.734 101.394C128.734 101.394 131.478 98.2861 137.481 91.872C139.98 89.252 142.186 86.3675 144.06 83.2695Z" fill="#5E5E5E"/>
</svg>
