<svg width="12" height="20" viewBox="0 0 12 20" fill="none" xmlns="http://www.w3.org/2000/svg">
<path d="M7.27275 10L11.1187 5.99375L11.9119 5.16758C12.0289 5.0457 12.0289 4.84766 11.9119 4.72578L11.0632 3.8418C10.9462 3.71992 10.7561 3.71992 10.6391 3.8418L6 8.67422L1.36088 3.84141C1.24387 3.71953 1.05375 3.71953 0.93675 3.84141L0.08775 4.72539C-0.02925 4.84727 -0.02925 5.04531 0.08775 5.16719L4.72725 10L0.08775 14.8324C-0.02925 14.9543 -0.02925 15.1523 0.08775 15.2742L0.936375 16.1582C1.05337 16.2801 1.2435 16.2801 1.3605 16.1582L6 11.3258L9.846 15.332L10.6391 16.1582C10.7561 16.2801 10.9462 16.2801 11.0632 16.1582L11.9119 15.2742C12.0289 15.1523 12.0289 14.9543 11.9119 14.8324L7.27275 10Z" fill="#F96060"/>
</svg>
