<svg width="246" height="405" viewBox="0 0 246 405" fill="none" xmlns="http://www.w3.org/2000/svg">
<path d="M169.5 405C211.75 405 246 402.985 246 400.5C246 398.015 211.75 396 169.5 396C127.25 396 93 398.015 93 400.5C93 402.985 127.25 405 169.5 405Z" fill="#F5F5F5"/>
<path d="M117.354 7.03906H16.2231C11.4486 7.03906 7.57812 10.9096 7.57812 15.684V79.3713C7.57812 84.1458 11.4486 88.0163 16.2231 88.0163H117.354C122.128 88.0163 125.999 84.1458 125.999 79.3713V15.684C125.999 10.9096 122.128 7.03906 117.354 7.03906Z" fill="#ABAEB6"/>
<path d="M4.81294 6.1063C4.61045 6.10545 4.41639 6.02506 4.27262 5.88246L2.88326 4.5008C2.73791 4.35545 2.65625 4.15833 2.65625 3.95278C2.65625 3.74722 2.73791 3.55009 2.88326 3.40474C3.0286 3.25939 3.22573 3.17773 3.43128 3.17773C3.63683 3.17773 3.83397 3.25939 3.97932 3.40474L5.36096 4.79412C5.50473 4.93874 5.58543 5.13437 5.58543 5.33829C5.58543 5.54221 5.50473 5.73784 5.36096 5.88246C5.28884 5.954 5.2033 6.01059 5.10926 6.049C5.01522 6.08741 4.91452 6.10688 4.81294 6.1063Z" fill="#ABAEB6"/>
<path d="M2.72471 10.9559H0.771874C0.56716 10.9559 0.37083 10.8745 0.226076 10.7298C0.0813216 10.585 0 10.3887 0 10.184C0 9.97927 0.0813216 9.78294 0.226076 9.63819C0.37083 9.49343 0.56716 9.41211 0.771874 9.41211H2.72471C2.92943 9.41211 3.12576 9.49343 3.27051 9.63819C3.41526 9.78294 3.49659 9.97927 3.49659 10.184C3.49659 10.3887 3.41526 10.585 3.27051 10.7298C3.12576 10.8745 2.92943 10.9559 2.72471 10.9559Z" fill="#ABAEB6"/>
<path d="M9.73315 4.02348C9.53746 4.02396 9.34889 3.95009 9.20559 3.81682C9.0623 3.68356 8.97497 3.50084 8.96127 3.30563L8.82233 1.35279C8.81498 1.25137 8.82775 1.14951 8.85989 1.05304C8.89203 0.956575 8.94291 0.867403 9.00961 0.790657C9.07631 0.713912 9.15753 0.651105 9.24858 0.605839C9.33963 0.560574 9.43873 0.533744 9.54018 0.526892C9.74373 0.514183 9.94404 0.582543 10.0973 0.717046C10.2506 0.851549 10.3445 1.04126 10.3584 1.24473L10.505 3.19757C10.5124 3.29898 10.4996 3.40086 10.4675 3.49733C10.4353 3.5938 10.3844 3.68297 10.3177 3.75971C10.251 3.83646 10.1698 3.89927 10.0788 3.94453C9.98773 3.9898 9.88862 4.01663 9.78717 4.02348H9.73315Z" fill="#ABAEB6"/>
<path d="M75.4258 79.6875L106.478 110.732V79.6875H75.4258Z" fill="#ABAEB6"/>
<path d="M83.9412 66.0915L82.3974 59.5383C82.0076 57.8157 82.0076 56.0277 82.3974 54.305L84.5432 44.9731C85.4212 40.9936 84.9458 36.8349 83.1924 33.1562C81.4391 29.4775 78.5081 26.4893 74.8639 24.6651C74.9323 24.4934 74.9916 24.3182 75.0415 24.1402C75.1682 23.5741 75.1821 22.9886 75.0826 22.4171C74.983 21.8456 74.7718 21.2993 74.4611 20.8094C74.1504 20.3195 73.7462 19.8955 73.2717 19.5618C72.7971 19.2281 72.2615 18.9912 71.6954 18.8645C71.1293 18.7378 70.5438 18.7238 69.9722 18.8234C69.4007 18.923 68.8544 19.1342 68.3645 19.4449C67.8746 19.7556 67.4507 20.1597 67.117 20.6343C66.7833 21.1088 66.5463 21.6444 66.4196 22.2105C66.3813 22.391 66.3581 22.5743 66.3502 22.7586C62.2765 22.8542 58.3512 24.3059 55.1957 26.884C52.0402 29.4621 49.8349 33.0191 48.929 36.9919L46.8372 46.3316C46.453 48.0512 45.6881 49.6628 44.5988 51.0477L40.4384 56.3351C40.0315 56.8537 39.7624 57.4669 39.6564 58.1176C39.5503 58.7682 39.6106 59.4351 39.8318 60.0561C40.0529 60.6772 40.4276 61.2321 40.9211 61.6693C41.4145 62.1065 42.0105 62.4116 42.6537 62.5564L79.3177 70.7691C79.9586 70.9076 80.6241 70.8822 81.2526 70.6952C81.8811 70.5082 82.4523 70.1657 82.9132 69.6993C83.3742 69.233 83.7101 68.6578 83.8897 68.0272C84.0694 67.3966 84.0871 66.7308 83.9412 66.0915Z" fill="white"/>
<path d="M56.2553 68.115C55.9764 68.0535 55.6866 68.0617 55.4117 68.1389C55.1368 68.2161 54.8851 68.3599 54.679 68.5576C54.4729 68.7553 54.3188 69.0008 54.2302 69.2723C54.1416 69.5438 54.1213 69.8329 54.1712 70.1141C54.3817 71.3544 54.9567 72.504 55.8227 73.4164C56.6888 74.3288 57.8069 74.9628 59.0345 75.2376C60.2621 75.5125 61.5438 75.4157 62.7162 74.9596C63.8887 74.5036 64.8988 73.7089 65.6181 72.6767C65.7824 72.4441 65.887 72.1747 65.9226 71.8921C65.9582 71.6095 65.9238 71.3225 65.8224 71.0564C65.721 70.7902 65.5557 70.5531 65.341 70.3659C65.1264 70.1787 64.869 70.0472 64.5915 69.9829L56.2553 68.115Z" fill="white"/>
<path d="M28.1 55.1234C27.9087 55.1249 27.7202 55.0783 27.5516 54.9879C27.383 54.8976 27.2398 54.7663 27.1352 54.6062C23.4896 49.1444 22.1628 42.4581 23.4468 36.0181C24.7307 29.578 28.5202 23.9118 33.9817 20.2656C34.2376 20.0957 34.5505 20.0344 34.8516 20.0952C35.1527 20.156 35.4173 20.3339 35.5872 20.5898C35.7571 20.8457 35.8184 21.1586 35.7576 21.4597C35.6968 21.7608 35.5189 22.0254 35.263 22.1953C30.3189 25.5067 26.8914 30.6454 25.7336 36.4823C24.5758 42.3192 25.7822 48.377 29.088 53.3249C29.2587 53.5799 29.3213 53.8921 29.262 54.1932C29.2027 54.4942 29.0263 54.7594 28.7715 54.9304C28.5725 55.0615 28.3382 55.1288 28.1 55.1234V55.1234Z" fill="white"/>
<path d="M32.9957 51.8324C32.806 51.8312 32.6195 51.7834 32.4526 51.6932C32.2857 51.603 32.1435 51.4732 32.0386 51.3152C29.2638 47.1545 28.2539 42.0625 29.2308 37.1577C30.2077 32.2529 33.0915 27.9364 37.2487 25.1564C37.3754 25.0718 37.5175 25.0129 37.667 24.9832C37.8164 24.9535 37.9703 24.9535 38.1197 24.9833C38.2692 25.013 38.4113 25.0719 38.538 25.1566C38.6647 25.2412 38.7734 25.35 38.8581 25.4767C38.9427 25.6034 39.0016 25.7456 39.0313 25.895C39.061 26.0445 39.061 26.1983 39.0312 26.3478C39.0015 26.4972 38.9426 26.6393 38.8579 26.766C38.7732 26.8927 38.6644 27.0014 38.5377 27.0861C34.8888 29.5212 32.3567 33.3061 31.4983 37.6082C30.6399 41.9103 31.5256 46.3771 33.9605 50.0262C34.1313 50.2811 34.1939 50.5934 34.1345 50.8944C34.0752 51.1954 33.8988 51.4606 33.6441 51.6317C33.452 51.7601 33.2267 51.8299 32.9957 51.8324Z" fill="white"/>
<path d="M37.9038 48.5552C37.7146 48.5562 37.5281 48.5102 37.361 48.4213C37.1939 48.3323 37.0516 48.2033 36.9467 48.0458C36.001 46.6297 35.3438 45.041 35.0128 43.3707C34.6817 41.7004 34.6833 39.9811 35.0174 38.3114C35.3514 36.6417 36.0115 35.0542 36.9598 33.6398C37.908 32.2255 39.1259 31.012 40.5437 30.0688C40.7985 29.9105 41.105 29.8573 41.3983 29.9205C41.6916 29.9837 41.949 30.1582 42.1161 30.4074C42.2833 30.6566 42.3471 30.961 42.2942 31.2564C42.2414 31.5517 42.0759 31.815 41.8327 31.9908C40.6698 32.767 39.6713 33.7648 38.8941 34.9271C38.117 36.0893 37.5764 37.3933 37.3033 38.7645C37.0302 40.1357 37.0299 41.5473 37.3025 42.9187C37.5751 44.29 38.1151 45.5942 38.8918 46.7567C39.0606 47.0123 39.122 47.3239 39.0627 47.6243C39.0035 47.9248 38.8284 48.1898 38.5754 48.3622C38.3763 48.4933 38.1421 48.5606 37.9038 48.5552Z" fill="white"/>
<path d="M94.8425 71.4006C94.5836 71.4 94.3324 71.3126 94.129 71.1524C93.9256 70.9923 93.7818 70.7686 93.7205 70.5171C93.6591 70.2655 93.6839 70.0007 93.7907 69.7649C93.8976 69.5291 94.0804 69.3359 94.3099 69.2162C99.5983 66.4838 103.585 61.7634 105.394 56.0925C107.204 50.4216 106.687 44.2644 103.958 38.9742C103.875 38.8384 103.821 38.687 103.8 38.5293C103.778 38.3717 103.789 38.2113 103.832 38.058C103.875 37.9048 103.949 37.7621 104.049 37.6388C104.15 37.5155 104.275 37.4142 104.416 37.3414C104.558 37.2685 104.713 37.2256 104.872 37.2153C105.03 37.205 105.19 37.2276 105.339 37.2816C105.489 37.3355 105.626 37.4198 105.742 37.5291C105.857 37.6384 105.949 37.7704 106.012 37.9167C107.502 40.8075 108.409 43.9637 108.679 47.2048C108.95 50.446 108.579 53.7088 107.589 56.8067C106.598 59.9047 105.007 62.7771 102.906 65.26C100.805 67.7429 98.2355 69.7875 95.3442 71.2771C95.1877 71.3536 95.0167 71.3957 94.8425 71.4006Z" fill="white"/>
<path d="M92.1355 66.1569C91.8766 66.1563 91.6254 66.0689 91.422 65.9088C91.2186 65.7486 91.0747 65.5249 91.0134 65.2734C90.9521 65.0219 90.9768 64.757 91.0837 64.5212C91.1905 64.2854 91.3734 64.0922 91.6029 63.9725C93.5344 62.9767 95.2507 61.6099 96.6536 59.9503C98.0564 58.2907 99.1183 56.3708 99.7786 54.3004C100.439 52.23 100.684 50.0498 100.501 47.8844C100.318 45.719 99.7103 43.611 98.7119 41.6808C98.5706 41.4075 98.5437 41.0893 98.6371 40.7962C98.7305 40.5031 98.9364 40.259 99.2097 40.1178C99.483 39.9765 99.8012 39.9496 100.094 40.043C100.387 40.1364 100.632 40.3424 100.773 40.6156C101.91 42.816 102.603 45.2189 102.812 47.6872C103.02 50.1555 102.74 52.6406 101.987 55.0005C101.234 57.3604 100.024 59.5488 98.4249 61.4406C96.8259 63.3324 94.8697 64.8905 92.6681 66.0257C92.5043 66.1133 92.3212 66.1584 92.1355 66.1569V66.1569Z" fill="white"/>
<path d="M89.4317 60.9156C89.1737 60.9114 88.9244 60.8217 88.7229 60.6606C88.5214 60.4995 88.379 60.2761 88.3181 60.0254C88.2572 59.7747 88.2812 59.5109 88.3863 59.2753C88.4915 59.0397 88.6718 58.8456 88.8991 58.7235C90.1418 58.084 91.2462 57.2056 92.1491 56.1388C93.0519 55.0719 93.7355 53.8374 94.1607 52.506C94.5858 51.1746 94.7442 49.7725 94.6268 48.3798C94.5093 46.9871 94.1184 45.6312 93.4763 44.3898C93.3351 44.1165 93.3082 43.7983 93.4015 43.5052C93.4949 43.2121 93.7009 42.968 93.9742 42.8268C94.2475 42.6855 94.5657 42.6586 94.8588 42.752C95.1519 42.8453 95.3959 43.0513 95.5372 43.3246C97.1081 46.3816 97.4019 49.937 96.3542 53.2104C95.3065 56.4838 93.0028 59.2077 89.9488 60.7844C89.7887 60.867 89.6118 60.9119 89.4317 60.9156V60.9156Z" fill="white"/>
<path d="M128.179 108.18H135.819C136.018 108.185 136.208 108.26 136.356 108.392C136.504 108.524 136.601 108.704 136.629 108.9L138.229 124.14C138.241 124.232 138.232 124.325 138.205 124.413C138.177 124.502 138.131 124.583 138.07 124.652C138.008 124.721 137.933 124.776 137.848 124.814C137.764 124.852 137.672 124.871 137.579 124.87H129.939C129.74 124.864 129.548 124.788 129.4 124.654C129.251 124.52 129.156 124.338 129.129 124.14L127.529 108.9C127.518 108.809 127.526 108.716 127.554 108.628C127.581 108.54 127.628 108.459 127.689 108.391C127.751 108.322 127.827 108.268 127.911 108.232C127.996 108.195 128.087 108.178 128.179 108.18Z" fill="#5E5E5E"/>
<path opacity="0.4" d="M128.869 108.179H135.819C136.018 108.184 136.208 108.259 136.356 108.391C136.504 108.523 136.601 108.703 136.629 108.899L138.229 124.139C138.241 124.231 138.232 124.324 138.205 124.413C138.177 124.501 138.131 124.583 138.07 124.652C138.008 124.721 137.933 124.776 137.848 124.813C137.764 124.851 137.672 124.87 137.579 124.869H130.579C130.381 124.864 130.191 124.787 130.044 124.653C129.897 124.519 129.803 124.337 129.779 124.139L128.179 108.899C128.165 108.804 128.173 108.707 128.202 108.615C128.231 108.523 128.281 108.439 128.348 108.37C128.414 108.3 128.496 108.247 128.586 108.214C128.677 108.181 128.774 108.169 128.869 108.179V108.179Z" fill="white"/>
<path d="M166.466 389.98C165.466 389.98 164.466 389.83 164.116 389.37C164.031 389.247 163.986 389.1 163.986 388.95C163.986 388.8 164.031 388.654 164.116 388.53C164.262 388.306 164.487 388.145 164.746 388.08C166.106 387.71 168.866 389.33 168.986 389.4C169.017 389.42 169.042 389.449 169.056 389.483C169.071 389.517 169.074 389.554 169.066 389.59C169.059 389.63 169.04 389.667 169.011 389.695C168.983 389.724 168.946 389.743 168.906 389.75C168.101 389.895 167.285 389.972 166.466 389.98ZM165.246 388.41C165.123 388.394 164.999 388.394 164.876 388.41C164.717 388.449 164.578 388.545 164.486 388.68C164.346 388.92 164.386 389.04 164.486 389.1C164.836 389.63 166.886 389.64 168.396 389.43C167.426 388.88 166.355 388.533 165.246 388.41V388.41Z" fill="#5E5E5E"/>
<path d="M168.929 389.75H168.849C167.849 389.31 166.029 387.56 166.219 386.64C166.219 386.43 166.429 386.16 166.959 386.11C167.146 386.089 167.336 386.107 167.517 386.162C167.697 386.217 167.865 386.308 168.009 386.43C169.009 387.28 169.119 389.43 169.129 389.55C169.13 389.585 169.122 389.62 169.107 389.651C169.091 389.683 169.068 389.71 169.039 389.73C169.005 389.747 168.967 389.754 168.929 389.75V389.75ZM167.089 386.47H166.979C166.629 386.47 166.599 386.64 166.599 386.68C166.479 387.23 167.739 388.61 168.709 389.21C168.648 388.292 168.298 387.417 167.709 386.71C167.536 386.562 167.317 386.477 167.089 386.47V386.47Z" fill="#5E5E5E"/>
<path d="M169.752 370.811H177.852V389.561H169.752V370.811Z" fill="#B97964"/>
<path d="M236.59 380.62L228.5 381.5L223.23 363.3L231.32 362.42L236.59 380.62Z" fill="#B97964"/>
<path d="M224.74 383.329C223.74 383.589 222.74 383.699 222.29 383.329C222.18 383.227 222.105 383.093 222.077 382.945C222.048 382.798 222.067 382.645 222.13 382.509C222.171 382.385 222.236 382.269 222.322 382.17C222.408 382.07 222.513 381.989 222.63 381.929C223.88 381.239 226.98 382.109 227.11 382.139C227.148 382.15 227.182 382.172 227.207 382.202C227.232 382.233 227.247 382.27 227.25 382.309C227.25 382.349 227.239 382.388 227.218 382.422C227.196 382.455 227.166 382.482 227.13 382.499C226.358 382.844 225.559 383.121 224.74 383.329V383.329ZM223.16 382.129C223.039 382.159 222.921 382.203 222.81 382.259C222.662 382.33 222.547 382.456 222.49 382.609C222.41 382.879 222.49 382.979 222.49 383.039C222.97 383.449 224.98 382.959 226.41 382.379C225.353 382.089 224.249 382.007 223.16 382.139V382.129Z" fill="#5E5E5E"/>
<path d="M227.09 382.521H227.01C226.01 382.331 223.71 381.111 223.67 380.191C223.67 379.971 223.75 379.671 224.26 379.491C224.44 379.426 224.631 379.398 224.821 379.408C225.012 379.419 225.199 379.467 225.37 379.551C226.55 380.121 227.21 382.181 227.24 382.261C227.257 382.289 227.266 382.322 227.266 382.356C227.266 382.389 227.257 382.422 227.24 382.451C227.223 382.474 227.201 382.493 227.174 382.505C227.148 382.517 227.119 382.523 227.09 382.521V382.521ZM224.49 379.831H224.37C224.04 379.951 224.05 380.091 224.05 380.131C224.05 380.691 225.65 381.701 226.75 382.031C226.473 381.166 225.927 380.412 225.19 379.881C224.971 379.78 224.722 379.762 224.49 379.831Z" fill="#5E5E5E"/>
<path d="M228.069 380.75L236.919 378.21C237.071 378.165 237.234 378.174 237.381 378.236C237.527 378.298 237.646 378.409 237.719 378.55L240.979 385.02C241.055 385.184 241.094 385.363 241.094 385.543C241.093 385.724 241.053 385.902 240.975 386.065C240.898 386.229 240.786 386.373 240.646 386.488C240.507 386.603 240.344 386.685 240.169 386.73C237.069 387.56 235.519 387.82 231.629 388.93C229.239 389.62 224.369 391.28 221.059 392.23C217.749 393.18 216.529 390.07 217.809 389.39C223.549 386.34 225.389 383.88 226.909 381.6C227.182 381.187 227.593 380.886 228.069 380.75V380.75Z" fill="#263238"/>
<path d="M169.838 388.619H178.678C178.837 388.617 178.992 388.673 179.113 388.776C179.234 388.879 179.314 389.022 179.338 389.179L180.628 396.329C180.657 396.508 180.647 396.69 180.599 396.864C180.55 397.038 180.465 397.2 180.348 397.338C180.231 397.476 180.085 397.586 179.922 397.663C179.758 397.739 179.579 397.779 179.398 397.779C176.208 397.719 171.608 397.529 167.598 397.529C162.908 397.529 160.348 397.789 154.848 397.789C151.528 397.789 150.748 394.429 152.158 394.119C158.548 392.739 162.238 392.589 167.858 389.209C168.455 388.843 169.138 388.639 169.838 388.619Z" fill="#263238"/>
<path opacity="0.2" d="M169.752 370.811H177.852V380.481H169.752V370.811Z" fill="black"/>
<path opacity="0.2" d="M231.319 362.43L223.229 363.3L226.159 373.4L234.039 371.81L231.319 362.43Z" fill="black"/>
<path d="M183.069 184.33C183.069 184.33 187.539 245.47 191.539 268.65C195.949 294.04 221.609 371.78 221.609 371.78L236.309 369.09C236.309 369.09 217.779 296.09 215.729 270.95C213.499 243.67 210.819 187.44 210.819 187.44L183.069 184.33Z" fill="#5E5E5E"/>
<path opacity="0.3" d="M190.6 209.73C189.8 206.37 187.96 210.6 185.82 217.93C187.44 236.07 189.55 257.08 191.57 268.66C192.02 271.25 192.7 274.39 193.57 277.95C192.8 252.07 192.77 218.82 190.6 209.73Z" fill="black"/>
<path d="M167.799 182.67C167.799 182.67 161.929 244.13 161.729 268.82C161.519 294.51 166.809 378.61 166.809 378.61H180.539C180.539 378.61 184.659 296.01 186.369 270.78C188.239 243.28 196.109 185.78 196.109 185.78L167.799 182.67Z" fill="#5E5E5E"/>
<path d="M218.541 366.831C218.481 366.831 220.851 372.161 220.851 372.161L237.391 369.161L236.391 364.211L218.541 366.831Z" fill="#263238"/>
<path d="M164.407 373.141C164.347 373.141 164.937 378.841 164.937 378.841H181.617L182.297 373.761L164.407 373.141Z" fill="#263238"/>
<path d="M210.419 127.891C211.519 130.021 212.729 132.261 213.829 134.471L217.189 141.131C218.279 143.351 219.349 145.581 220.379 147.811C221.409 150.041 222.379 152.261 223.209 154.481L223.289 150.981C222.704 152.778 222.003 154.535 221.189 156.241C220.799 157.121 220.299 157.961 219.869 158.831C219.439 159.701 218.869 160.531 218.359 161.351C217.298 163.046 216.15 164.684 214.919 166.261C214.299 167.051 213.679 167.861 213.019 168.621C212.359 169.381 211.639 170.171 211.019 170.821L210.819 171.041C210.358 171.546 210.093 172.2 210.07 172.884C210.047 173.568 210.268 174.237 210.694 174.773C211.12 175.308 211.723 175.674 212.395 175.806C213.066 175.938 213.762 175.826 214.359 175.491C215.393 174.908 216.394 174.271 217.359 173.581C218.359 172.921 219.239 172.231 220.139 171.501C221.941 170.023 223.632 168.415 225.199 166.691C226.799 164.938 228.253 163.059 229.549 161.071C230.88 159.045 232.037 156.911 233.009 154.691C233.437 153.748 233.511 152.683 233.219 151.691L233.079 151.221C232.319 148.611 231.469 146.081 230.529 143.601C229.589 141.121 228.589 138.691 227.529 136.301C226.469 133.911 225.359 131.551 224.189 129.221C223.019 126.891 221.839 124.611 220.489 122.281C219.743 120.947 218.501 119.962 217.032 119.539C215.564 119.116 213.988 119.29 212.647 120.022C211.306 120.755 210.308 121.987 209.87 123.451C209.433 124.915 209.59 126.492 210.309 127.841L210.419 127.891Z" fill="#B97964"/>
<path d="M204.68 124.33C204.28 131.96 212.94 145.97 212.94 145.97L230.77 137.06C228.603 130.74 225.249 124.892 220.89 119.83C211.46 109.41 205.05 117.33 204.68 124.33Z" fill="#ABAEB6"/>
<path d="M216.758 174.06L213.168 180.06L205.698 175.28C207.002 172.942 209.046 171.103 211.508 170.05C212.077 169.868 212.693 169.896 213.243 170.129C213.793 170.362 214.242 170.785 214.508 171.32L216.758 174.06Z" fill="#B97964"/>
<path d="M210.182 182.62L206.712 181.97C206.42 181.916 206.141 181.805 205.892 181.643C205.644 181.48 205.429 181.271 205.262 181.025C205.095 180.78 204.977 180.503 204.917 180.213C204.857 179.922 204.855 179.622 204.912 179.33L205.702 175.33L213.172 180.11L212.672 181.32C212.467 181.788 212.109 182.172 211.656 182.409C211.203 182.645 210.683 182.72 210.182 182.62V182.62Z" fill="#B97964"/>
<path d="M189.111 85.9895C189.041 86.6395 188.631 87.1495 188.211 87.1095C187.791 87.0695 187.511 86.5195 187.591 85.8695C187.671 85.2195 188.071 84.7095 188.491 84.7395C188.911 84.7695 189.191 85.3295 189.111 85.9895Z" fill="#263238"/>
<path d="M188.688 87.1504C187.676 89.0926 186.415 90.8945 184.938 92.5104C185.938 93.6804 187.938 93.3404 187.938 93.3404L188.688 87.1504Z" fill="#B97964"/>
<path d="M191.91 82.5392C191.858 82.547 191.805 82.5429 191.755 82.5273C191.705 82.5117 191.659 82.485 191.62 82.4492C191.273 82.1245 190.852 81.89 190.394 81.7662C189.935 81.6424 189.453 81.6331 188.99 81.7392C188.943 81.7543 188.893 81.7595 188.844 81.7545C188.794 81.7494 188.746 81.7342 188.703 81.7097C188.66 81.6853 188.622 81.6523 188.593 81.6126C188.563 81.5729 188.541 81.5275 188.53 81.4792C188.505 81.3799 188.519 81.2747 188.569 81.1854C188.62 81.096 188.702 81.0294 188.8 80.9992C189.385 80.8597 189.995 80.8651 190.577 81.015C191.159 81.1649 191.696 81.4547 192.14 81.8592C192.177 81.8947 192.207 81.9374 192.227 81.9847C192.247 82.0319 192.258 82.0828 192.258 82.1342C192.258 82.1856 192.247 82.2365 192.227 82.2838C192.207 82.3311 192.177 82.3737 192.14 82.4092C192.112 82.4451 192.078 82.4752 192.038 82.4975C191.999 82.5198 191.955 82.534 191.91 82.5392Z" fill="#263238"/>
<path d="M209.27 93.2305C207.36 99.0205 204.82 109.69 208.44 113.97C208.44 113.97 206.06 119.8 195.1 118.87C183.03 117.87 190.1 112.42 190.1 112.42C196.88 111.42 197.34 106.53 196.78 101.86L209.27 93.2305Z" fill="#B97964"/>
<path d="M211.029 116.081C212.159 114.271 213.419 112.201 211.279 111.431C208.929 110.581 195.729 109.201 191.029 110.361C186.329 111.521 187.289 115.361 187.289 115.361L211.029 116.081Z" fill="#5E5E5E"/>
<path d="M172.38 118.52C170.66 120.1 168.8 121.85 166.95 123.45C165.1 125.05 163.23 126.69 161.35 128.27C159.47 129.85 157.55 131.34 155.62 132.79C153.69 134.24 151.73 135.56 149.77 136.79L153.77 136.41C152.108 135.966 150.535 135.239 149.12 134.26C147.467 133.105 145.933 131.788 144.54 130.33C143.039 128.794 141.633 127.167 140.33 125.46C139.66 124.59 138.99 123.71 138.33 122.8C137.67 121.89 137.07 120.93 136.52 120.09L136.41 119.93C136.031 119.35 135.455 118.926 134.788 118.735C134.122 118.544 133.409 118.599 132.78 118.89C132.15 119.181 131.646 119.688 131.36 120.32C131.074 120.951 131.024 121.665 131.22 122.33C131.6 123.63 132 124.74 132.46 125.9C132.92 127.06 133.4 128.2 133.94 129.32C135.035 131.604 136.316 133.795 137.77 135.87C139.297 138.07 141.076 140.084 143.07 141.87C145.278 143.841 147.84 145.375 150.62 146.39C151.217 146.6 151.85 146.69 152.481 146.654C153.113 146.618 153.731 146.457 154.3 146.18L154.63 146.01C157.113 144.79 159.524 143.427 161.85 141.93C164.12 140.46 166.32 138.93 168.44 137.29C170.56 135.65 172.61 133.99 174.61 132.29C176.61 130.59 178.53 128.81 180.48 126.82C181.518 125.738 182.096 124.295 182.094 122.796C182.091 121.297 181.508 119.857 180.467 118.778C179.426 117.699 178.007 117.065 176.509 117.01C175.01 116.954 173.549 117.481 172.43 118.48L172.38 118.52Z" fill="#B97964"/>
<path d="M178.49 113.33C178.49 113.33 168.41 123.11 167.24 183.6C183.36 187.51 198.87 188.95 210.85 187.43C211.42 179.84 212.27 153.5 219.97 125.73C220.301 124.561 220.385 123.335 220.217 122.131C220.048 120.927 219.632 119.772 218.994 118.737C218.355 117.703 217.509 116.813 216.508 116.123C215.507 115.433 214.374 114.959 213.18 114.73C211.65 114.43 210.04 114.16 208.44 113.95C202.361 113.081 196.238 112.563 190.1 112.4C186.213 112.432 182.333 112.743 178.49 113.33Z" fill="#ABAEB6"/>
<path d="M186.312 123.871C185.312 131.441 172.312 145.991 172.312 145.991L156.882 129.991C161.465 125.178 166.421 120.735 171.702 116.701C183.012 108.251 187.212 116.851 186.312 123.871Z" fill="#ABAEB6"/>
<path d="M132.217 124.99L127.057 120.26L133.237 113.91C135.282 115.651 136.689 118.022 137.237 120.65C137.298 121.251 137.139 121.853 136.789 122.346C136.44 122.839 135.924 123.188 135.337 123.33L132.217 124.99Z" fill="#B97964"/>
<path d="M125.161 116.821L126.491 113.551C126.604 113.27 126.772 113.015 126.985 112.801C127.198 112.586 127.451 112.416 127.731 112.302C128.011 112.187 128.311 112.13 128.613 112.133C128.916 112.136 129.214 112.2 129.491 112.321L133.281 113.911L127.101 120.261L126.021 119.531C125.588 119.247 125.266 118.823 125.109 118.329C124.952 117.835 124.971 117.303 125.161 116.821V116.821Z" fill="#B97964"/>
<path d="M210.81 86.3293C209.36 94.3293 208.92 99.0693 204.42 102.879C197.65 108.609 188.31 104.149 187.42 95.9793C186.58 88.6193 189.09 76.7693 197.23 74.1893C205.37 71.6093 212.26 78.3293 210.81 86.3293Z" fill="#B97964"/>
<path d="M195.04 89.21C192.23 89.85 190.04 86.6 189.74 85.68C191.11 85.81 193.54 85.11 194.02 84.49C192.52 84.62 191.07 82.77 190.89 82.06C192.481 81.7527 193.891 80.8382 194.82 79.51C192.39 79.46 189.47 75.18 192.14 71.35C194.81 67.52 205.97 70.73 207.54 68C209.88 69.36 207.8 71.17 207.8 71.17C207.8 71.17 223.59 74.17 216.31 80.26C221.65 80.74 222.4 87.05 217.95 90.26C213.5 93.47 213.27 95.59 215.04 95.33C214.33 96.69 211.16 96.87 210.98 95.55C210.23 98.32 208.07 102.07 203.09 101.46C198.11 100.85 193.23 93.88 195.04 89.21Z" fill="#263238"/>
<path d="M214.929 79.3294C218.689 79.8494 220.399 77.7294 219.459 75.8594C224.119 78.2394 219.029 83.4994 214.929 79.3294Z" fill="#263238"/>
<path d="M198.929 87.9894C198.282 89.6653 197.138 91.103 195.649 92.1094C193.649 93.4294 191.839 92.1094 192.179 90.1094C192.489 88.2694 193.899 85.3594 195.979 84.8394C196.41 84.698 196.872 84.6826 197.312 84.795C197.751 84.9074 198.149 85.1429 198.459 85.4738C198.769 85.8048 198.978 86.2173 199.061 86.663C199.144 87.1086 199.099 87.5688 198.929 87.9894Z" fill="#B97964"/>
</svg>
