<svg width="462" height="768" viewBox="0 0 462 768" fill="none" xmlns="http://www.w3.org/2000/svg">
<path opacity="0.5" d="M2.96948 69.2727C4.33274 55.3861 15.9459 44.761 29.8988 44.6347L397.368 41.3094C413.601 41.1625 426.377 55.1266 424.791 71.2832V71.2832C423.428 85.1699 411.815 95.7949 397.862 95.9212L30.393 99.2465C14.1593 99.3934 1.38337 85.4294 2.96948 69.2727V69.2727Z" fill="#FFF8D6"/>
<path opacity="0.2" d="M36.6809 144.44C38.0442 130.553 49.6573 119.928 63.6102 119.802L431.079 116.476C447.313 116.329 460.089 130.294 458.503 146.45V146.45C457.139 160.337 445.526 170.962 431.573 171.088L64.1044 174.414C47.8707 174.56 35.0948 160.596 36.6809 144.44V144.44Z" fill="#D6D6FF"/>
<rect x="53.3042" y="727.067" width="108" height="40" rx="20" fill="#FBFBFF"/>
<rect x="53.3042" y="371.067" width="108" height="40" rx="20" fill="#FFFBEB"/>
</svg>
