<svg width="100" height="101" viewBox="0 0 100 101" fill="none" xmlns="http://www.w3.org/2000/svg">
<path opacity="0.3" d="M86.4085 22.8714C87.8989 21.118 90.5284 20.9048 92.2818 22.3952C94.0351 23.8855 94.2484 26.5151 92.758 28.2685L57.3413 69.9351C55.8276 71.716 53.1453 71.9036 51.3984 70.3508L32.6484 53.6841C30.9285 52.1553 30.7736 49.5217 32.3024 47.8017C33.8312 46.0818 36.4648 45.9269 38.1848 47.4557L53.7508 61.2922L86.4085 22.8714Z" fill="#27AE60"/>
<path d="M65.5745 27.0384C67.0649 25.285 69.6944 25.0718 71.4478 26.5622C73.2012 28.0525 73.4144 30.6821 71.924 32.4354L36.5073 74.1021C34.9936 75.883 32.3113 76.0706 30.5644 74.5178L11.8144 57.8511C10.0945 56.3223 9.93956 53.6887 11.4684 51.9687C12.9972 50.2488 15.6308 50.0939 17.3508 51.6227L32.9168 65.4592L65.5745 27.0384Z" fill="#27AE60"/>
</svg>
