<svg width="271" height="288" viewBox="0 0 271 288" fill="none" xmlns="http://www.w3.org/2000/svg">
<path opacity="0.1" d="M73.4665 -155.95C81.3903 -164.096 94.2296 -164.824 103.023 -157.626L395.22 81.5497C405.147 89.6754 405.991 104.557 397.046 113.753C389.122 121.898 376.283 122.626 367.489 115.428L75.2922 -123.747C65.3652 -131.873 64.5215 -146.754 73.4665 -155.95Z" fill="#7070FF"/>
<path opacity="0.1" d="M13.6844 -152.697C20.319 -159.517 31.0967 -160.05 38.3717 -153.917L479.683 218.098C487.729 224.881 488.332 237.065 480.994 244.608C474.359 251.429 463.582 251.962 456.306 245.829L14.9951 -126.186C6.9491 -132.969 6.34668 -145.153 13.6844 -152.697Z" fill="#AADDFF"/>
</svg>
