<svg width="1066" height="1055" viewBox="0 0 1066 1055" fill="none" xmlns="http://www.w3.org/2000/svg">
<path opacity="0.1" d="M-120.432 921.81C-114.784 913.52 -103.701 910.986 -95.0119 915.998L236.535 1107.21C246.197 1112.78 249.081 1125.39 242.8 1134.61C237.152 1142.9 226.069 1145.43 217.38 1140.42L-114.167 949.211C-123.829 943.639 -126.712 931.027 -120.432 921.81Z" fill="#7070FF"/>
<path opacity="0.1" d="M-278.634 888.495C-272.033 878.807 -259.128 875.762 -248.893 881.477L247.895 1158.85C259.503 1165.33 263.053 1180.37 255.566 1191.36C248.966 1201.04 236.06 1204.09 225.825 1198.37L-270.963 921.005C-282.571 914.524 -286.12 899.482 -278.634 888.495Z" fill="#FFD100"/>
<path opacity="0.1" d="M868.279 -156.137C876.203 -164.283 889.042 -165.011 897.836 -157.813L1190.03 81.3622C1199.96 89.4879 1200.8 104.37 1191.86 113.565C1183.93 121.711 1171.1 122.439 1162.3 115.241L870.105 -123.934C860.178 -132.06 859.334 -146.942 868.279 -156.137Z" fill="#7070FF"/>
<path opacity="0.1" d="M808.497 -152.884C815.131 -159.704 825.909 -160.237 833.184 -154.105L1274.5 217.91C1282.54 224.693 1283.14 236.878 1275.81 244.421C1269.17 251.241 1258.39 251.774 1251.12 245.641L809.808 -126.374C801.762 -133.156 801.159 -145.341 808.497 -152.884Z" fill="#AADDFF"/>
</svg>
