<svg width="262" height="254" viewBox="0 0 262 254" fill="none" xmlns="http://www.w3.org/2000/svg">
<path opacity="0.1" d="M-128.244 95.6945C-122.596 87.4053 -111.512 84.8712 -102.823 89.8824L228.724 281.094C238.386 286.666 241.269 299.278 234.989 308.495C229.341 316.785 218.258 319.319 209.569 314.307L-121.978 123.096C-131.64 117.524 -134.524 104.912 -128.244 95.6945Z" fill="#7070FF"/>
<path opacity="0.1" d="M-286.446 62.3796C-279.845 52.6918 -266.94 49.6465 -256.704 55.3613L240.083 332.731C251.691 339.212 255.241 354.254 247.755 365.241C241.154 374.929 228.249 377.974 218.013 372.259L-278.774 94.8899C-290.382 88.4088 -293.932 73.3665 -286.446 62.3796Z" fill="#FFD100"/>
</svg>
