<svg width="250" height="326" viewBox="0 0 250 326" fill="none" xmlns="http://www.w3.org/2000/svg">
<path opacity="0.1" d="M-193.913 172.182C-200.12 162.663 -198.011 149.977 -189.058 142.979L108.445 -89.5637C118.552 -97.4641 133.256 -95.0192 140.263 -84.2732V-84.2732C146.47 -74.754 144.36 -62.0683 135.407 -55.0699L-162.096 177.473C-172.203 185.373 -186.907 182.928 -193.913 172.182V172.182Z" fill="#7070FF"/>
<path opacity="0.1" d="M-276.932 304.279C-283.335 294.459 -281.181 281.376 -271.969 274.127L175.168 -77.727C185.616 -85.9485 200.866 -83.4383 208.127 -72.3017V-72.3017C214.53 -62.4819 212.377 -49.3985 203.164 -42.1491L-243.972 309.704C-254.42 317.926 -269.67 315.416 -276.932 304.279V304.279Z" fill="#FFD100"/>
</svg>
