<svg width="345" height="256" viewBox="0 0 345 256" fill="none" xmlns="http://www.w3.org/2000/svg">
<path d="M344.248 224.822H0.951172V224.994H344.248V224.822Z" fill="#EBEBEB"/>
<path d="M309.85 235.873H299.619V236.045H309.85V235.873Z" fill="#EBEBEB"/>
<path d="M228.364 237.738H222.396V237.91H228.364V237.738Z" fill="#EBEBEB"/>
<path d="M296.72 229.498H273.244V229.67H296.72V229.498Z" fill="#EBEBEB"/>
<path d="M76.2221 233.041H46.5664V233.213H76.2221V233.041Z" fill="#EBEBEB"/>
<path d="M93.0311 233.041H82.3359V233.213H93.0311V233.041Z" fill="#EBEBEB"/>
<path d="M175.864 230.738H111.547V230.91H175.864V230.738Z" fill="#EBEBEB"/>
<path d="M163.683 194.201H31.1009C30.0618 194.2 29.0655 193.787 28.3308 193.052C27.596 192.317 27.1827 191.321 27.1816 190.282V3.91788C27.1831 2.87901 27.5965 1.88312 28.3313 1.14866C29.066 0.414188 30.062 0.00109947 31.1009 0H163.683C164.721 0.00146597 165.717 0.414714 166.451 1.14914C167.186 1.88357 167.599 2.87925 167.601 3.91788V190.279C167.6 191.319 167.188 192.315 166.453 193.051C165.718 193.786 164.722 194.2 163.683 194.201ZM31.1023 0.171789C30.1111 0.174713 29.1614 0.569746 28.4606 1.2706C27.7597 1.97146 27.3647 2.92119 27.3617 3.91234V190.279C27.3647 191.27 27.7597 192.22 28.4606 192.921C29.1614 193.622 30.1111 194.017 31.1023 194.02H163.684C164.675 194.017 165.625 193.622 166.326 192.921C167.027 192.22 167.422 191.27 167.425 190.279V3.91788C167.422 2.92672 167.027 1.977 166.326 1.27614C165.625 0.575285 164.675 0.180257 163.684 0.177333L31.1023 0.171789Z" fill="#EBEBEB"/>
<path d="M312.191 194.201H179.609C178.57 194.2 177.575 193.786 176.84 193.052C176.106 192.317 175.693 191.321 175.691 190.282V3.91788C175.693 2.87913 176.106 1.88325 176.84 1.14874C177.575 0.414233 178.571 0.00110018 179.609 0H312.191C313.23 0.00109947 314.226 0.414188 314.961 1.14866C315.696 1.88312 316.109 2.87901 316.11 3.91788V190.279C316.11 191.319 315.697 192.316 314.962 193.051C314.227 193.786 313.231 194.2 312.191 194.201ZM179.609 0.171789C178.618 0.174713 177.668 0.569746 176.968 1.2706C176.267 1.97146 175.872 2.92119 175.869 3.91234V190.279C175.872 191.27 176.267 192.22 176.968 192.921C177.668 193.622 178.618 194.017 179.609 194.02H312.191C313.184 194.019 314.135 193.624 314.837 192.923C315.54 192.222 315.936 191.272 315.939 190.279V3.91788C315.936 2.92553 315.54 1.97476 314.837 1.27371C314.135 0.572651 313.184 0.178428 312.191 0.177333L179.609 0.171789Z" fill="#EBEBEB"/>
<path d="M172.599 255.831C246.121 255.831 305.723 252.35 305.723 248.056C305.723 243.762 246.121 240.281 172.599 240.281C99.077 240.281 39.4756 243.762 39.4756 248.056C39.4756 252.35 99.077 255.831 172.599 255.831Z" fill="#F5F5F5"/>
<path d="M175.285 240.626L169.553 241.271L167.438 228.271L173.171 227.625L175.285 240.626Z" fill="#B97964"/>
<path d="M200.952 241.878H195.227L193.802 228.621H199.526L200.952 241.878Z" fill="#B97964"/>
<path d="M194.756 241.211H201.734C201.848 241.211 201.958 241.25 202.047 241.321C202.135 241.392 202.197 241.491 202.222 241.602L203.353 246.69C203.379 246.814 203.377 246.943 203.347 247.066C203.317 247.189 203.26 247.304 203.179 247.402C203.099 247.499 202.997 247.578 202.882 247.631C202.767 247.684 202.641 247.711 202.514 247.708C200.269 247.67 198.635 247.538 195.804 247.538C194.063 247.538 188.816 247.718 186.413 247.718C184.058 247.718 183.697 245.342 184.68 245.127C189.091 244.158 192.415 242.832 193.824 241.563C194.08 241.334 194.413 241.209 194.756 241.211Z" fill="#263238"/>
<path d="M169.459 240.289L175.671 239.585C175.784 239.572 175.898 239.598 175.994 239.658C176.09 239.719 176.163 239.81 176.2 239.918L177.897 244.846C177.94 244.965 177.955 245.092 177.941 245.218C177.927 245.344 177.885 245.465 177.817 245.572C177.749 245.679 177.657 245.769 177.549 245.835C177.441 245.901 177.32 245.942 177.194 245.954C174.949 246.17 171.696 246.406 168.881 246.726C165.588 247.1 165.04 247.981 161.155 247.891C158.8 247.835 158.21 245.446 159.197 245.259C163.697 244.384 164.567 243.704 168.143 240.897C168.517 240.576 168.972 240.366 169.459 240.289Z" fill="#263238"/>
<path d="M174.516 73.669C172.593 75.2567 170.7 76.6365 168.743 78.0496C166.785 79.4627 164.786 80.7747 162.729 82.0479C160.671 83.3211 158.56 84.5416 156.346 85.6499C154.083 86.8224 151.727 87.8057 149.302 88.5897C148.66 88.7947 148.035 88.9637 147.315 89.1438C146.611 89.2966 145.898 89.4108 145.181 89.486C143.892 89.6246 142.678 89.6869 141.469 89.7423C139.058 89.8532 136.693 89.8504 134.331 89.8338C129.607 89.777 124.923 89.5498 120.218 89.1342L120.147 84.8394C124.768 84.2451 129.409 83.7311 134.001 83.2144C136.297 82.965 138.587 82.6852 140.824 82.3929C141.933 82.2419 143.041 82.0645 144.063 81.8747C144.503 81.7971 144.938 81.6949 145.366 81.5685C145.769 81.43 146.263 81.2721 146.721 81.0878C148.684 80.2907 150.59 79.3584 152.424 78.2976C154.324 77.2073 156.224 76.0367 158.092 74.7926C159.959 73.5485 161.819 72.2601 163.661 70.9454C165.504 69.6306 167.345 68.2383 169.074 66.9277L174.516 73.669Z" fill="#B97964"/>
<path d="M180.111 68.7753C179.288 74.1866 167.895 82.4643 167.895 82.4643L159.721 72.3191C163.301 68.4978 167.098 64.8848 171.092 61.4978C174.77 58.4915 181.006 62.8874 180.111 68.7753Z" fill="#D1D1D1"/>
<path d="M121.724 85.2921L118.474 82.9785L118.118 90.2878C118.609 90.2891 119.094 90.1701 119.528 89.9412C119.963 89.7122 120.335 89.3803 120.612 88.9745L121.724 85.2921Z" fill="#B97964"/>
<path d="M115.537 80.8496L114.872 88.0134L118.119 90.2869L118.475 82.9776L115.537 80.8496Z" fill="#B97964"/>
<path opacity="0.2" d="M167.441 228.273L168.53 234.974L174.264 234.328L173.176 227.627L167.441 228.273Z" fill="black"/>
<path opacity="0.2" d="M199.529 228.619H193.802L194.539 235.452H200.266L199.529 228.619Z" fill="black"/>
<path d="M199.611 61.6705C200.037 61.7661 200.44 61.946 200.796 62.1997C201.152 62.4534 201.453 62.7756 201.683 63.1475C201.912 63.5194 202.065 63.9335 202.132 64.3653C202.199 64.797 202.179 65.2379 202.073 65.6618C200.831 70.8175 199.894 76.0422 199.269 81.3084C198.727 85.7416 198.403 89.9768 198.201 93.8157C197.725 102.814 197.923 109.673 197.655 111.998C193.178 111.687 176.31 110.514 167.112 109.871C164.008 85.5657 167.646 70.0549 169.689 63.7527C170.002 62.7707 170.587 61.8978 171.377 61.2356C172.167 60.5734 173.129 60.1491 174.15 60.0122C175.322 59.8584 176.724 59.7102 178.204 59.6229C178.722 59.5896 179.247 59.5716 179.782 59.5605C184.124 59.612 188.46 59.9136 192.767 60.4638C193.584 60.5608 194.41 60.6813 195.214 60.8102C196.819 61.0789 198.346 61.3879 199.611 61.6705Z" fill="#ABAEB6"/>
<path d="M192.502 45.7598C191.393 49.8799 190.039 57.4774 192.768 60.4698C185.688 65.2314 181.169 71.9353 179.866 70.4793C179.183 69.7173 178.886 60.8993 179.784 59.5638C184.521 58.7769 184.641 55.312 184.056 52.0093L192.502 45.7598Z" fill="#B97964"/>
<path d="M192.219 58.7637C192.219 58.7637 180.683 63.8688 179.153 75.2844C182.331 71.6048 189.351 67.6011 189.351 67.6011L186.255 66.7117C188.224 65.9643 190.263 65.4158 192.341 65.0741C191.997 63.4975 193.829 60.3527 193.829 60.3527L192.219 58.7637Z" fill="#D1D1D1"/>
<path d="M181.81 58.5781C181.81 58.5781 183.348 65.0978 179.154 75.2832C178.328 71.7282 177.194 68.2516 175.766 64.8927L178.59 65.6616C178.59 65.6616 178.452 64.3469 176.165 62.5985C177.118 61.2141 178.306 60.0076 179.677 59.0339L181.81 58.5781Z" fill="#D1D1D1"/>
<path opacity="0.2" d="M189.059 48.3125L184.061 52.0087C184.209 52.7779 184.289 53.5585 184.3 54.3417C186.101 54.2032 188.678 52.4257 188.998 50.5762C189.155 49.8316 189.176 49.0646 189.059 48.3125Z" fill="black"/>
<path d="M177.844 33.8316C175.052 33.9521 173.512 38.765 176.345 42.7286C179.178 46.6922 181.605 33.6695 177.844 33.8316Z" fill="#263238"/>
<path d="M191.611 38.0665C191.942 43.7383 192.424 47.0397 189.927 50.2718C186.173 55.1331 178.913 53.3903 176.895 47.9319C175.079 43.0193 174.842 34.5698 180.081 31.6674C181.234 31.0212 182.533 30.6806 183.854 30.6778C185.175 30.6749 186.475 31.0101 187.631 31.6513C188.786 32.2926 189.758 33.2186 190.455 34.3414C191.151 35.4643 191.549 36.7466 191.611 38.0665Z" fill="#B97964"/>
<path d="M192.442 42.4237C190.925 41.5346 189.601 40.3527 188.545 38.9468C187.49 37.5409 186.725 35.9391 186.295 34.2347C184.632 34.6281 176.346 38.4407 173.799 34.2347C171.251 30.0286 174.457 27.5612 179.224 30.1505C177.115 26.4294 179.033 24.609 185.658 24.4483C192.282 24.2876 191.392 28.1279 191.392 28.1279C191.392 28.1279 196.407 25.9445 198.18 29.7903C200.235 34.2097 196.444 41.756 192.442 42.4237Z" fill="#263238"/>
<path d="M190.259 27.1132C190.32 27.1132 192.768 27.7019 195.588 24.8633C195.083 27.2849 190.702 28.8975 190.702 28.8975L190.259 27.1132Z" fill="#263238"/>
<path d="M193.551 35.4105C190.909 34.4975 187.71 38.4112 188.892 43.1368C190.073 47.8624 197.11 36.6407 193.551 35.4105Z" fill="#263238"/>
<path d="M195.045 42.781C194.803 44.1895 194.013 45.4448 192.848 46.2722C191.295 47.3555 189.896 46.117 189.8 44.3243C189.72 42.7117 190.429 40.2042 192.24 39.8343C192.637 39.76 193.047 39.7862 193.431 39.9105C193.816 40.0349 194.164 40.2533 194.442 40.5461C194.721 40.8389 194.922 41.1967 195.027 41.587C195.133 41.9773 195.139 42.3877 195.045 42.781Z" fill="#B97964"/>
<path d="M175.719 174.368C177.095 157.625 187.186 111.274 187.186 111.274L167.106 109.873C167.106 109.873 159.363 155.883 158.771 173.345C158.153 191.5 165.455 231.851 165.455 231.851L175.085 230.755C175.085 230.755 174.338 191.182 175.719 174.368Z" fill="#D1D1D1"/>
<path d="M175.719 174.368C177.095 157.625 187.186 111.274 187.186 111.274L167.106 109.873C167.106 109.873 159.363 155.883 158.771 173.345C158.153 191.5 165.455 231.851 165.455 231.851L175.085 230.755C175.085 230.755 174.338 191.182 175.719 174.368Z" fill="#5E5E5E"/>
<path opacity="0.2" d="M179.624 126.967C175.576 132.143 175.504 150.32 177.069 163.75C178.561 154.062 180.912 141.759 182.972 131.503L179.624 126.967Z" fill="black"/>
<path d="M177.942 110.627C177.942 110.627 180.109 159.635 182.527 176.232C185.173 194.407 191.893 234.13 191.893 234.13H202.378C202.378 234.13 200.653 196.716 199.269 178.86C197.694 158.521 197.651 112.001 197.651 112.001L177.942 110.627Z" fill="#D1D1D1"/>
<path d="M177.942 110.627C177.942 110.627 180.109 159.635 182.527 176.232C185.173 194.407 191.893 234.13 191.893 234.13H202.378C202.378 234.13 200.653 196.716 199.269 178.86C197.694 158.521 197.651 112.001 197.651 112.001L177.942 110.627Z" fill="#5E5E5E"/>
<path d="M190.633 234.353H202.979V230.665L189.179 230.426L190.633 234.353Z" fill="#5E5E5E"/>
<path d="M165.036 232.935L176.513 231.634L176.097 227.926L163.245 229.185L165.036 232.935Z" fill="#5E5E5E"/>
<path d="M183.259 40.6658C183.314 41.1243 183.12 41.5247 182.816 41.5607C182.511 41.5968 182.228 41.2546 182.174 40.796C182.12 40.3374 182.313 39.9371 182.617 39.901C182.922 39.865 183.205 40.2072 183.259 40.6658Z" fill="#263238"/>
<path d="M178.079 41.2888C178.134 41.7474 177.94 42.1477 177.636 42.1837C177.331 42.2198 177.048 41.8776 176.993 41.419C176.937 40.9605 177.131 40.5601 177.436 40.524C177.741 40.488 178.024 40.8358 178.079 41.2888Z" fill="#263238"/>
<path d="M179.753 41.3164C179.375 42.7832 178.797 44.1909 178.035 45.5003C178.375 45.6865 178.751 45.7963 179.138 45.8219C179.525 45.8475 179.912 45.7883 180.274 45.6485L179.753 41.3164Z" fill="#B97964"/>
<path d="M184.667 38.7956C184.619 38.8101 184.568 38.8112 184.519 38.7988C184.47 38.7863 184.425 38.7608 184.39 38.7249C184.161 38.473 183.875 38.2789 183.557 38.1585C183.238 38.0381 182.896 37.9948 182.557 38.0322C182.487 38.0441 182.414 38.0283 182.355 37.988C182.296 37.9477 182.255 37.8861 182.24 37.8161C182.233 37.781 182.233 37.7449 182.24 37.7098C182.247 37.6747 182.261 37.6413 182.281 37.6117C182.301 37.5822 182.327 37.5569 182.357 37.5375C182.387 37.5181 182.421 37.505 182.456 37.4989C182.883 37.4435 183.318 37.4916 183.722 37.6392C184.127 37.7867 184.491 38.0294 184.782 38.3467C184.832 38.3983 184.859 38.4671 184.859 38.5386C184.859 38.6101 184.832 38.6789 184.782 38.7305C184.75 38.7614 184.71 38.7838 184.667 38.7956Z" fill="#263238"/>
<path d="M182.677 47.4796C183.331 47.342 183.942 47.0492 184.458 46.6258C184.975 46.2023 185.382 45.6608 185.646 45.0468C185.659 45.0101 185.656 44.9697 185.64 44.9347C185.623 44.8996 185.593 44.8727 185.556 44.8598C185.519 44.8469 185.479 44.8492 185.444 44.8661C185.409 44.883 185.382 44.9131 185.369 44.9498C185.117 45.5146 184.735 46.0122 184.255 46.4025C183.775 46.7928 183.211 47.065 182.606 47.197C182.588 47.2012 182.57 47.2091 182.554 47.2202C182.539 47.2313 182.526 47.2454 182.515 47.2616C182.505 47.2778 182.498 47.2958 182.495 47.3147C182.492 47.3336 182.493 47.3529 182.497 47.3715C182.501 47.3902 182.509 47.4078 182.52 47.4234C182.531 47.439 182.545 47.4522 182.561 47.4624C182.578 47.4726 182.596 47.4794 182.615 47.4826C182.633 47.4858 182.653 47.4852 182.671 47.481L182.677 47.4796Z" fill="#263238"/>
<path d="M175.642 39.772C175.587 39.7902 175.528 39.7902 175.474 39.772C175.407 39.7473 175.352 39.6975 175.321 39.6333C175.29 39.569 175.284 39.4951 175.306 39.4271C175.436 39.0161 175.663 38.6426 175.968 38.3382C176.274 38.0339 176.648 37.8076 177.059 37.6787C177.128 37.663 177.201 37.6746 177.262 37.7113C177.324 37.7479 177.368 37.8067 177.387 37.8754C177.403 37.9448 177.392 38.0175 177.355 38.0787C177.319 38.1398 177.26 38.1846 177.192 38.2038C176.869 38.3116 176.575 38.4947 176.337 38.738C176.098 38.9812 175.921 39.2777 175.819 39.603C175.804 39.6429 175.781 39.6789 175.75 39.7082C175.719 39.7375 175.682 39.7593 175.642 39.772Z" fill="#263238"/>
<path d="M192.87 242.211C192.478 242.242 192.087 242.139 191.762 241.919C191.66 241.831 191.582 241.72 191.533 241.595C191.485 241.47 191.468 241.335 191.484 241.202C191.484 241.123 191.506 241.045 191.547 240.978C191.588 240.91 191.647 240.855 191.717 240.819C192.353 240.492 194.197 241.628 194.405 241.758C194.428 241.772 194.446 241.793 194.457 241.818C194.468 241.842 194.471 241.87 194.467 241.896C194.463 241.923 194.451 241.947 194.432 241.967C194.414 241.987 194.391 242.001 194.365 242.007C193.876 242.131 193.374 242.199 192.87 242.211ZM192.019 241.026C191.959 241.024 191.899 241.035 191.843 241.06C191.815 241.075 191.792 241.099 191.777 241.127C191.762 241.155 191.755 241.187 191.757 241.219C191.745 241.31 191.755 241.402 191.788 241.488C191.82 241.574 191.873 241.65 191.942 241.711C192.581 242.003 193.308 242.039 193.974 241.813C193.377 241.426 192.711 241.159 192.012 241.026H192.019Z" fill="#D1D1D1"/>
<path d="M194.329 242.009C194.307 242.009 194.284 242.003 194.264 241.992C193.673 241.671 192.527 240.416 192.647 239.776C192.667 239.676 192.721 239.586 192.799 239.521C192.878 239.456 192.977 239.42 193.078 239.42C193.181 239.407 193.286 239.416 193.386 239.446C193.485 239.476 193.577 239.527 193.656 239.594C194.321 240.139 194.458 241.79 194.462 241.859C194.464 241.883 194.459 241.908 194.449 241.93C194.438 241.952 194.422 241.97 194.401 241.984C194.38 241.999 194.355 242.007 194.329 242.009ZM193.174 239.688H193.112C192.936 239.71 192.92 239.791 192.914 239.827C192.841 240.204 193.572 241.151 194.16 241.599C194.121 240.944 193.886 240.316 193.484 239.798C193.397 239.726 193.287 239.687 193.174 239.688Z" fill="#D1D1D1"/>
<path d="M168.994 241.135L168.972 241.145C168.075 241.432 166.471 241.838 165.785 241.358C165.684 241.288 165.601 241.195 165.544 241.086C165.487 240.976 165.458 240.855 165.458 240.732C165.453 240.658 165.467 240.584 165.498 240.516C165.53 240.449 165.579 240.391 165.64 240.348C166.284 239.895 168.704 240.786 168.978 240.89C169.002 240.9 169.022 240.917 169.037 240.938C169.052 240.958 169.06 240.983 169.062 241.009C169.063 241.034 169.058 241.06 169.046 241.082C169.034 241.105 169.016 241.124 168.994 241.137V241.135ZM165.831 240.548L165.799 240.567C165.774 240.584 165.755 240.607 165.742 240.634C165.73 240.661 165.726 240.691 165.73 240.721C165.728 240.802 165.746 240.883 165.783 240.955C165.82 241.028 165.874 241.09 165.94 241.137C166.783 241.399 167.691 241.35 168.501 240.998C167.662 240.626 166.743 240.471 165.829 240.548H165.831Z" fill="#D1D1D1"/>
<path d="M168.994 241.134C168.961 241.151 168.923 241.154 168.889 241.142C168.168 240.912 166.672 239.836 166.7 239.182C166.707 239.028 166.794 238.827 167.16 238.748C167.292 238.719 167.428 238.717 167.561 238.742C167.694 238.767 167.821 238.819 167.933 238.895C168.52 239.456 168.915 240.188 169.063 240.987C169.068 241.01 169.066 241.035 169.059 241.057C169.052 241.08 169.039 241.1 169.022 241.116C169.013 241.123 169.004 241.129 168.994 241.134ZM167.067 239.07C166.974 239.12 166.971 239.178 166.97 239.2C166.95 239.594 167.984 240.455 168.733 240.796C168.595 240.158 168.264 239.577 167.784 239.134C167.702 239.077 167.61 239.038 167.512 239.019C167.414 239 167.313 239.002 167.216 239.024C167.165 239.032 167.114 239.048 167.067 239.07Z" fill="#D1D1D1"/>
<path d="M204.44 69.9293C204.294 72.1653 204.031 74.2475 203.758 76.3977C203.485 78.5478 203.118 80.655 202.715 82.7815C201.917 87.125 200.74 91.39 199.195 95.5271L198.515 97.13L198.343 97.5304L198.3 97.6302L198.229 97.7825L198.03 98.1774C197.766 98.6572 197.45 99.106 197.086 99.5157C196.489 100.188 195.791 100.763 195.017 101.22C194.389 101.593 193.732 101.912 193.051 102.174C190.782 102.993 188.409 103.488 186.002 103.646C181.631 103.972 177.238 103.808 172.904 103.156L173.061 98.8618L176.089 98.5196C177.105 98.399 178.115 98.2425 179.119 98.1039C181.124 97.8089 183.108 97.4792 184.999 97.04C186.748 96.6839 188.448 96.1202 190.064 95.3609C190.499 95.1778 190.881 94.8865 191.172 94.5144C191.19 94.4161 190.971 94.8469 191.229 94.1584L191.682 92.8339C192.791 89.0371 193.64 85.1688 194.223 81.2562C194.548 79.264 194.827 77.2538 195.095 75.2381C195.364 73.2224 195.586 71.165 195.798 69.2324L204.44 69.9293Z" fill="#B97964"/>
<path d="M204.938 65.7787C207.74 70.4794 205.353 85.2532 205.353 85.2532L190.668 82.5392C190.668 82.5392 189.873 74.0883 192.669 67.5853C195.704 60.5073 201.542 60.0834 204.938 65.7787Z" fill="#D1D1D1"/>
<path d="M168.948 112.149L161.155 75.9019C160.781 74.354 159.914 72.9697 158.684 71.9576C157.455 70.9456 155.93 70.3606 154.339 70.291H124.479C126.071 70.3603 127.596 70.9451 128.826 71.9572C130.056 72.9693 130.923 74.3538 131.297 75.9019L139.09 112.149C139.464 113.697 140.331 115.081 141.56 116.093C142.79 117.105 144.315 117.69 145.906 117.76H175.764C174.173 117.69 172.648 117.105 171.418 116.093C170.189 115.081 169.322 113.697 168.948 112.149Z" fill="#263238"/>
<path opacity="0.7" d="M168.948 112.149L161.155 75.9019C160.781 74.354 159.914 72.9697 158.684 71.9576C157.455 70.9456 155.93 70.3606 154.339 70.291H124.479C126.071 70.3603 127.596 70.9451 128.826 71.9572C130.056 72.9693 130.923 74.3538 131.297 75.9019L139.09 112.149C139.464 113.697 140.331 115.081 141.56 116.093C142.79 117.105 144.315 117.69 145.906 117.76H175.764C174.173 117.69 172.648 117.105 171.418 116.093C170.189 115.081 169.322 113.697 168.948 112.149Z" fill="#D1D1D1"/>
<path d="M124.48 70.291H154.338C152.809 70.3196 151.343 70.9056 150.216 71.9389C149.089 72.9721 148.378 74.3814 148.217 75.9019L140.472 160.134C140.31 161.654 139.599 163.063 138.472 164.096C137.345 165.129 135.88 165.715 134.351 165.744H115.715C114.997 165.758 114.284 165.618 113.625 165.333C112.966 165.049 112.375 164.627 111.892 164.096C111.409 163.564 111.045 162.936 110.825 162.253C110.604 161.569 110.532 160.847 110.614 160.134L118.361 75.9019C118.522 74.3816 119.233 72.9725 120.359 71.9393C121.486 70.9061 122.951 70.32 124.48 70.291Z" fill="#D1D1D1"/>
<path d="M129.249 160.133C129.168 160.846 129.24 161.569 129.46 162.252C129.68 162.935 130.044 163.564 130.527 164.095C131.01 164.626 131.601 165.048 132.26 165.332C132.92 165.617 133.632 165.757 134.35 165.744H104.492C103.774 165.757 103.062 165.617 102.402 165.333C101.743 165.049 101.152 164.627 100.669 164.095C100.186 163.564 99.8219 162.936 99.6016 162.252C99.3812 161.569 99.3094 160.846 99.3911 160.133H129.249Z" fill="#263238"/>
<path opacity="0.7" d="M129.249 160.133C129.168 160.846 129.24 161.569 129.46 162.252C129.68 162.935 130.044 163.564 130.527 164.095C131.01 164.626 131.601 165.048 132.26 165.332C132.92 165.617 133.632 165.757 134.35 165.744H104.492C103.774 165.757 103.062 165.617 102.402 165.333C101.743 165.049 101.152 164.627 100.669 164.095C100.186 163.564 99.8219 162.936 99.6016 162.252C99.3812 161.569 99.3094 160.846 99.3911 160.133H129.249Z" fill="#D1D1D1"/>
<g opacity="0.5">
<path opacity="0.5" d="M143.043 79.7291H122.839C122.683 79.7312 122.528 79.7002 122.385 79.6379C122.242 79.5757 122.114 79.4838 122.009 79.3682C121.904 79.2526 121.825 79.1161 121.777 78.9677C121.729 78.8192 121.713 78.6622 121.73 78.5072C121.766 78.1764 121.921 77.87 122.167 77.6452C122.412 77.4203 122.731 77.2924 123.063 77.2853H143.265C143.421 77.2831 143.576 77.3142 143.719 77.3764C143.862 77.4386 143.99 77.5306 144.095 77.6461C144.2 77.7617 144.279 77.8982 144.327 78.0467C144.375 78.1952 144.391 78.3521 144.373 78.5072C144.337 78.8375 144.183 79.1435 143.938 79.3683C143.693 79.5931 143.375 79.7213 143.043 79.7291Z" fill="white"/>
<path opacity="0.5" d="M142.441 86.3404H122.236C122.08 86.3425 121.926 86.3115 121.782 86.2493C121.639 86.187 121.511 86.0951 121.406 85.9795C121.302 85.864 121.222 85.7274 121.174 85.579C121.126 85.4305 121.111 85.2735 121.128 85.1185C121.164 84.7877 121.319 84.4813 121.564 84.2565C121.809 84.0316 122.128 83.9037 122.461 83.8966H142.665C142.821 83.8944 142.976 83.9255 143.119 83.9877C143.262 84.0499 143.39 84.1419 143.495 84.2575C143.6 84.373 143.679 84.5096 143.727 84.658C143.775 84.8065 143.791 84.9634 143.773 85.1185C143.738 85.4494 143.583 85.7559 143.338 85.9808C143.092 86.2057 142.773 86.3336 142.441 86.3404Z" fill="white"/>
<path opacity="0.5" d="M136.887 92.9498H121.636C121.48 92.9519 121.325 92.9208 121.182 92.8586C121.039 92.7964 120.911 92.7045 120.806 92.5889C120.701 92.4733 120.622 92.3368 120.574 92.1883C120.526 92.0399 120.51 91.8829 120.527 91.7279C120.563 91.3971 120.718 91.0907 120.964 90.8659C121.209 90.641 121.527 90.5131 121.86 90.506H137.112C137.268 90.5038 137.422 90.5349 137.566 90.5971C137.709 90.6593 137.837 90.7513 137.942 90.8668C138.047 90.9824 138.126 91.119 138.174 91.2674C138.222 91.4159 138.237 91.5728 138.22 91.7279C138.184 92.0586 138.029 92.365 137.784 92.5899C137.539 92.8147 137.22 92.9426 136.887 92.9498Z" fill="white"/>
<path opacity="0.5" d="M126.207 99.5572H121.035C120.879 99.5594 120.724 99.5283 120.581 99.4661C120.438 99.4039 120.31 99.3119 120.205 99.1963C120.1 99.0808 120.021 98.9442 119.973 98.7958C119.925 98.6473 119.909 98.4904 119.927 98.3353C119.962 98.0047 120.117 97.6983 120.362 97.4734C120.607 97.2485 120.926 97.1206 121.258 97.1134H126.431C126.587 97.1112 126.742 97.1423 126.885 97.2045C127.028 97.2668 127.156 97.3587 127.261 97.4743C127.366 97.5898 127.445 97.7264 127.493 97.8748C127.541 98.0233 127.557 98.1802 127.539 98.3353C127.504 98.6661 127.348 98.9725 127.103 99.1973C126.858 99.4221 126.539 99.5501 126.207 99.5572Z" fill="white"/>
<path opacity="0.5" d="M140.638 106.165H120.428C120.272 106.167 120.117 106.136 119.974 106.073C119.831 106.011 119.703 105.919 119.598 105.804C119.493 105.688 119.414 105.552 119.366 105.403C119.318 105.255 119.302 105.098 119.319 104.943C119.355 104.612 119.51 104.306 119.755 104.081C120.001 103.856 120.319 103.728 120.652 103.721H140.857C141.013 103.719 141.167 103.75 141.31 103.812C141.453 103.874 141.582 103.966 141.686 104.082C141.791 104.197 141.87 104.334 141.918 104.482C141.966 104.631 141.982 104.788 141.965 104.943C141.929 105.273 141.775 105.578 141.531 105.803C141.287 106.028 140.969 106.156 140.638 106.165Z" fill="white"/>
<path opacity="0.5" d="M132.081 112.776H119.834C119.678 112.778 119.523 112.747 119.38 112.685C119.237 112.623 119.109 112.531 119.004 112.415C118.899 112.3 118.82 112.163 118.772 112.015C118.724 111.866 118.708 111.709 118.726 111.554C118.761 111.223 118.916 110.917 119.161 110.692C119.406 110.467 119.724 110.339 120.057 110.332H132.304C132.46 110.33 132.614 110.361 132.757 110.423C132.901 110.486 133.029 110.577 133.134 110.693C133.238 110.809 133.317 110.945 133.365 111.094C133.413 111.242 133.429 111.399 133.412 111.554C133.376 111.885 133.221 112.191 132.976 112.416C132.731 112.64 132.413 112.769 132.081 112.776Z" fill="white"/>
<path opacity="0.5" d="M139.436 119.383H119.231C119.075 119.386 118.921 119.354 118.778 119.292C118.634 119.23 118.506 119.138 118.401 119.023C118.297 118.907 118.218 118.77 118.17 118.622C118.122 118.474 118.106 118.317 118.123 118.161C118.159 117.831 118.314 117.524 118.559 117.299C118.804 117.075 119.123 116.947 119.456 116.94H139.662C139.818 116.937 139.972 116.968 140.115 117.031C140.259 117.093 140.387 117.185 140.492 117.3C140.596 117.416 140.675 117.553 140.723 117.701C140.771 117.849 140.787 118.006 140.77 118.161C140.734 118.492 140.579 118.799 140.333 119.024C140.088 119.249 139.769 119.377 139.436 119.383Z" fill="white"/>
<path opacity="0.5" d="M133.882 125.993H118.631C118.475 125.995 118.32 125.964 118.177 125.902C118.034 125.839 117.906 125.747 117.801 125.632C117.696 125.516 117.617 125.38 117.569 125.231C117.521 125.083 117.505 124.926 117.522 124.771C117.558 124.44 117.713 124.134 117.959 123.909C118.204 123.684 118.523 123.556 118.855 123.549H134.107C134.263 123.547 134.418 123.578 134.561 123.64C134.704 123.702 134.832 123.794 134.937 123.91C135.042 124.025 135.121 124.162 135.169 124.31C135.217 124.459 135.233 124.616 135.215 124.771C135.179 125.102 135.024 125.408 134.779 125.633C134.534 125.858 134.215 125.986 133.882 125.993Z" fill="white"/>
<path opacity="0.5" d="M123.202 132.602H118.026C117.87 132.604 117.716 132.573 117.572 132.511C117.429 132.449 117.301 132.357 117.196 132.241C117.092 132.126 117.013 131.989 116.965 131.841C116.917 131.692 116.901 131.535 116.918 131.38C116.954 131.049 117.109 130.743 117.354 130.518C117.599 130.293 117.918 130.165 118.251 130.158H123.429C123.585 130.156 123.74 130.187 123.883 130.249C124.026 130.312 124.154 130.404 124.259 130.519C124.364 130.635 124.443 130.771 124.491 130.92C124.539 131.068 124.555 131.225 124.538 131.38C124.502 131.711 124.346 132.018 124.1 132.243C123.855 132.468 123.535 132.596 123.202 132.602Z" fill="white"/>
<path opacity="0.5" d="M137.633 139.213H117.429C117.273 139.216 117.118 139.185 116.975 139.122C116.832 139.06 116.704 138.968 116.599 138.853C116.494 138.737 116.415 138.6 116.367 138.452C116.319 138.304 116.303 138.147 116.32 137.992C116.356 137.661 116.511 137.354 116.756 137.13C117.002 136.905 117.32 136.777 117.653 136.77H137.858C138.014 136.767 138.168 136.799 138.311 136.861C138.454 136.923 138.583 137.015 138.687 137.131C138.792 137.246 138.871 137.383 138.919 137.531C138.967 137.68 138.983 137.836 138.966 137.992C138.93 138.322 138.775 138.629 138.53 138.854C138.284 139.078 137.966 139.206 137.633 139.213Z" fill="white"/>
<path opacity="0.5" d="M129.074 145.823H116.827C116.671 145.825 116.516 145.794 116.373 145.732C116.23 145.669 116.102 145.578 115.997 145.462C115.892 145.346 115.813 145.21 115.765 145.061C115.717 144.913 115.701 144.756 115.719 144.601C115.754 144.27 115.909 143.963 116.155 143.739C116.4 143.514 116.719 143.386 117.051 143.379H129.297C129.453 143.377 129.608 143.408 129.751 143.47C129.894 143.532 130.022 143.624 130.127 143.74C130.232 143.855 130.311 143.992 130.359 144.14C130.407 144.289 130.423 144.446 130.405 144.601C130.369 144.931 130.215 145.238 129.97 145.463C129.725 145.687 129.406 145.815 129.074 145.823Z" fill="white"/>
<path opacity="0.5" d="M136.43 152.432H116.225C116.069 152.434 115.915 152.403 115.772 152.341C115.629 152.279 115.5 152.187 115.396 152.071C115.291 151.956 115.212 151.819 115.164 151.671C115.116 151.522 115.1 151.365 115.117 151.21C115.153 150.88 115.308 150.573 115.553 150.348C115.799 150.123 116.117 149.996 116.45 149.988H136.652C136.808 149.986 136.962 150.017 137.105 150.08C137.248 150.142 137.377 150.234 137.482 150.349C137.586 150.465 137.665 150.601 137.713 150.75C137.761 150.898 137.777 151.055 137.76 151.21C137.724 151.541 137.569 151.847 137.325 152.071C137.08 152.296 136.762 152.424 136.43 152.432Z" fill="white"/>
</g>
<path d="M174.821 99.3307L170.435 95.5195L168.379 102.535C168.379 102.535 172.834 104.951 174.378 102.733L174.821 99.3307Z" fill="#B97964"/>
<path d="M165.656 95.2461L164.229 101.126L168.375 102.539L170.43 95.5218L165.656 95.2461Z" fill="#B97964"/>
</svg>
