<svg width="241" height="264" viewBox="0 0 241 264" fill="none" xmlns="http://www.w3.org/2000/svg">
<path opacity="0.1" d="M41.5194 331.286C35.3125 321.767 37.4218 309.081 46.3752 302.083L343.878 69.5403C353.985 61.6399 368.689 64.0848 375.696 74.8308V74.8308C381.903 84.35 379.793 97.0357 370.84 104.034L73.3373 336.577C63.23 344.477 48.5263 342.032 41.5194 331.286V331.286Z" fill="#7070FF"/>
<path opacity="0.1" d="M41.1771 397.808C34.7742 387.988 36.9278 374.905 46.1403 367.655L493.277 15.8018C503.725 7.58028 518.975 10.0905 526.236 21.2271V21.2271C532.639 31.0469 530.486 44.1304 521.273 51.3798L74.1368 403.233C63.6888 411.455 48.4386 408.945 41.1771 397.808V397.808Z" fill="#AADDFF"/>
</svg>
