<svg width="100" height="100" viewBox="0 0 100 100" fill="none" xmlns="http://www.w3.org/2000/svg">
<circle cx="50" cy="50" r="50" fill="#BDBDBD"/>
<path d="M50 18C40.6951 18 33.125 25.5701 33.125 34.875C33.125 44.1799 40.6951 51.75 50 51.75C59.3049 51.75 66.875 44.1799 66.875 34.875C66.875 25.5701 59.3049 18 50 18Z" fill="white"/>
<path d="M70.9958 62.7744C66.3758 58.0834 60.2511 55.5 53.75 55.5H46.25C39.749 55.5 33.6242 58.0834 29.0042 62.7744C24.4069 67.4424 21.875 73.6041 21.875 80.125C21.875 81.1605 22.7145 82 23.75 82H76.25C77.2855 82 78.125 81.1605 78.125 80.125C78.125 73.6041 75.5931 67.4424 70.9958 62.7744Z" fill="white"/>
<circle opacity="0.8" cx="50" cy="50" r="50" fill="#4F4F4F"/>
<path d="M50.0007 32.416L49.2935 31.7089L50.0007 31.0018L50.7078 31.7089L50.0007 32.416ZM51.0007 44.416C51.0007 44.9683 50.5529 45.416 50.0007 45.416C49.4484 45.416 49.0007 44.9683 49.0007 44.416L51.0007 44.416ZM42.6269 38.3756L49.2935 31.7089L50.7078 33.1231L44.0411 39.7898L42.6269 38.3756ZM50.7078 31.7089L57.3744 38.3756L55.9602 39.7898L49.2935 33.1231L50.7078 31.7089ZM51.0007 32.416L51.0007 44.416L49.0007 44.416L49.0007 32.416L51.0007 32.416Z" fill="white"/>
<path d="M40.666 47.084L40.666 48.4173C40.666 49.8901 41.8599 51.084 43.3327 51.084L56.666 51.084C58.1388 51.084 59.3327 49.8901 59.3327 48.4173V47.084" stroke="white" stroke-width="2"/>
<path d="M18.4591 71.89C20.5171 71.89 21.9031 70.686 21.9031 68.334V63.154H20.4471V68.166C20.4471 69.818 19.7471 70.588 18.4591 70.588C17.1711 70.588 16.4711 69.818 16.4711 68.166V63.154H15.0151V68.32C15.0151 70.686 16.4151 71.89 18.4591 71.89ZM24.9887 71.218C25.2687 71.568 25.8847 71.89 26.5707 71.89C28.3907 71.89 29.4547 70.378 29.4547 68.642C29.4547 66.906 28.3907 65.394 26.5707 65.394C25.8847 65.394 25.2687 65.716 24.9887 66.066V65.534H23.5887V74.13H24.9887V71.218ZM24.9887 67.466C25.2267 66.976 25.7587 66.64 26.3327 66.64C27.4107 66.64 28.0547 67.494 28.0547 68.642C28.0547 69.79 27.4107 70.644 26.3327 70.644C25.7587 70.644 25.2267 70.308 24.9887 69.818V67.466ZM32.1528 62.65H30.7528V71.75H32.1528V62.65ZM39.3576 68.642C39.3576 66.738 38.1536 65.394 36.4036 65.394C34.6536 65.394 33.4496 66.738 33.4496 68.642C33.4496 70.546 34.6536 71.89 36.4036 71.89C38.1536 71.89 39.3576 70.546 39.3576 68.642ZM37.9576 68.642C37.9576 69.818 37.4116 70.686 36.4036 70.686C35.3956 70.686 34.8496 69.818 34.8496 68.642C34.8496 67.466 35.3956 66.598 36.4036 66.598C37.4116 66.598 37.9576 67.466 37.9576 68.642ZM45.4529 71.75V67.676C45.4529 66.262 44.5289 65.394 42.9609 65.394C41.6869 65.394 40.7069 66.192 40.5249 67.256H41.8689C42.0229 66.822 42.3729 66.584 42.9329 66.584C43.7309 66.584 44.1229 67.074 44.1229 67.704V68.208C43.8709 68.026 43.2409 67.83 42.6809 67.83C41.3089 67.83 40.2589 68.656 40.2589 69.832C40.2589 71.106 41.3089 71.862 42.5829 71.862C43.2829 71.862 43.9129 71.61 44.1229 71.4V71.75H45.4529ZM44.1229 70.098C43.9689 70.49 43.4089 70.728 42.8489 70.728C42.2189 70.728 41.5609 70.462 41.5609 69.832C41.5609 69.216 42.2189 68.95 42.8489 68.95C43.4089 68.95 43.9689 69.188 44.1229 69.58V70.098ZM51.1363 71.75H52.5363V62.65H51.1363V66.066C50.8563 65.716 50.2403 65.394 49.5543 65.394C47.7343 65.394 46.6703 66.864 46.6703 68.642C46.6703 70.434 47.7343 71.89 49.5543 71.89C50.2403 71.89 50.8563 71.568 51.1363 71.218V71.75ZM51.1363 69.818C50.8983 70.308 50.3663 70.644 49.7923 70.644C48.7143 70.644 48.0703 69.79 48.0703 68.642C48.0703 67.494 48.7143 66.64 49.7923 66.64C50.3663 66.64 50.8983 66.976 51.1363 67.466V69.818ZM58.7582 65.534H57.3582V71.75H58.7582V65.534ZM58.9262 63.658C58.9262 63.182 58.5202 62.804 58.0582 62.804C57.5962 62.804 57.1902 63.182 57.1902 63.658C57.1902 64.134 57.5962 64.512 58.0582 64.512C58.5202 64.512 58.9262 64.134 58.9262 63.658ZM65.0811 66.22C64.7591 65.744 64.1431 65.394 63.4431 65.394C62.7431 65.394 62.1831 65.66 61.8891 66.052V65.534H60.4891V71.75H61.8891V67.578C62.0151 66.962 62.4911 66.654 62.9951 66.654C63.6811 66.654 64.0171 67.158 64.0171 67.928V71.75H65.4171V67.578C65.5431 66.962 66.0191 66.654 66.5231 66.654C67.2091 66.654 67.5451 67.158 67.5451 67.928V71.75H68.9451V67.704C68.9451 66.29 68.2031 65.394 66.9291 65.394C66.0891 65.394 65.5151 65.716 65.0811 66.22ZM75.3806 71.75V67.676C75.3806 66.262 74.4566 65.394 72.8886 65.394C71.6146 65.394 70.6346 66.192 70.4526 67.256H71.7966C71.9506 66.822 72.3006 66.584 72.8606 66.584C73.6586 66.584 74.0506 67.074 74.0506 67.704V68.208C73.7986 68.026 73.1686 67.83 72.6086 67.83C71.2366 67.83 70.1866 68.656 70.1866 69.832C70.1866 71.106 71.2366 71.862 72.5106 71.862C73.2106 71.862 73.8406 71.61 74.0506 71.4V71.75H75.3806ZM74.0506 70.098C73.8966 70.49 73.3366 70.728 72.7766 70.728C72.1466 70.728 71.4886 70.462 71.4886 69.832C71.4886 69.216 72.1466 68.95 72.7766 68.95C73.3366 68.95 73.8966 69.188 74.0506 69.58V70.098ZM81.0641 71.33C81.0641 72.492 80.5741 73.122 79.5381 73.122C78.7681 73.122 78.2781 72.772 78.1381 72.086H76.7801C76.9341 73.444 77.9561 74.27 79.5381 74.27C81.1901 74.27 82.4641 73.332 82.4641 71.232V65.534H81.0641V66.038C80.7841 65.702 80.1821 65.394 79.4821 65.394C77.6481 65.394 76.5981 66.906 76.5981 68.544C76.5981 70.182 77.6481 71.694 79.4821 71.694C80.1821 71.694 80.7841 71.386 81.0641 71.05V71.33ZM81.0641 69.72C80.8261 70.14 80.3081 70.462 79.7201 70.462C78.6421 70.462 78.0261 69.65 78.0261 68.544C78.0261 67.438 78.6421 66.626 79.7201 66.626C80.3081 66.626 80.8261 66.948 81.0641 67.368V69.72ZM88.0321 69.818C87.8781 70.42 87.3741 70.714 86.7021 70.714C85.8061 70.714 85.1761 70.056 85.1341 68.964H89.3761V68.46C89.3761 66.64 88.4241 65.394 86.6741 65.394C84.9801 65.394 83.7621 66.794 83.7621 68.656C83.7621 70.574 84.9661 71.89 86.7021 71.89C88.2001 71.89 89.1101 71.05 89.3201 69.818H88.0321ZM86.6881 66.57C87.5421 66.57 87.9761 67.186 87.9901 67.942H85.1761C85.3441 67.046 85.9181 66.57 86.6881 66.57Z" fill="white"/>
</svg>
