<svg width="344" height="256" viewBox="0 0 344 256" fill="none" xmlns="http://www.w3.org/2000/svg">
<path d="M119.329 229.022H103.427V229.194H119.329V229.022Z" fill="#EBEBEB"/>
<path d="M315.216 232.692H276.341V232.864H315.216V232.692Z" fill="#EBEBEB"/>
<path d="M125.798 170.331H109.958V225.026H125.798V170.331Z" fill="#E6E6E6"/>
<path d="M200.304 209.462H168.062C167.232 209.458 166.437 209.127 165.849 208.541C165.262 207.956 164.931 207.162 164.927 206.334V175.595C164.929 174.766 165.26 173.972 165.848 173.387C166.436 172.802 167.232 172.474 168.062 172.474H200.27C201.1 172.474 201.897 172.802 202.484 173.387C203.072 173.972 203.403 174.766 203.405 175.595V206.334C203.401 207.156 203.075 207.945 202.495 208.529C201.915 209.114 201.129 209.449 200.304 209.462ZM168.062 173.185C167.417 173.185 166.798 173.44 166.34 173.894C165.883 174.348 165.624 174.965 165.62 175.608V206.347C165.616 206.667 165.676 206.985 165.795 207.282C165.915 207.579 166.092 207.849 166.316 208.078C166.54 208.307 166.807 208.49 167.102 208.615C167.397 208.741 167.714 208.808 168.035 208.811H200.277C200.923 208.815 201.545 208.563 202.005 208.11C202.466 207.657 202.727 207.04 202.733 206.395V175.595C202.733 175.276 202.67 174.96 202.547 174.666C202.425 174.372 202.245 174.104 202.019 173.879C201.793 173.654 201.524 173.476 201.229 173.354C200.933 173.233 200.617 173.171 200.297 173.172L168.062 173.185Z" fill="#E0E0E0"/>
<path d="M160.503 209.462H128.261C127.43 209.458 126.635 209.127 126.048 208.541C125.461 207.956 125.129 207.162 125.126 206.334V175.595C125.128 174.766 125.459 173.972 126.046 173.387C126.634 172.802 127.43 172.474 128.261 172.474H160.503C161.333 172.474 162.129 172.802 162.717 173.387C163.305 173.972 163.636 174.766 163.638 175.595V206.334C163.636 207.163 163.305 207.957 162.718 208.543C162.13 209.13 161.334 209.46 160.503 209.462ZM128.261 173.185C127.941 173.185 127.625 173.247 127.329 173.368C127.034 173.489 126.765 173.668 126.539 173.893C126.313 174.118 126.133 174.385 126.011 174.68C125.888 174.974 125.825 175.29 125.825 175.608V206.347C125.825 206.666 125.888 206.982 126.011 207.277C126.133 207.572 126.313 207.84 126.539 208.065C126.765 208.291 127.033 208.47 127.329 208.592C127.624 208.714 127.941 208.777 128.261 208.777H160.503C161.149 208.775 161.768 208.519 162.225 208.064C162.683 207.609 162.941 206.992 162.945 206.347V175.595C162.941 174.951 162.682 174.335 162.225 173.881C161.767 173.427 161.148 173.172 160.503 173.172L128.261 173.185Z" fill="#E0E0E0"/>
<path d="M157.512 182.186C156.914 182.186 156.329 182.009 155.832 181.678C155.334 181.347 154.946 180.876 154.717 180.325C154.488 179.773 154.428 179.167 154.544 178.581C154.66 177.996 154.948 177.458 155.37 177.036C155.792 176.614 156.331 176.325 156.917 176.208C157.504 176.091 158.112 176.15 158.665 176.377C159.217 176.605 159.69 176.99 160.024 177.486C160.357 177.981 160.535 178.564 160.537 179.161C160.537 179.962 160.218 180.731 159.651 181.298C159.084 181.865 158.315 182.184 157.512 182.186Z" fill="#FAFAFA"/>
<path d="M171.081 182.186C170.482 182.19 169.896 182.017 169.397 181.689C168.897 181.361 168.506 180.892 168.273 180.342C168.04 179.792 167.976 179.185 168.089 178.599C168.202 178.013 168.486 177.473 168.906 177.048C169.327 176.623 169.864 176.332 170.45 176.211C171.036 176.091 171.644 176.147 172.199 176.371C172.753 176.596 173.228 176.98 173.564 177.474C173.9 177.968 174.081 178.55 174.085 179.147V179.209C174.076 179.999 173.756 180.754 173.194 181.311C172.632 181.869 171.873 182.183 171.081 182.186Z" fill="#FAFAFA"/>
<path d="M126.182 225.025H123.17V216.483H129.338L126.182 225.025Z" fill="#F0F0F0"/>
<path d="M120.756 170.331H104.916V225.026H120.756V170.331Z" fill="#E6E6E6"/>
<path d="M117.744 225.025H120.756V216.483H114.589L117.744 225.025Z" fill="#F0F0F0"/>
<path d="M115.631 209.462H83.3894C82.558 209.462 81.7605 209.132 81.1726 208.545C80.5847 207.959 80.2544 207.163 80.2544 206.334V175.595C80.2562 174.766 80.5873 173.972 81.175 173.387C81.7628 172.802 82.5591 172.474 83.3894 172.474H115.597C116.427 172.474 117.224 172.802 117.811 173.387C118.399 173.972 118.73 174.766 118.732 175.595V206.334C118.732 207.157 118.407 207.948 117.826 208.533C117.246 209.119 116.457 209.452 115.631 209.462ZM83.3894 173.185C83.0699 173.185 82.7534 173.247 82.458 173.368C82.1626 173.489 81.894 173.668 81.6678 173.893C81.4416 174.118 81.2621 174.385 81.1396 174.68C81.0172 174.974 80.9541 175.29 80.9541 175.608V206.347C80.9505 206.667 81.0101 206.985 81.1295 207.282C81.2489 207.579 81.4257 207.849 81.65 208.078C81.8742 208.307 82.1414 208.49 82.4363 208.615C82.7313 208.741 83.0481 208.808 83.3688 208.811H115.611C116.258 208.815 116.88 208.563 117.342 208.11C117.803 207.657 118.066 207.041 118.074 206.395V175.595C118.07 174.952 117.812 174.337 117.356 173.883C116.9 173.429 116.282 173.174 115.638 173.172L83.3894 173.185Z" fill="#E0E0E0"/>
<path d="M72.8456 182.186C72.2473 182.188 71.662 182.012 71.1637 181.681C70.6654 181.351 70.2766 180.88 70.0464 180.329C69.8162 179.778 69.7549 179.171 69.8703 178.586C69.9857 178 70.2726 177.461 70.6947 177.038C71.1168 176.615 71.6552 176.327 72.2418 176.209C72.8284 176.091 73.4368 176.149 73.9901 176.377C74.5434 176.604 75.0168 176.99 75.3503 177.485C75.6839 177.981 75.8626 178.564 75.864 179.161C75.8658 179.558 75.7891 179.951 75.6382 180.318C75.4873 180.685 75.2653 181.018 74.9848 181.299C74.7043 181.58 74.371 181.804 74.0039 181.956C73.6368 182.108 73.2431 182.186 72.8456 182.186Z" fill="#FAFAFA"/>
<path d="M86.4147 182.186C85.8164 182.19 85.2303 182.017 84.7305 181.689C84.2308 181.361 83.8398 180.892 83.6071 180.342C83.3744 179.792 83.3103 179.185 83.4231 178.599C83.5358 178.013 83.8203 177.473 84.2405 177.048C84.6607 176.623 85.1977 176.332 85.7838 176.211C86.3698 176.091 86.9785 176.147 87.5328 176.371C88.0871 176.596 88.5623 176.98 88.8981 177.474C89.2339 177.968 89.4153 178.55 89.4194 179.147V179.209C89.4104 179.999 89.0903 180.754 88.5281 181.311C87.966 181.869 87.2069 182.183 86.4147 182.186Z" fill="#FAFAFA"/>
<path d="M172 255.566C245.459 255.566 305.009 252.097 305.009 247.818C305.009 243.539 245.459 240.07 172 240.07C98.5414 240.07 38.9915 243.539 38.9915 247.818C38.9915 252.097 98.5414 255.566 172 255.566Z" fill="#F5F5F5"/>
<path d="M147.64 69.4765C146.124 73.1521 137.199 72.8988 127.849 69.0522C118.499 65.2055 112.14 59.1071 113.656 55.4316C114.012 54.5828 115.028 51.4001 116.043 50.9621C119.528 49.4905 126.161 52.7964 133.344 55.7532C140.032 58.4911 147.681 60.2775 148.868 63.8982C149.581 66.1022 148.072 68.4293 147.64 69.4765Z" fill="#D1D1D1"/>
<path opacity="0.2" d="M148.868 63.8984C149.437 66.7799 148.182 68.1625 147.64 69.4767C147.098 70.7908 145.513 71.6532 143.298 71.9544C143.021 72.0014 142.741 72.0334 142.461 72.0502C140.762 72.1499 139.057 72.0603 137.377 71.7833C137.137 71.7833 136.897 71.708 136.65 71.6669C134.679 71.3139 132.737 70.8151 130.84 70.1748L130.154 69.9421C129.392 69.6751 128.61 69.3808 127.828 69.0591C127.046 68.7375 126.305 68.3747 125.571 68.053L124.94 67.7518C123.211 66.8986 121.544 65.9242 119.953 64.8361L119.391 64.4391C118.001 63.4594 116.729 62.325 115.597 61.0579C115.425 60.8662 115.268 60.6814 115.117 60.4898C113.642 58.6281 113.059 56.8485 113.642 55.4317C114.026 54.5214 114.849 51.4071 116.029 50.9554C117.48 50.5474 119.016 50.5474 120.468 50.9554L121.154 51.1196C124.584 51.9957 128.905 53.9464 133.316 55.7602C138.516 57.9026 144.67 60.127 147.688 62.6937C147.868 62.8445 148.039 63.0045 148.203 63.1728C148.443 63.3966 148.666 63.6392 148.868 63.8984Z" fill="black"/>
<g opacity="0.2">
<path opacity="0.2" d="M121.496 50.5307L121.181 51.1056L115.611 61.0507C115.439 60.8591 115.281 60.6743 115.13 60.4826L120.481 50.9414L120.9 50.2021L121.496 50.5307Z" fill="black"/>
</g>
<g opacity="0.2">
<path opacity="0.2" d="M125.709 54.5902L119.967 64.857L119.404 64.4601L125.112 54.2754L125.709 54.5902Z" fill="black"/>
</g>
<g opacity="0.2">
<path opacity="0.2" d="M136.266 60.476L130.84 70.1747L130.154 69.942L135.642 60.1133L136.266 60.476Z" fill="black"/>
</g>
<g opacity="0.2">
<path opacity="0.2" d="M131.354 57.7387L125.585 68.0535L124.954 67.7523L130.758 57.376L131.354 57.7387Z" fill="black"/>
</g>
<g opacity="0.2">
<path opacity="0.2" d="M142.667 62.352L137.378 71.7838C137.137 71.7838 136.897 71.7085 136.65 71.6674L142.063 62.0098L142.667 62.352Z" fill="black"/>
</g>
<path d="M148.827 66.274C147.311 69.9495 138.496 69.8058 129.139 65.9523C119.781 62.0988 113.429 56.0072 114.952 52.3317C116.475 48.6562 125.283 48.8067 134.64 52.6534C143.997 56.5 150.343 62.5779 148.827 66.274Z" fill="#D1D1D1"/>
<path opacity="0.2" d="M145.644 64.9389C144.574 67.533 137.7 67.1702 130.298 64.1244C122.896 61.0786 117.765 56.4996 118.835 53.9055C119.905 51.3114 126.779 51.6742 134.188 54.72C141.596 57.7658 146.721 62.3448 145.644 64.9389Z" fill="white"/>
<path d="M194.919 36.2542C197.361 39.3959 192.71 47.0001 184.705 53.1808C176.699 59.3614 168.241 61.8254 165.805 58.6564C165.243 57.9309 162.965 55.5011 163.102 54.3649C163.562 50.6209 169.729 46.5279 175.876 41.7778C181.597 37.3562 186.941 31.6205 190.68 32.3939C192.95 32.8936 194.226 35.3644 194.919 36.2542Z" fill="#D1D1D1"/>
<path opacity="0.2" d="M190.68 32.4209C193.472 33.3654 194.048 35.1587 194.919 36.2538C195.79 37.349 195.756 39.1765 194.919 41.2503C194.823 41.5036 194.706 41.7568 194.583 42.0169C193.831 43.5386 192.911 44.9712 191.839 46.2879C191.695 46.4796 191.537 46.6644 191.379 46.856C190.089 48.3912 188.686 49.828 187.181 51.1544L186.653 51.613C186.042 52.14 185.397 52.667 184.732 53.1804C184.067 53.6937 183.401 54.1797 182.729 54.6383C182.544 54.7751 182.345 54.9052 182.16 55.0352C180.557 56.108 178.879 57.0641 177.138 57.8962C176.925 58.0058 176.72 58.0947 176.521 58.1906C174.974 58.9044 173.352 59.4416 171.684 59.7922C171.437 59.8469 171.197 59.888 170.957 59.9222C168.604 60.2713 166.766 59.9222 165.826 58.6834C165.222 57.9031 162.924 55.6376 163.123 54.3987C163.482 52.9342 164.245 51.5993 165.325 50.5452C165.476 50.3741 165.641 50.203 165.812 50.025C168.289 47.4652 172.123 44.7205 175.896 41.8116C180.348 38.3893 185.343 34.1526 189.068 32.8247C189.292 32.7423 189.521 32.6715 189.754 32.6125C190.057 32.5262 190.367 32.4621 190.68 32.4209Z" fill="black"/>
<g opacity="0.2">
<path opacity="0.2" d="M165.449 49.4639L165.792 50.0251L171.664 59.7923C171.417 59.847 171.177 59.8881 170.937 59.9223L165.305 50.5316L164.865 49.8472L165.449 49.4639Z" fill="black"/>
</g>
<g opacity="0.2">
<path opacity="0.2" d="M171.067 47.835L177.118 57.8964C176.905 58.0059 176.699 58.0949 176.5 58.1907L170.477 48.184L171.067 47.835Z" fill="black"/>
</g>
<g opacity="0.2">
<path opacity="0.2" d="M181.432 41.6338L187.161 51.1614L186.632 51.62L180.843 41.9829L181.432 41.6338Z" fill="black"/>
</g>
<g opacity="0.2">
<path opacity="0.2" d="M176.617 44.5156L182.708 54.6387C182.523 54.7756 182.324 54.9056 182.139 55.0357L176.02 44.8647L176.617 44.5156Z" fill="black"/>
</g>
<g opacity="0.2">
<path opacity="0.2" d="M186.248 37.0137L191.818 46.288C191.674 46.4797 191.517 46.6645 191.359 46.8561L185.658 37.3696L186.248 37.0137Z" fill="black"/>
</g>
<path d="M182.628 50.4938C190.628 44.311 195.137 36.7527 192.699 33.6117C190.26 30.4708 181.798 32.9367 173.798 39.1195C165.797 45.3023 161.288 52.8607 163.727 56.0016C166.165 59.1425 174.627 56.6766 182.628 50.4938Z" fill="#D1D1D1"/>
<path opacity="0.2" d="M181.636 48.5888C187.968 43.6954 191.703 37.9284 189.98 35.7079C188.256 33.4875 181.725 35.6544 175.393 40.5478C169.061 45.4413 165.326 51.2082 167.049 53.4287C168.773 55.6492 175.304 53.4823 181.636 48.5888Z" fill="white"/>
<path d="M161.806 21.5379C161.024 26.0416 150.899 27.9444 139.429 25.891C127.959 23.8377 119.308 18.5469 120.111 14.0432C120.296 12.9959 120.619 9.18353 121.696 8.42379C125.256 5.91869 133.529 8.01312 142.337 9.57367C150.569 11.0316 159.577 11.1479 161.806 14.9329C163.157 17.2601 162.032 20.2511 161.806 21.5379Z" fill="#D1D1D1"/>
<path opacity="0.2" d="M161.806 14.9402C163.178 18.0476 162.087 19.9025 161.806 21.5178C161.525 23.1331 159.954 24.4815 157.539 25.3713C157.244 25.4876 156.935 25.5835 156.62 25.6793C154.731 26.209 152.789 26.528 150.83 26.6307C150.549 26.6307 150.274 26.6307 149.986 26.6786C147.678 26.7633 145.367 26.6786 143.071 26.4253L142.269 26.3227C141.343 26.2063 140.389 26.0694 139.436 25.8983C138.482 25.7272 137.556 25.5355 136.644 25.3234C136.383 25.2686 136.122 25.2002 135.861 25.1386C133.706 24.6076 131.592 23.9213 129.537 23.0852C129.283 22.9894 129.043 22.8799 128.803 22.784C126.998 22.0178 125.286 21.0512 123.699 19.9025C123.459 19.7314 123.239 19.5603 123.013 19.3823C120.886 17.6506 119.795 15.7889 120.104 14.0573C120.31 12.9348 120.474 9.26609 121.682 8.4379C122.889 7.60971 124.618 7.34962 126.676 7.34277H127.499C131.615 7.47966 136.918 8.6227 142.33 9.58093C148.71 10.7171 156.181 11.7096 160.201 13.8588C160.437 13.9835 160.666 14.1205 160.887 14.2694C161.21 14.4688 161.518 14.6931 161.806 14.9402Z" fill="black"/>
<g opacity="0.2">
<path opacity="0.2" d="M127.726 6.64482L127.506 7.36349L123.692 19.9164C123.452 19.7453 123.232 19.5741 123.006 19.3962L126.669 7.35665L126.957 6.41895L127.726 6.64482Z" fill="black"/>
</g>
<g opacity="0.2">
<path opacity="0.2" d="M133.46 10.1487L129.53 23.0781C129.276 22.9822 129.036 22.8727 128.796 22.7769L132.706 9.90918L133.46 10.1487Z" fill="black"/>
</g>
<g opacity="0.2">
<path opacity="0.2" d="M146.789 14.2005L143.064 26.4454L142.262 26.3427L146.028 13.9678L146.789 14.2005Z" fill="black"/>
</g>
<g opacity="0.2">
<path opacity="0.2" d="M140.595 12.3255L136.637 25.3301C136.376 25.2754 136.115 25.2069 135.854 25.1453L139.833 12.0791L140.595 12.3255Z" fill="black"/>
</g>
<g opacity="0.2">
<path opacity="0.2" d="M154.452 14.7347L150.823 26.651C150.542 26.651 150.267 26.651 149.979 26.6989L153.691 14.5088L154.452 14.7347Z" fill="black"/>
</g>
<path d="M162.34 17.606C163.143 13.1028 154.493 7.80084 143.019 5.76373C131.546 3.72661 121.593 5.72579 120.79 10.229C119.987 14.7322 128.637 20.0342 140.111 22.0713C151.585 24.1084 161.537 22.1093 162.34 17.606Z" fill="#D1D1D1"/>
<path opacity="0.2" d="M158.435 16.9176C159.003 13.7356 152.103 9.84927 143.024 8.23733C133.945 6.62539 126.125 7.8982 125.557 11.0802C124.99 14.2623 131.89 18.1485 140.969 19.7605C150.048 21.3724 157.868 20.0996 158.435 16.9176Z" fill="white"/>
<path d="M221.694 136.52L151.098 140.627C148.604 140.773 146.157 141.367 143.874 142.379L67.1931 176.602C65.8477 177.192 64.7459 178.224 64.0717 179.527C63.3975 180.83 63.1917 182.325 63.4887 183.761L76.1591 243.548C76.3733 244.511 76.8053 245.412 77.4221 246.182C78.0389 246.953 78.8242 247.573 79.7178 247.994C80.6115 248.415 81.5898 248.627 82.5782 248.614C83.5665 248.6 84.5386 248.361 85.4201 247.915L161.106 210.215L230.996 207.881C231.856 207.858 232.701 207.653 233.476 207.278C234.25 206.904 234.935 206.37 235.486 205.71C236.037 205.051 236.441 204.282 236.671 203.455C236.901 202.628 236.952 201.762 236.82 200.913L227.47 143.666C226.983 140.709 224.733 136.431 221.694 136.52Z" fill="#C0C0C0"/>
<path opacity="0.1" d="M221.694 136.52L151.098 140.627C148.604 140.773 146.157 141.367 143.874 142.379L67.1931 176.602C65.8477 177.192 64.7459 178.224 64.0717 179.527C63.3975 180.83 63.1917 182.325 63.4887 183.761L76.1591 243.548C76.3733 244.511 76.8053 245.412 77.4221 246.182C78.0389 246.953 78.8242 247.573 79.7178 247.994C80.6115 248.415 81.5898 248.627 82.5782 248.614C83.5665 248.6 84.5386 248.361 85.4201 247.915L161.106 210.215L230.996 207.881C231.856 207.858 232.701 207.653 233.476 207.278C234.25 206.904 234.935 206.37 235.486 205.71C236.037 205.051 236.441 204.282 236.671 203.455C236.901 202.628 236.952 201.762 236.82 200.913L227.47 143.666C226.983 140.709 224.733 136.431 221.694 136.52Z" fill="black"/>
<path d="M79.9931 97.5922L42.9453 131.666L109.429 203.627L146.477 169.553L79.9931 97.5922Z" fill="#C0C0C0"/>
<path opacity="0.5" d="M146.467 169.558L109.416 203.63L42.9429 131.674L67.2547 109.313L79.9937 97.5947L82.1135 99.8945L146.467 169.558Z" fill="#FAFAFA"/>
<path d="M80.2309 101.991L47.541 132.057L109.729 199.367L142.418 169.302L80.2309 101.991Z" stroke="#C0C0C0" stroke-miterlimit="10"/>
<path d="M102.335 158.648C106.085 155.2 105.611 148.601 101.276 143.909C96.9415 139.217 90.3881 138.21 86.6385 141.658C82.889 145.107 83.3632 151.706 87.6978 156.397C92.0323 161.089 98.5858 162.097 102.335 158.648Z" fill="#C0C0C0"/>
<path opacity="0.1" d="M109.025 174.425L95.8608 178.963L67.2546 109.313L79.9937 97.5947L82.1134 99.8945L109.025 174.425Z" fill="black"/>
<path d="M111.59 69.3995L64.2212 86.5361L97.6577 178.545L145.027 161.408L111.59 69.3995Z" fill="#C0C0C0"/>
<path opacity="0.5" d="M111.59 69.3995L64.2212 86.5361L97.6577 178.545L145.027 161.408L111.59 69.3995Z" fill="#FAFAFA"/>
<path d="M110.101 73.5481L68.3042 88.6689L99.58 174.732L141.377 159.611L110.101 73.5481Z" stroke="#C0C0C0" stroke-miterlimit="10"/>
<path d="M108.546 134.32C113.34 132.586 115.459 126.317 113.279 120.318C111.099 114.319 105.446 110.863 100.652 112.597C95.8574 114.331 93.7382 120.6 95.9181 126.599C98.0981 132.598 103.752 136.055 108.546 134.32Z" fill="#C0C0C0"/>
<path d="M222.153 138.95L152.524 142.865C150.056 143 147.635 143.592 145.383 144.611L69.8272 178.642C68.4963 179.242 67.4106 180.277 66.7495 181.577C66.0884 182.876 65.8915 184.361 66.1914 185.788L78.8618 245.602C79.0659 246.559 79.4871 247.456 80.0931 248.225C80.699 248.994 81.4737 249.614 82.3574 250.038C83.2411 250.462 84.2105 250.678 85.1909 250.669C86.1713 250.661 87.1368 250.428 88.013 249.989L162.581 212.502L231.51 210.325C232.364 210.298 233.202 210.09 233.968 209.714C234.734 209.339 235.411 208.804 235.954 208.147C236.497 207.489 236.893 206.724 237.115 205.901C237.338 205.079 237.382 204.219 237.245 203.378L227.868 146.137C227.381 143.153 225.158 138.868 222.153 138.95Z" fill="#C0C0C0"/>
<path opacity="0.2" d="M155.358 153.337L215.101 149.668" stroke="black" stroke-width="2" stroke-linecap="round" stroke-linejoin="round"/>
<path opacity="0.2" d="M148.203 154.877L159.117 204.897" stroke="black" stroke-width="2" stroke-linecap="round" stroke-linejoin="round"/>
<path opacity="0.2" d="M75.4319 200.037L83.1288 238.51C83.1288 238.51 89.0284 223.247 75.4319 200.037Z" fill="#FAFAFA"/>
<path opacity="0.2" d="M76.4402 200.489C76.7077 201.173 144.807 172.016 144.807 172.016C144.991 178.626 143.335 185.158 140.021 190.886C136.708 196.613 131.867 201.312 126.038 204.459C105.54 215.923 76.4402 200.489 76.4402 200.489Z" fill="#FAFAFA"/>
<path d="M121.675 201.625C123.304 201.625 124.625 200.307 124.625 198.681C124.625 197.056 123.304 195.738 121.675 195.738C120.046 195.738 118.725 197.056 118.725 198.681C118.725 200.307 120.046 201.625 121.675 201.625Z" fill="#C0C0C0"/>
<path opacity="0.2" d="M144.841 172.016C144.841 172.016 153.286 184.699 151.242 206.3L144.841 172.016Z" fill="black"/>
<g opacity="0.2">
<path opacity="0.2" d="M72.1733 184.925L73.7443 184.233" stroke="#FAFAFA" stroke-linecap="round" stroke-linejoin="round"/>
<path opacity="0.2" d="M77.0027 182.796L140.595 154.747" stroke="#FAFAFA" stroke-linecap="round" stroke-linejoin="round" stroke-dasharray="5.2 5.2"/>
<path opacity="0.2" d="M142.228 154.028L143.792 153.337" stroke="#FAFAFA" stroke-linecap="round" stroke-linejoin="round"/>
</g>
<path opacity="0.2" d="M157.361 164.583L217.105 160.907" stroke="black" stroke-width="2" stroke-linecap="round" stroke-linejoin="round"/>
<path opacity="0.2" d="M160.05 178.606L219.794 174.931" stroke="black" stroke-width="2" stroke-linecap="round" stroke-linejoin="round"/>
<path d="M206.698 78.9775C206.698 78.9775 205.195 94.9458 199.248 96.3216C195.565 97.1153 191.725 96.7322 188.272 95.2265L183.436 91.5167L181.076 99.7302C181.076 99.7302 183.655 103.228 189.04 100.805C189.04 100.805 198.644 105.021 203.954 100.805C209.263 96.5885 210.965 85.0213 210.965 85.0213L206.698 78.9775Z" fill="#B97964"/>
<path d="M211.479 71.2427C211.479 71.2427 207.329 64.1859 209.215 51.3935C211.102 38.6011 221.851 37.02 226.002 37.944C230.152 38.868 233.548 42.8447 236.374 50.4147C239.2 57.9848 240.243 59.956 244.956 58.6282C249.669 57.3003 262.209 53.1526 265.701 56.8418C266.705 57.8495 267.445 59.0886 267.855 60.4494C268.266 61.8103 268.334 63.2511 268.054 64.6445C268.054 64.6445 285.499 60.4146 283.989 75.938C282.48 91.4614 257.304 105.951 233.356 90.6127C209.407 75.2741 211.479 71.2427 211.479 71.2427Z" fill="#263238"/>
<path d="M211.287 108.813C211.287 108.813 206.547 149.49 206.705 168.565C206.862 187.641 213.654 232.596 213.654 232.596H222.03C222.03 232.596 220.925 196.648 221.083 184.349C221.241 172.049 223.45 151.7 223.45 151.7C223.45 151.7 226.132 169.989 229.295 176.45C232.457 182.911 249.998 205.779 262.168 212.877L267.855 207.668C267.855 207.668 255.212 192.063 250.471 184.335C245.731 176.608 241.471 174.417 239.729 160.044C237.986 145.67 240.998 122.68 235.942 108.806L211.287 108.813Z" fill="#5E5E5E"/>
<path opacity="0.2" d="M223.45 151.7L219.807 125.917C219.807 125.917 216.933 141.413 222.592 160.338L223.45 151.7Z" fill="black"/>
<path d="M215.376 234.875L215.657 242.862L221.275 243.328L221.557 242.582V234.313L215.376 234.875Z" fill="#B97964"/>
<path d="M212.707 231.836L213.222 234.827L222.867 235.06L223.477 231.467L212.707 231.836Z" fill="#5E5E5E"/>
<path d="M259.527 213.431L268.465 205.122L270.434 208.25L262.758 215.259L259.527 213.431Z" fill="#5E5E5E"/>
<path d="M263.835 213.431L269.734 218.387L273.521 213.945L268.678 208.948L263.835 213.431Z" fill="#B97964"/>
<path d="M274.667 213.603L278.234 215.793C278.396 215.893 278.535 216.027 278.64 216.186C278.745 216.345 278.814 216.525 278.843 216.714C278.871 216.902 278.857 217.094 278.803 217.277C278.749 217.46 278.655 217.628 278.529 217.771C275.943 220.687 269.336 228.093 268.678 228.613C267.862 229.297 266.874 228.147 266.62 227.121C266.62 227.121 268.493 224.643 268.678 223.055C268.756 221.829 268.756 220.599 268.678 219.373C268.663 219.066 268.766 218.765 268.966 218.531L272.952 213.863C273.157 213.62 273.445 213.459 273.76 213.411C274.076 213.364 274.398 213.432 274.667 213.603Z" fill="#263238"/>
<path d="M222.647 243.546L223.388 247.653C223.422 247.841 223.415 248.034 223.366 248.218C223.317 248.403 223.229 248.574 223.106 248.721C222.984 248.868 222.831 248.986 222.658 249.068C222.485 249.149 222.297 249.192 222.105 249.193C218.202 249.193 208.269 249.234 207.439 249.097C206.403 248.926 206.588 247.448 207.198 246.585C207.198 246.585 210.292 246.325 211.589 245.387C212.553 244.633 213.47 243.819 214.333 242.951C214.554 242.735 214.847 242.611 215.156 242.602L221.296 242.458C221.615 242.446 221.927 242.55 222.175 242.75C222.424 242.95 222.591 243.233 222.647 243.546Z" fill="#263238"/>
<path d="M236.841 86.2527L245.402 80.2569C245.402 80.2569 243.124 71.1673 239.749 70.7156C236.374 70.2638 219.622 67.0811 208.969 70.7156C208.969 70.7156 205.141 71.8039 203.961 82.5292L208.516 83.9803C208.516 83.9803 210.148 104.062 211.157 107.156H235.469C235.469 107.156 235.743 89.8871 236.841 86.2527Z" fill="#ABAEB6"/>
<path d="M238.686 84.9588C238.686 84.9588 241.931 94.199 242.507 99.1681C242.507 99.1681 234.796 96.1017 232.807 94.6986L231.298 89.2914L226.194 86.8069L224.678 90.9136L228.938 96.1839C228.938 96.1839 240.552 107.026 246.438 104.548C252.324 102.07 244.112 81.1807 244.112 81.1807L238.686 84.9588Z" fill="#B97964"/>
<path d="M216.905 44.5012C216.905 44.5012 213.935 50.4149 214.161 55.2266C214.388 60.0383 216.823 62.0027 221.454 62.6803C221.454 62.6803 223.429 68.8404 218.243 69.4633C217.845 69.5112 217.708 71.0786 217.736 71.3318C217.873 72.3311 218.867 72.8787 219.794 73.1114C220.769 73.3269 221.765 73.437 222.764 73.4399C223.813 73.476 224.857 73.2735 225.816 72.8478C226.775 72.4221 227.624 71.7843 228.3 70.9827C228.41 70.8527 229.452 69.5248 229.452 69.5248C229.452 69.5248 226.976 68.2997 227.847 60.2779C229.029 59.5102 229.937 58.3889 230.44 57.0746C230.913 56.8241 231.332 56.482 231.671 56.0683C232.01 55.6546 232.263 55.1777 232.416 54.6654C232.786 53.0637 231.366 50.8461 228.773 53.0637C228.773 53.0637 223.889 50.5997 222.037 41.9688C220.663 43.3686 218.854 44.2615 216.905 44.5012Z" fill="#B97964"/>
<path d="M218.298 53.9122L218.716 50.75L216.473 53.2277C216.705 53.4735 216.989 53.663 217.306 53.7817C217.622 53.9003 217.962 53.945 218.298 53.9122Z" fill="#A24E3F"/>
<path d="M219.602 56.2261C219.602 56.2261 221.968 56.5888 223.107 55.0762" stroke="#222221" stroke-width="0.75" stroke-linecap="round" stroke-linejoin="round"/>
<path d="M221.968 46.321C222.506 46.1686 223.074 46.1639 223.614 46.3073C224.154 46.4506 224.644 46.7368 225.035 47.1355" stroke="#222221" stroke-linecap="round" stroke-linejoin="round"/>
<path d="M217.873 45.638C217.873 45.638 216.501 45.4258 215.89 46.1992" stroke="#222221" stroke-linecap="round" stroke-linejoin="round"/>
<path d="M222.922 50.484C222.86 50.9631 222.551 51.3121 222.236 51.2711C221.92 51.23 221.707 50.8125 221.769 50.3334C221.831 49.8543 222.14 49.5052 222.455 49.5462C222.771 49.5873 222.983 50.0048 222.922 50.484Z" fill="#222221"/>
<path d="M217.445 49.4236C217.507 48.9475 217.299 48.528 216.979 48.4866C216.66 48.4452 216.351 48.7977 216.289 49.2737C216.227 49.7498 216.436 50.1693 216.755 50.2107C217.074 50.2521 217.383 49.8997 217.445 49.4236Z" fill="#222221"/>
<path d="M222.462 49.5455L221.378 49.0732C221.392 49.1916 221.437 49.3042 221.509 49.3999C221.58 49.4956 221.675 49.571 221.785 49.6187C221.894 49.6664 222.014 49.6848 222.133 49.6719C222.252 49.6591 222.365 49.6155 222.462 49.5455Z" fill="#222221"/>
<path d="M217.084 48.5328L216 48.0605C216.014 48.1789 216.059 48.2915 216.131 48.3872C216.202 48.4829 216.297 48.5583 216.407 48.606C216.516 48.6537 216.636 48.6721 216.755 48.6593C216.874 48.6464 216.987 48.6028 217.084 48.5328Z" fill="#222221"/>
<path d="M210.306 106.088V108.942L236.649 109.162L235.942 105.767L210.306 106.088Z" fill="#407BFF"/>
<path d="M210.306 106.088V108.942L236.649 109.162L235.942 105.767L210.306 106.088Z" fill="#5E5E5E"/>
<path d="M210.629 92.235L196.14 142.515C195.659 144.199 194.682 145.7 193.337 146.825C191.992 147.95 190.34 148.647 188.594 148.826C187.483 148.932 186.362 148.83 185.288 148.525L157.594 140.578C155.355 139.933 153.464 138.43 152.335 136.396C151.206 134.362 150.931 131.965 151.571 129.729L166.066 79.4358C166.714 77.2051 168.221 75.3215 170.258 74.1976C172.294 73.0737 174.695 72.8013 176.932 73.44L204.647 81.3796C206.881 82.0312 208.764 83.5395 209.886 85.5742C211.007 87.609 211.274 90.0041 210.629 92.235Z" fill="#9A9A9A"/>
<path opacity="0.2" d="M210.629 92.235L196.14 142.515C195.659 144.199 194.682 145.7 193.337 146.825C191.992 147.95 190.34 148.647 188.594 148.826C187.483 148.932 186.362 148.83 185.288 148.525L157.594 140.578C155.355 139.933 153.464 138.43 152.335 136.396C151.206 134.362 150.931 131.965 151.571 129.729L166.066 79.4358C166.714 77.2051 168.221 75.3215 170.258 74.1976C172.294 73.0737 174.695 72.8013 176.932 73.44L204.647 81.3796C206.881 82.0312 208.764 83.5395 209.886 85.5742C211.007 87.609 211.274 90.0041 210.629 92.235Z" fill="black"/>
<path d="M208.221 92.8312L193.733 143.118C193.366 144.398 192.712 145.578 191.819 146.567C190.926 147.556 189.818 148.329 188.581 148.826C187.469 148.932 186.348 148.83 185.274 148.525L157.594 140.579C155.355 139.934 153.464 138.43 152.335 136.397C151.206 134.363 150.931 131.966 151.571 129.73L166.066 79.4364C166.433 78.1582 167.088 76.9805 167.981 75.9935C168.874 75.0065 169.981 74.2363 171.218 73.7418C172.329 73.6289 173.452 73.7312 174.525 74.043L202.184 82.0168C204.419 82.6572 206.308 84.1544 207.439 86.1809C208.571 88.2075 208.852 90.5985 208.221 92.8312Z" fill="#9A9A9A"/>
<path opacity="0.5" d="M208.221 92.8312L193.733 143.118C193.366 144.398 192.712 145.578 191.819 146.567C190.926 147.556 189.818 148.329 188.581 148.826C187.469 148.932 186.348 148.83 185.274 148.525L157.594 140.579C155.355 139.934 153.464 138.43 152.335 136.397C151.206 134.363 150.931 131.966 151.571 129.73L166.066 79.4364C166.433 78.1582 167.088 76.9805 167.981 75.9935C168.874 75.0065 169.981 74.2363 171.218 73.7418C172.329 73.6289 173.452 73.7312 174.525 74.043L202.184 82.0168C204.419 82.6572 206.308 84.1544 207.439 86.1809C208.571 88.2075 208.852 90.5985 208.221 92.8312Z" fill="#FAFAFA"/>
<path d="M169.271 97.1071L166.306 96.2734L155.635 134.048L158.6 134.882L169.271 97.1071Z" fill="#FAFAFA"/>
<path d="M162.856 136.082L159.892 135.226L170.559 97.4648L173.516 98.3136L162.856 136.082Z" fill="#FAFAFA"/>
<path d="M167.164 137.313L164.2 136.464L174.867 98.7031L177.831 99.5518L167.164 137.313Z" fill="#FAFAFA"/>
<path opacity="0.5" d="M195.082 104.501L192.118 103.667L181.447 141.442L184.412 142.276L195.082 104.501Z" fill="black"/>
<path d="M194.707 93.823L193.266 98.9495L191.51 98.4567C190.659 98.2159 189.939 97.6484 189.507 96.8786C189.075 96.1088 188.966 95.1995 189.205 94.35L190.165 90.9277L193.712 91.9407C194.094 92.059 194.413 92.3236 194.6 92.6765C194.786 93.0294 194.825 93.4418 194.707 93.823Z" fill="#FAFAFA"/>
<path d="M193.863 91.312L190.316 90.299L191.379 86.5482C191.498 86.1274 191.699 85.7341 191.97 85.3908C192.241 85.0474 192.577 84.7607 192.96 84.5472C193.342 84.3336 193.763 84.1972 194.198 84.146C194.633 84.0947 195.074 84.1295 195.495 84.2484L197.32 84.7618L195.729 90.2853C195.676 90.4763 195.585 90.6548 195.462 90.8103C195.339 90.9659 195.186 91.0953 195.013 91.1909C194.839 91.2866 194.647 91.3466 194.45 91.3674C194.252 91.3882 194.053 91.3694 193.863 91.312Z" fill="#FAFAFA"/>
<path d="M197.224 92.9673L200.792 93.9872L199.845 97.3341C199.728 97.7559 199.528 98.1503 199.257 98.4947C198.987 98.839 198.65 99.1263 198.267 99.3402C197.885 99.554 197.463 99.6901 197.028 99.7405C196.592 99.7909 196.151 99.7547 195.729 99.6339L193.877 99.1137L195.352 93.994C195.406 93.8033 195.498 93.6252 195.622 93.4701C195.745 93.315 195.899 93.186 196.073 93.0905C196.247 92.995 196.439 92.935 196.636 92.9138C196.834 92.8927 197.034 92.9109 197.224 92.9673Z" fill="#FAFAFA"/>
<path d="M202.054 89.5458L200.977 93.3514L197.41 92.3315C197.028 92.2202 196.705 91.9628 196.513 91.6154C196.32 91.268 196.272 90.8588 196.381 90.4767L197.972 84.9531L199.749 85.4528C200.17 85.5705 200.563 85.7698 200.907 86.0392C201.25 86.3086 201.537 86.6429 201.751 87.023C201.965 87.403 202.102 87.8215 202.154 88.2543C202.206 88.6872 202.172 89.1261 202.054 89.5458Z" fill="#FAFAFA"/>
</svg>
