<svg width="1066" height="845" viewBox="0 0 1066 845" fill="none" xmlns="http://www.w3.org/2000/svg">
<path opacity="0.5" d="M860.64 78.2053C862.004 64.3187 873.617 53.6936 887.57 53.5674L1255.04 50.242C1271.27 50.0951 1284.05 64.0592 1282.46 80.2158C1281.1 94.1025 1269.49 104.728 1255.53 104.854L888.064 108.179C871.83 108.326 859.054 94.362 860.64 78.2053Z" fill="#FFF8D6"/>
<path opacity="0.5" d="M192.905 154.475C191.317 168.338 179.533 178.774 165.58 178.674L-201.894 176.049C-218.128 175.933 -230.677 161.764 -228.829 145.635C-227.241 131.772 -215.457 121.336 -201.504 121.436L165.97 124.061C182.204 124.177 194.752 138.347 192.905 154.475Z" fill="#FFF8D6"/>
<path opacity="0.2" d="M894.352 153.373C895.715 139.487 907.328 128.862 921.281 128.735L1288.75 125.41C1304.98 125.263 1317.76 139.227 1316.17 155.384C1314.81 169.27 1303.2 179.896 1289.24 180.022L921.775 183.347C905.542 183.494 892.766 169.53 894.352 153.373Z" fill="#D6D6FF"/>
<path opacity="0.2" d="M160.415 78.7723C158.827 92.635 147.043 103.071 133.09 102.971L-234.384 100.346C-250.618 100.23 -263.166 86.0605 -261.319 69.9316C-259.731 56.0688 -247.947 45.6332 -233.994 45.7329L133.48 48.3583C149.714 48.4743 162.263 62.6434 160.415 78.7723Z" fill="#D6D6FF"/>
<rect x="910.975" y="736" width="108" height="40" rx="20" fill="#FBFBFF"/>
<rect x="77.2925" y="448.5" width="108" height="40" rx="20" fill="#FBFBFF"/>
<rect x="41.1533" y="804.5" width="108" height="40" rx="20" fill="#FFFBEB"/>
<rect x="910.975" y="380" width="108" height="40" rx="20" fill="#FFFBEB"/>
</svg>
